<?xml version="1.0"?>
<svg xmlns="http://www.w3.org/2000/svg"
xmlns:xlink="http://www.w3.org/1999/xlink" xmlns:cml="http://www.xml-cml.org/schema" width="183.924" height="199.999" x="0" y="0" font-family="sans-serif" stroke="rgb(0,0,0)" stroke-width="1"  stroke-linecap="round">
<rect x="0%" y="0%" width="100%" height="100%" stroke-width="0" fill="rgb(255,255,255)"  />
<line x1="76.1" y1="142.6" x2="52.8" y2="156.1" stroke="rgb(0,0,0)"  stroke-width="1.0"/>
<line x1="73.1" y1="137.4" x2="49.8" y2="150.9" stroke="rgb(0,0,0)"  stroke-width="1.0"/>
<line x1="63.4" y1="93.5" x2="51.3" y2="86.5" stroke="rgb(0,0,0)"  stroke-width="1.0"/>
<line x1="109.3" y1="80.0" x2="109.3" y2="53.0" stroke="rgb(0,0,0)"  stroke-width="1.0"/>
<line x1="143.9" y1="100.0" x2="143.9" y2="140.0" stroke="rgb(0,0,0)"  stroke-width="1.0"/>
<line x1="143.9" y1="140.0" x2="120.7" y2="153.4" stroke="rgb(0,0,0)"  stroke-width="1.0"/>
<line x1="135.1" y1="136.8" x2="118.8" y2="146.2" stroke="rgb(0,0,0)"  stroke-width="1.0"/>
<line x1="98.0" y1="153.5" x2="74.6" y2="140.0" stroke="rgb(0,0,0)"  stroke-width="1.0"/>
<line x1="74.6" y1="140.0" x2="74.6" y2="113.0" stroke="rgb(0,0,0)"  stroke-width="1.0"/>
<line x1="85.9" y1="93.5" x2="109.3" y2="80.0" stroke="rgb(0,0,0)"  stroke-width="1.0"/>
<line x1="109.3" y1="80.0" x2="143.9" y2="100.0" stroke="rgb(0,0,0)"  stroke-width="1.0"/>
<line x1="110.9" y1="89.2" x2="135.1" y2="103.2" stroke="rgb(0,0,0)"  stroke-width="1.0"/>
<text x="103.283683" y="167.999451" fill="rgb(12,12,255)"  stroke="rgb(12,12,255)" stroke-width="1" font-size="16" >N</text>
<text x="34.000000" y="167.999451" fill="rgb(255,12,12)"  stroke="rgb(255,12,12)" stroke-width="1" font-size="16" >O</text>
<text x="68.643841" y="107.999725" fill="rgb(12,12,255)"  stroke="rgb(12,12,255)" stroke-width="1" font-size="16" >N</text>
<text x="34.000000" y="87.999817" fill="rgb(191,191,191)"  stroke="rgb(191,191,191)" stroke-width="1" font-size="16" >H</text>
<text x="105.283683" y="48.000000" fill="rgb(12,12,255)"  stroke="rgb(12,12,255)" stroke-width="1" font-size="16" >NH</text>
<text x="129.283683" y="51.680000" fill="rgb(12,12,255)"  stroke="rgb(12,12,255)" stroke-width="1" font-size="13" >2</text>
<text font-size="18.000000" fill ="black" font-family="sans-serif"
x="10.000000" y="20.000000" >cytosine</text>
<title>cytosine - OBDepict</title>
</svg>
