<?xml version="1.0"?>
<svg version="1.1" id="topsvg"
xmlns="http://www.w3.org/2000/svg" xmlns:xlink="http://www.w3.org/1999/xlink"
xmlns:cml="http://www.xml-cml.org/schema" x="0" y="0" width="100%" height="100%" viewBox="0 0 100 80">
<title>OBDepict</title>
<rect x="0" y="0" width="100" height="80" fill="white"/>
<text text-anchor="middle" font-size="1.2" fill ="black" font-family="sans-serif"
x="10" y="19.5" >glycine</text>
<g transform="translate(0,0)">
<svg width="20" height="20" x="0" y="0" viewBox="0 0 183.923 140"
font-family="sans-serif" stroke="rgb(0,0,0)" stroke-width="2"  stroke-linecap="round">
<line x1="109.3" y1="100.0" x2="74.6" y2="80.0" stroke="rgb(0,0,0)"  stroke-width="2.0"/>
<line x1="109.3" y1="100.0" x2="132.7" y2="86.5" stroke="rgb(0,0,0)"  stroke-width="2.0"/>
<line x1="71.6" y1="80.0" x2="71.6" y2="53.0" stroke="rgb(0,0,0)"  stroke-width="2.0"/>
<line x1="77.6" y1="80.0" x2="77.6" y2="53.0" stroke="rgb(0,0,0)"  stroke-width="2.0"/>
<line x1="74.6" y1="80.0" x2="51.3" y2="93.5" stroke="rgb(0,0,0)"  stroke-width="2.0"/>
<text x="68.639822" y="48.000000" fill="rgb(255,12,12)"  stroke="rgb(255,12,12)" stroke-width="1" font-size="16" >O</text>
<text x="22.000000" y="107.999691" fill="rgb(255,12,12)"  stroke="rgb(255,12,12)" stroke-width="1" font-size="16" >HO</text>
<text x="139.923465" y="87.999794" fill="rgb(12,12,255)"  stroke="rgb(12,12,255)" stroke-width="1" font-size="16" >NH</text>
<text x="163.923465" y="91.679794" fill="rgb(12,12,255)"  stroke="rgb(12,12,255)" stroke-width="1" font-size="13" >2</text>
</svg>
</g>
<text text-anchor="middle" font-size="1.200000" fill ="black" font-family="sans-serif"
x="30.000000" y="19.500000" >alanine</text>
<g transform="translate(20.000000,0.000000)">
<svg width="20.000000" height="20.000000" x="0" y="0" viewBox="0 0 183.923572 179.999588"
font-family="sans-serif" stroke="rgb(0,0,0)" stroke-width="2.000000"  stroke-linecap="round">
<line x1="131.2" y1="96.1" x2="107.8" y2="82.6" stroke="rgb(0,0,0)"  stroke-width="2.0"/>
<line x1="134.2" y1="90.9" x2="110.8" y2="77.4" stroke="rgb(0,0,0)"  stroke-width="2.0"/>
<line x1="109.3" y1="80.0" x2="109.3" y2="53.0" stroke="rgb(0,0,0)"  stroke-width="2.0"/>
<line x1="109.3" y1="80.0" x2="74.6" y2="100.0" stroke="rgb(0,0,0)"  stroke-width="2.0"/>
<line x1="74.6" y1="100.0" x2="51.3" y2="86.5" stroke="rgb(0,0,0)"  stroke-width="2.0"/>
<line x1="74.6" y1="100.0" x2="74.6" y2="127.0" stroke="rgb(0,0,0)"  stroke-width="2.0"/>
<text x="137.923572" y="107.999753" fill="rgb(255,12,12)"  stroke="rgb(255,12,12)" stroke-width="1" font-size="16" >O</text>
<text x="103.279715" y="48.000000" fill="rgb(255,12,12)"  stroke="rgb(255,12,12)" stroke-width="1" font-size="16" >OH</text>
<text x="14.000000" y="87.999835" fill="rgb(12,12,255)"  stroke="rgb(12,12,255)" stroke-width="1" font-size="16" >H</text>
<text x="26.000000" y="91.679835" fill="rgb(12,12,255)"  stroke="rgb(12,12,255)" stroke-width="1" font-size="13" >2</text>
<text x="32.500000" y="87.999835" fill="rgb(12,12,255)"  stroke="rgb(12,12,255)" stroke-width="1" font-size="16" >N</text>
<text x="70.639857" y="147.999588" fill="rgb(102,102,102)"  stroke="rgb(102,102,102)" stroke-width="1" font-size="16" >CH</text>
<text x="94.639857" y="151.679588" fill="rgb(102,102,102)"  stroke="rgb(102,102,102)" stroke-width="1" font-size="13" >3</text>
</svg>
</g>
<text text-anchor="middle" font-size="1.200000" fill ="black" font-family="sans-serif"
x="50.000000" y="19.500000" >valine</text>
<g transform="translate(40.000000,0.000000)">
<svg width="20.000000" height="20.000000" x="0" y="0" viewBox="0 0 218.567286 174.639513"
font-family="sans-serif" stroke="rgb(0,0,0)" stroke-width="2.000000"  stroke-linecap="round">
<line x1="167.3" y1="93.5" x2="143.9" y2="80.0" stroke="rgb(0,0,0)"  stroke-width="2.0"/>
<line x1="143.9" y1="80.0" x2="143.9" y2="53.0" stroke="rgb(0,0,0)"  stroke-width="2.0"/>
<line x1="143.9" y1="80.0" x2="109.3" y2="100.0" stroke="rgb(0,0,0)"  stroke-width="2.0"/>
<polygon points="109.283643 99.999691 99.347788 125.208415 92.419636 121.208327 " stroke-width="2.000000" fill="rgb(0,0,0)"  stroke="rgb(0,0,0)" />
<line x1="109.3" y1="100.0" x2="74.6" y2="80.0" stroke="rgb(0,0,0)"  stroke-width="2.0"/>
<line x1="109.3" y1="100.0" x2="122.8" y2="123.4" stroke="rgb(0,0,0)"  stroke-width="2.0"/>
<line x1="71.6" y1="80.0" x2="71.6" y2="53.0" stroke="rgb(0,0,0)"  stroke-width="2.0"/>
<line x1="77.6" y1="80.0" x2="77.6" y2="53.0" stroke="rgb(0,0,0)"  stroke-width="2.0"/>
<line x1="74.6" y1="80.0" x2="51.3" y2="93.5" stroke="rgb(0,0,0)"  stroke-width="2.0"/>
<text x="174.567286" y="107.999691" fill="rgb(102,102,102)"  stroke="rgb(102,102,102)" stroke-width="1" font-size="16" >CH</text>
<text x="198.567286" y="111.679691" fill="rgb(102,102,102)"  stroke="rgb(102,102,102)" stroke-width="1" font-size="13" >3</text>
<text x="139.923465" y="48.000000" fill="rgb(102,102,102)"  stroke="rgb(102,102,102)" stroke-width="1" font-size="16" >CH</text>
<text x="163.923465" y="51.680000" fill="rgb(102,102,102)"  stroke="rgb(102,102,102)" stroke-width="1" font-size="13" >3</text>
<text x="83.283746" y="142.639513" fill="rgb(191,191,191)"  stroke="rgb(191,191,191)" stroke-width="1" font-size="16" >H</text>
<text x="68.643822" y="48.000000" fill="rgb(255,12,12)"  stroke="rgb(255,12,12)" stroke-width="1" font-size="16" >O</text>
<text x="22.000000" y="107.999691" fill="rgb(255,12,12)"  stroke="rgb(255,12,12)" stroke-width="1" font-size="16" >HO</text>
<text x="125.283540" y="142.639513" fill="rgb(12,12,255)"  stroke="rgb(12,12,255)" stroke-width="1" font-size="16" >NH</text>
<text x="149.283540" y="146.319513" fill="rgb(12,12,255)"  stroke="rgb(12,12,255)" stroke-width="1" font-size="13" >2</text>
</svg>
</g>
<text text-anchor="middle" font-size="1.200000" fill ="black" font-family="sans-serif"
x="70.000000" y="19.500000" >leucine</text>
<g transform="translate(60.000000,0.000000)">
<svg width="20.000000" height="20.000000" x="0" y="0" viewBox="0 0 253.207630 179.999787"
font-family="sans-serif" stroke="rgb(0,0,0)" stroke-width="2.000000"  stroke-linecap="round">
<line x1="178.6" y1="127.0" x2="178.6" y2="100.0" stroke="rgb(0,0,0)"  stroke-width="2.0"/>
<line x1="178.6" y1="100.0" x2="201.9" y2="86.5" stroke="rgb(0,0,0)"  stroke-width="2.0"/>
<line x1="178.6" y1="100.0" x2="143.9" y2="80.0" stroke="rgb(0,0,0)"  stroke-width="2.0"/>
<line x1="143.9" y1="80.0" x2="109.3" y2="100.0" stroke="rgb(0,0,0)"  stroke-width="2.0"/>
<polygon points="109.283852 99.999872 99.347957 125.208666 92.419805 121.208578 " stroke-width="2.000000" fill="rgb(0,0,0)"  stroke="rgb(0,0,0)" />
<line x1="109.3" y1="100.0" x2="74.6" y2="80.0" stroke="rgb(0,0,0)"  stroke-width="2.0"/>
<line x1="109.3" y1="100.0" x2="122.8" y2="123.4" stroke="rgb(0,0,0)"  stroke-width="2.0"/>
<line x1="71.6" y1="80.0" x2="71.6" y2="53.0" stroke="rgb(0,0,0)"  stroke-width="2.0"/>
<line x1="77.6" y1="80.0" x2="77.6" y2="53.0" stroke="rgb(0,0,0)"  stroke-width="2.0"/>
<line x1="74.6" y1="80.0" x2="51.3" y2="93.5" stroke="rgb(0,0,0)"  stroke-width="2.0"/>
<text x="174.567704" y="147.999787" fill="rgb(102,102,102)"  stroke="rgb(102,102,102)" stroke-width="1" font-size="16" >CH</text>
<text x="198.567704" y="151.679787" fill="rgb(102,102,102)"  stroke="rgb(102,102,102)" stroke-width="1" font-size="13" >3</text>
<text x="209.207630" y="87.999915" fill="rgb(102,102,102)"  stroke="rgb(102,102,102)" stroke-width="1" font-size="16" >CH</text>
<text x="233.207630" y="91.679915" fill="rgb(102,102,102)"  stroke="rgb(102,102,102)" stroke-width="1" font-size="13" >3</text>
<text x="83.283895" y="142.639798" fill="rgb(191,191,191)"  stroke="rgb(191,191,191)" stroke-width="1" font-size="16" >H</text>
<text x="68.643926" y="48.000000" fill="rgb(255,12,12)"  stroke="rgb(255,12,12)" stroke-width="1" font-size="16" >O</text>
<text x="22.000000" y="107.999872" fill="rgb(255,12,12)"  stroke="rgb(255,12,12)" stroke-width="1" font-size="16" >HO</text>
<text x="125.283809" y="142.639798" fill="rgb(12,12,255)"  stroke="rgb(12,12,255)" stroke-width="1" font-size="16" >NH</text>
<text x="149.283809" y="146.319798" fill="rgb(12,12,255)"  stroke="rgb(12,12,255)" stroke-width="1" font-size="13" >2</text>
</svg>
</g>
<text text-anchor="middle" font-size="1.200000" fill ="black" font-family="sans-serif"
x="90.000000" y="19.500000" >isoleucine</text>
<g transform="translate(80.000000,0.000000)">
<svg width="20.000000" height="20.000000" x="0" y="0" viewBox="0 0 240.000374 189.284256"
font-family="sans-serif" stroke="rgb(0,0,0)" stroke-width="2.000000"  stroke-linecap="round">
<line x1="187.0" y1="74.6" x2="160.0" y2="74.6" stroke="rgb(0,0,0)"  stroke-width="2.0"/>
<line x1="160.0" y1="74.6" x2="140.0" y2="109.3" stroke="rgb(0,0,0)"  stroke-width="2.0"/>
<polygon points="140.000234 109.284162 144.000234 136.084225 136.000234 136.084225 " stroke-width="2.000000" fill="rgb(0,0,0)"  stroke="rgb(0,0,0)" />
<line x1="140.0" y1="109.3" x2="163.4" y2="122.8" stroke="rgb(0,0,0)"  stroke-width="2.0"/>
<line x1="140.0" y1="109.3" x2="100.0" y2="109.3" stroke="rgb(0,0,0)"  stroke-width="2.0"/>
<polygon points="100.000140 109.284162 78.791330 126.148270 74.791242 119.220117 " stroke-width="2.000000" fill="rgb(0,0,0)"  stroke="rgb(0,0,0)" />
<line x1="100.0" y1="109.3" x2="80.0" y2="74.6" stroke="rgb(0,0,0)"  stroke-width="2.0"/>
<line x1="100.0" y1="109.3" x2="100.0" y2="136.3" stroke="rgb(0,0,0)"  stroke-width="2.0"/>
<line x1="77.4" y1="73.1" x2="90.9" y2="49.8" stroke="rgb(0,0,0)"  stroke-width="2.0"/>
<line x1="82.6" y1="76.1" x2="96.1" y2="52.8" stroke="rgb(0,0,0)"  stroke-width="2.0"/>
<line x1="80.0" y1="74.6" x2="53.0" y2="74.6" stroke="rgb(0,0,0)"  stroke-width="2.0"/>
<text x="196.000374" y="82.644081" fill="rgb(102,102,102)"  stroke="rgb(102,102,102)" stroke-width="1" font-size="16" >CH</text>
<text x="220.000374" y="86.324081" fill="rgb(102,102,102)"  stroke="rgb(102,102,102)" stroke-width="1" font-size="13" >3</text>
<text x="134.000234" y="157.284256" fill="rgb(191,191,191)"  stroke="rgb(191,191,191)" stroke-width="1" font-size="16" >H</text>
<text x="170.640315" y="137.284209" fill="rgb(102,102,102)"  stroke="rgb(102,102,102)" stroke-width="1" font-size="16" >CH</text>
<text x="194.640315" y="140.964209" fill="rgb(102,102,102)"  stroke="rgb(102,102,102)" stroke-width="1" font-size="13" >3</text>
<text x="59.360059" y="137.284209" fill="rgb(191,191,191)"  stroke="rgb(191,191,191)" stroke-width="1" font-size="16" >H</text>
<text x="94.000140" y="48.000000" fill="rgb(255,12,12)"  stroke="rgb(255,12,12)" stroke-width="1" font-size="16" >O</text>
<text x="22.000000" y="82.644081" fill="rgb(255,12,12)"  stroke="rgb(255,12,12)" stroke-width="1" font-size="16" >HO</text>
<text x="96.000140" y="157.284256" fill="rgb(12,12,255)"  stroke="rgb(12,12,255)" stroke-width="1" font-size="16" >NH</text>
<text x="120.000140" y="160.964256" fill="rgb(12,12,255)"  stroke="rgb(12,12,255)" stroke-width="1" font-size="13" >2</text>
</svg>
</g>
<text text-anchor="middle" font-size="1.200000" fill ="black" font-family="sans-serif"
x="10.000000" y="39.500000" >proline</text>
<g transform="translate(0.000000,20.000000)">
<svg width="20.000000" height="20.000000" x="0" y="0" viewBox="0 0 195.651611 210.455561"
font-family="sans-serif" stroke="rgb(0,0,0)" stroke-width="2.000000"  stroke-linecap="round">
<line x1="104.9" y1="158.6" x2="115.9" y2="133.9" stroke="rgb(0,0,0)"  stroke-width="2.0"/>
<line x1="115.6" y1="130.9" x2="142.4" y2="128.1" stroke="rgb(0,0,0)"  stroke-width="2.0"/>
<line x1="116.2" y1="136.9" x2="143.0" y2="134.1" stroke="rgb(0,0,0)"  stroke-width="2.0"/>
<line x1="115.9" y1="133.9" x2="92.4" y2="101.6" stroke="rgb(0,0,0)"  stroke-width="2.0"/>
<line x1="92.4" y1="101.6" x2="52.4" y2="101.6" stroke="rgb(0,0,0)"  stroke-width="2.0"/>
<line x1="52.4" y1="101.6" x2="40.0" y2="63.5" stroke="rgb(0,0,0)"  stroke-width="2.0"/>
<line x1="40.0" y1="63.5" x2="72.4" y2="40.0" stroke="rgb(0,0,0)"  stroke-width="2.0"/>
<line x1="72.4" y1="40.0" x2="94.2" y2="55.9" stroke="rgb(0,0,0)"  stroke-width="2.0"/>
<line x1="100.7" y1="75.9" x2="92.4" y2="101.6" stroke="rgb(0,0,0)"  stroke-width="2.0"/>
<text x="81.599799" y="178.455561" fill="rgb(255,12,12)"  stroke="rgb(255,12,12)" stroke-width="1" font-size="16" >HO</text>
<text x="149.651611" y="137.731698" fill="rgb(255,12,12)"  stroke="rgb(255,12,12)" stroke-width="1" font-size="16" >O</text>
<text x="98.719782" y="71.511921" fill="rgb(12,12,255)"  stroke="rgb(12,12,255)" stroke-width="1" font-size="16" >NH</text>
</svg>
</g>
<text text-anchor="middle" font-size="1.200000" fill ="black" font-family="sans-serif"
x="30.000000" y="39.500000" >phenylalanine</text>
<g transform="translate(20.000000,20.000000)">
<svg width="20.000000" height="20.000000" x="0" y="0" viewBox="0 0 253.205191 260.001238"
font-family="sans-serif" stroke="rgb(0,0,0)" stroke-width="2.000000"  stroke-linecap="round">
<line x1="143.9" y1="100.0" x2="109.3" y2="120.0" stroke="rgb(0,0,0)"  stroke-width="2.0"/>
<line x1="109.3" y1="120.0" x2="109.3" y2="160.0" stroke="rgb(0,0,0)"  stroke-width="2.0"/>
<polygon points="109.280476 160.000825 126.144645 181.209741 119.216492 185.209829 " stroke-width="2.000000" fill="rgb(0,0,0)"  stroke="rgb(0,0,0)" />
<line x1="109.3" y1="160.0" x2="74.6" y2="180.0" stroke="rgb(0,0,0)"  stroke-width="2.0"/>
<line x1="109.3" y1="160.0" x2="136.3" y2="160.0" stroke="rgb(0,0,0)"  stroke-width="2.0"/>
<line x1="73.1" y1="182.6" x2="49.8" y2="169.1" stroke="rgb(0,0,0)"  stroke-width="2.0"/>
<line x1="76.1" y1="177.4" x2="52.8" y2="163.9" stroke="rgb(0,0,0)"  stroke-width="2.0"/>
<line x1="74.6" y1="180.0" x2="74.6" y2="207.0" stroke="rgb(0,0,0)"  stroke-width="2.0"/>
<line x1="213.2" y1="60.0" x2="213.2" y2="100.0" stroke="rgb(0,0,0)"  stroke-width="2.0"/>
<line x1="206.0" y1="66.0" x2="206.0" y2="94.0" stroke="rgb(0,0,0)"  stroke-width="2.0"/>
<line x1="213.2" y1="100.0" x2="178.6" y2="120.0" stroke="rgb(0,0,0)"  stroke-width="2.0"/>
<line x1="178.6" y1="120.0" x2="143.9" y2="100.0" stroke="rgb(0,0,0)"  stroke-width="2.0"/>
<line x1="177.0" y1="110.8" x2="152.7" y2="96.8" stroke="rgb(0,0,0)"  stroke-width="2.0"/>
<line x1="143.9" y1="100.0" x2="143.9" y2="60.0" stroke="rgb(0,0,0)"  stroke-width="2.0"/>
<line x1="143.9" y1="60.0" x2="178.6" y2="40.0" stroke="rgb(0,0,0)"  stroke-width="2.0"/>
<line x1="152.7" y1="63.2" x2="177.0" y2="49.2" stroke="rgb(0,0,0)"  stroke-width="2.0"/>
<line x1="178.6" y1="40.0" x2="213.2" y2="60.0" stroke="rgb(0,0,0)"  stroke-width="2.0"/>
<text x="123.280614" y="202.641063" fill="rgb(191,191,191)"  stroke="rgb(191,191,191)" stroke-width="1" font-size="16" >H</text>
<text x="34.000000" y="168.000825" fill="rgb(255,12,12)"  stroke="rgb(255,12,12)" stroke-width="1" font-size="16" >O</text>
<text x="68.640238" y="228.001238" fill="rgb(255,12,12)"  stroke="rgb(255,12,12)" stroke-width="1" font-size="16" >OH</text>
<text x="145.280752" y="168.000825" fill="rgb(12,12,255)"  stroke="rgb(12,12,255)" stroke-width="1" font-size="16" >NH</text>
<text x="169.280752" y="171.680825" fill="rgb(12,12,255)"  stroke="rgb(12,12,255)" stroke-width="1" font-size="13" >2</text>
</svg>
</g>
<text text-anchor="middle" font-size="1.200000" fill ="black" font-family="sans-serif"
x="50.000000" y="39.500000" >tyrosine</text>
<g transform="translate(40.000000,20.000000)">
<svg width="20.000000" height="20.000000" x="0" y="0" viewBox="0 0 183.922898 329.281357"
font-family="sans-serif" stroke="rgb(0,0,0)" stroke-width="2.000000"  stroke-linecap="round">
<line x1="132.7" y1="233.5" x2="109.3" y2="220.0" stroke="rgb(0,0,0)"  stroke-width="2.0"/>
<polygon points="109.283266 219.998092 119.219047 194.789494 126.147200 198.789582 " stroke-width="2.000000" fill="rgb(0,0,0)"  stroke="rgb(0,0,0)" />
<line x1="109.3" y1="220.0" x2="74.6" y2="200.0" stroke="rgb(0,0,0)"  stroke-width="2.0"/>
<line x1="109.3" y1="220.0" x2="89.3" y2="254.6" stroke="rgb(0,0,0)"  stroke-width="2.0"/>
<line x1="74.6" y1="200.0" x2="74.6" y2="160.0" stroke="rgb(0,0,0)"  stroke-width="2.0"/>
<line x1="74.6" y1="80.0" x2="74.6" y2="53.0" stroke="rgb(0,0,0)"  stroke-width="2.0"/>
<line x1="89.3" y1="254.6" x2="62.3" y2="254.6" stroke="rgb(0,0,0)"  stroke-width="2.0"/>
<line x1="91.9" y1="253.1" x2="105.4" y2="276.5" stroke="rgb(0,0,0)"  stroke-width="2.0"/>
<line x1="86.7" y1="256.1" x2="100.2" y2="279.5" stroke="rgb(0,0,0)"  stroke-width="2.0"/>
<line x1="74.6" y1="160.0" x2="109.3" y2="140.0" stroke="rgb(0,0,0)"  stroke-width="2.0"/>
<line x1="76.2" y1="150.8" x2="100.5" y2="136.8" stroke="rgb(0,0,0)"  stroke-width="2.0"/>
<line x1="109.3" y1="140.0" x2="109.3" y2="100.0" stroke="rgb(0,0,0)"  stroke-width="2.0"/>
<line x1="109.3" y1="100.0" x2="74.6" y2="80.0" stroke="rgb(0,0,0)"  stroke-width="2.0"/>
<line x1="100.5" y1="103.2" x2="76.2" y2="89.2" stroke="rgb(0,0,0)"  stroke-width="2.0"/>
<line x1="74.6" y1="80.0" x2="40.0" y2="100.0" stroke="rgb(0,0,0)"  stroke-width="2.0"/>
<line x1="40.0" y1="100.0" x2="40.0" y2="140.0" stroke="rgb(0,0,0)"  stroke-width="2.0"/>
<line x1="47.2" y1="106.0" x2="47.2" y2="134.0" stroke="rgb(0,0,0)"  stroke-width="2.0"/>
<line x1="40.0" y1="140.0" x2="74.6" y2="160.0" stroke="rgb(0,0,0)"  stroke-width="2.0"/>
<text x="139.922898" y="247.997880" fill="rgb(12,12,255)"  stroke="rgb(12,12,255)" stroke-width="1" font-size="16" >NH</text>
<text x="163.922898" y="251.677880" fill="rgb(12,12,255)"  stroke="rgb(12,12,255)" stroke-width="1" font-size="13" >2</text>
<text x="123.283054" y="193.358459" fill="rgb(191,191,191)"  stroke="rgb(191,191,191)" stroke-width="1" font-size="16" >H</text>
<text x="68.639633" y="48.000000" fill="rgb(255,12,12)"  stroke="rgb(255,12,12)" stroke-width="1" font-size="16" >OH</text>
<text x="31.283902" y="262.637725" fill="rgb(255,12,12)"  stroke="rgb(255,12,12)" stroke-width="1" font-size="16" >HO</text>
<text x="103.283266" y="297.281357" fill="rgb(255,12,12)"  stroke="rgb(255,12,12)" stroke-width="1" font-size="16" >O</text>
</svg>
</g>
<text text-anchor="middle" font-size="1.200000" fill ="black" font-family="sans-serif"
x="70.000000" y="39.500000" >trptophan</text>
<g transform="translate(60.000000,20.000000)">
<svg width="20.000000" height="20.000000" x="0" y="0" viewBox="0 0 183.922898 329.281357"
font-family="sans-serif" stroke="rgb(0,0,0)" stroke-width="2.000000"  stroke-linecap="round">
<line x1="132.7" y1="233.5" x2="109.3" y2="220.0" stroke="rgb(0,0,0)"  stroke-width="2.0"/>
<polygon points="109.283266 219.998092 119.219047 194.789494 126.147200 198.789582 " stroke-width="2.000000" fill="rgb(0,0,0)"  stroke="rgb(0,0,0)" />
<line x1="109.3" y1="220.0" x2="74.6" y2="200.0" stroke="rgb(0,0,0)"  stroke-width="2.0"/>
<line x1="109.3" y1="220.0" x2="89.3" y2="254.6" stroke="rgb(0,0,0)"  stroke-width="2.0"/>
<line x1="74.6" y1="200.0" x2="74.6" y2="160.0" stroke="rgb(0,0,0)"  stroke-width="2.0"/>
<line x1="74.6" y1="80.0" x2="74.6" y2="53.0" stroke="rgb(0,0,0)"  stroke-width="2.0"/>
<line x1="89.3" y1="254.6" x2="62.3" y2="254.6" stroke="rgb(0,0,0)"  stroke-width="2.0"/>
<line x1="91.9" y1="253.1" x2="105.4" y2="276.5" stroke="rgb(0,0,0)"  stroke-width="2.0"/>
<line x1="86.7" y1="256.1" x2="100.2" y2="279.5" stroke="rgb(0,0,0)"  stroke-width="2.0"/>
<line x1="74.6" y1="160.0" x2="109.3" y2="140.0" stroke="rgb(0,0,0)"  stroke-width="2.0"/>
<line x1="76.2" y1="150.8" x2="100.5" y2="136.8" stroke="rgb(0,0,0)"  stroke-width="2.0"/>
<line x1="109.3" y1="140.0" x2="109.3" y2="100.0" stroke="rgb(0,0,0)"  stroke-width="2.0"/>
<line x1="109.3" y1="100.0" x2="74.6" y2="80.0" stroke="rgb(0,0,0)"  stroke-width="2.0"/>
<line x1="100.5" y1="103.2" x2="76.2" y2="89.2" stroke="rgb(0,0,0)"  stroke-width="2.0"/>
<line x1="74.6" y1="80.0" x2="40.0" y2="100.0" stroke="rgb(0,0,0)"  stroke-width="2.0"/>
<line x1="40.0" y1="100.0" x2="40.0" y2="140.0" stroke="rgb(0,0,0)"  stroke-width="2.0"/>
<line x1="47.2" y1="106.0" x2="47.2" y2="134.0" stroke="rgb(0,0,0)"  stroke-width="2.0"/>
<line x1="40.0" y1="140.0" x2="74.6" y2="160.0" stroke="rgb(0,0,0)"  stroke-width="2.0"/>
<text x="139.922898" y="247.997880" fill="rgb(12,12,255)"  stroke="rgb(12,12,255)" stroke-width="1" font-size="16" >NH</text>
<text x="163.922898" y="251.677880" fill="rgb(12,12,255)"  stroke="rgb(12,12,255)" stroke-width="1" font-size="13" >2</text>
<text x="123.283054" y="193.358459" fill="rgb(191,191,191)"  stroke="rgb(191,191,191)" stroke-width="1" font-size="16" >H</text>
<text x="68.639633" y="48.000000" fill="rgb(255,12,12)"  stroke="rgb(255,12,12)" stroke-width="1" font-size="16" >OH</text>
<text x="31.283902" y="262.637725" fill="rgb(255,12,12)"  stroke="rgb(255,12,12)" stroke-width="1" font-size="16" >HO</text>
<text x="103.283266" y="297.281357" fill="rgb(255,12,12)"  stroke="rgb(255,12,12)" stroke-width="1" font-size="16" >O</text>
</svg>
</g>
<text text-anchor="middle" font-size="1.200000" fill ="black" font-family="sans-serif"
x="90.000000" y="39.500000" >methionine</text>
<g transform="translate(80.000000,20.000000)">
<svg width="20.000000" height="20.000000" x="0" y="0" viewBox="0 0 253.206632 199.999052"
font-family="sans-serif" stroke="rgb(0,0,0)" stroke-width="2.000000"  stroke-linecap="round">
<line x1="201.9" y1="53.5" x2="189.8" y2="46.5" stroke="rgb(0,0,0)"  stroke-width="2.0"/>
<line x1="167.3" y1="46.5" x2="143.9" y2="60.0" stroke="rgb(0,0,0)"  stroke-width="2.0"/>
<line x1="143.9" y1="60.0" x2="143.9" y2="100.0" stroke="rgb(0,0,0)"  stroke-width="2.0"/>
<line x1="143.9" y1="100.0" x2="109.3" y2="120.0" stroke="rgb(0,0,0)"  stroke-width="2.0"/>
<line x1="109.3" y1="120.0" x2="74.6" y2="100.0" stroke="rgb(0,0,0)"  stroke-width="2.0"/>
<line x1="109.3" y1="120.0" x2="109.3" y2="147.0" stroke="rgb(0,0,0)"  stroke-width="2.0"/>
<line x1="71.6" y1="100.0" x2="71.6" y2="73.0" stroke="rgb(0,0,0)"  stroke-width="2.0"/>
<line x1="77.6" y1="100.0" x2="77.6" y2="73.0" stroke="rgb(0,0,0)"  stroke-width="2.0"/>
<line x1="74.6" y1="100.0" x2="51.3" y2="113.5" stroke="rgb(0,0,0)"  stroke-width="2.0"/>
<text x="209.206632" y="67.999842" fill="rgb(102,102,102)"  stroke="rgb(102,102,102)" stroke-width="1" font-size="16" >CH</text>
<text x="233.206632" y="71.679842" fill="rgb(102,102,102)"  stroke="rgb(102,102,102)" stroke-width="1" font-size="13" >3</text>
<text x="172.566905" y="48.000000" fill="rgb(178,178,0)"  stroke="rgb(178,178,0)" stroke-width="1" font-size="16" >S</text>
<text x="68.643726" y="67.999842" fill="rgb(255,12,12)"  stroke="rgb(255,12,12)" stroke-width="1" font-size="16" >O</text>
<text x="22.000000" y="127.999368" fill="rgb(255,12,12)"  stroke="rgb(255,12,12)" stroke-width="1" font-size="16" >HO</text>
<text x="105.283453" y="167.999052" fill="rgb(12,12,255)"  stroke="rgb(12,12,255)" stroke-width="1" font-size="16" >NH</text>
<text x="129.283453" y="171.679052" fill="rgb(12,12,255)"  stroke="rgb(12,12,255)" stroke-width="1" font-size="13" >2</text>
</svg>
</g>
<text text-anchor="middle" font-size="1.200000" fill ="black" font-family="sans-serif"
x="10.000000" y="59.500000" >cytosine</text>
<g transform="translate(0.000000,40.000000)">
<svg width="20.000000" height="20.000000" x="0" y="0" viewBox="0 0 183.923524 199.999451"
font-family="sans-serif" stroke="rgb(0,0,0)" stroke-width="2.000000"  stroke-linecap="round">
<line x1="76.1" y1="142.6" x2="52.8" y2="156.1" stroke="rgb(0,0,0)"  stroke-width="2.0"/>
<line x1="73.1" y1="137.4" x2="49.8" y2="150.9" stroke="rgb(0,0,0)"  stroke-width="2.0"/>
<line x1="63.4" y1="93.5" x2="51.3" y2="86.5" stroke="rgb(0,0,0)"  stroke-width="2.0"/>
<line x1="109.3" y1="80.0" x2="109.3" y2="53.0" stroke="rgb(0,0,0)"  stroke-width="2.0"/>
<line x1="143.9" y1="100.0" x2="143.9" y2="140.0" stroke="rgb(0,0,0)"  stroke-width="2.0"/>
<line x1="143.9" y1="140.0" x2="120.7" y2="153.4" stroke="rgb(0,0,0)"  stroke-width="2.0"/>
<line x1="135.1" y1="136.8" x2="118.8" y2="146.2" stroke="rgb(0,0,0)"  stroke-width="2.0"/>
<line x1="98.0" y1="153.5" x2="74.6" y2="140.0" stroke="rgb(0,0,0)"  stroke-width="2.0"/>
<line x1="74.6" y1="140.0" x2="74.6" y2="113.0" stroke="rgb(0,0,0)"  stroke-width="2.0"/>
<line x1="85.9" y1="93.5" x2="109.3" y2="80.0" stroke="rgb(0,0,0)"  stroke-width="2.0"/>
<line x1="109.3" y1="80.0" x2="143.9" y2="100.0" stroke="rgb(0,0,0)"  stroke-width="2.0"/>
<line x1="110.9" y1="89.2" x2="135.1" y2="103.2" stroke="rgb(0,0,0)"  stroke-width="2.0"/>
<text x="103.283683" y="167.999451" fill="rgb(12,12,255)"  stroke="rgb(12,12,255)" stroke-width="1" font-size="16" >N</text>
<text x="34.000000" y="167.999451" fill="rgb(255,12,12)"  stroke="rgb(255,12,12)" stroke-width="1" font-size="16" >O</text>
<text x="68.643841" y="107.999725" fill="rgb(12,12,255)"  stroke="rgb(12,12,255)" stroke-width="1" font-size="16" >N</text>
<text x="34.000000" y="87.999817" fill="rgb(191,191,191)"  stroke="rgb(191,191,191)" stroke-width="1" font-size="16" >H</text>
<text x="105.283683" y="48.000000" fill="rgb(12,12,255)"  stroke="rgb(12,12,255)" stroke-width="1" font-size="16" >NH</text>
<text x="129.283683" y="51.680000" fill="rgb(12,12,255)"  stroke="rgb(12,12,255)" stroke-width="1" font-size="13" >2</text>
</svg>
</g>
<text text-anchor="middle" font-size="1.200000" fill ="black" font-family="sans-serif"
x="30.000000" y="59.500000" >serine</text>
<g transform="translate(20.000000,40.000000)">
<svg width="20.000000" height="20.000000" x="0" y="0" viewBox="0 0 200.001509 189.281374"
font-family="sans-serif" stroke="rgb(0,0,0)" stroke-width="2.000000"  stroke-linecap="round">
<line x1="140.0" y1="109.3" x2="100.0" y2="109.3" stroke="rgb(0,0,0)"  stroke-width="2.0"/>
<line x1="140.0" y1="109.3" x2="153.5" y2="85.9" stroke="rgb(0,0,0)"  stroke-width="2.0"/>
<polygon points="100.000754 109.280871 78.791707 126.145116 74.791619 119.216963 " stroke-width="2.000000" fill="rgb(0,0,0)"  stroke="rgb(0,0,0)" />
<line x1="100.0" y1="109.3" x2="80.0" y2="74.6" stroke="rgb(0,0,0)"  stroke-width="2.0"/>
<line x1="100.0" y1="109.3" x2="100.0" y2="136.3" stroke="rgb(0,0,0)"  stroke-width="2.0"/>
<line x1="77.4" y1="73.1" x2="90.9" y2="49.8" stroke="rgb(0,0,0)"  stroke-width="2.0"/>
<line x1="82.6" y1="76.1" x2="96.1" y2="52.8" stroke="rgb(0,0,0)"  stroke-width="2.0"/>
<line x1="80.0" y1="74.6" x2="53.0" y2="74.6" stroke="rgb(0,0,0)"  stroke-width="2.0"/>
<text x="59.360319" y="137.281122" fill="rgb(191,191,191)"  stroke="rgb(191,191,191)" stroke-width="1" font-size="16" >H</text>
<text x="94.000754" y="48.000000" fill="rgb(255,12,12)"  stroke="rgb(255,12,12)" stroke-width="1" font-size="16" >O</text>
<text x="22.000000" y="82.640435" fill="rgb(255,12,12)"  stroke="rgb(255,12,12)" stroke-width="1" font-size="16" >HO</text>
<text x="96.000754" y="157.281374" fill="rgb(12,12,255)"  stroke="rgb(12,12,255)" stroke-width="1" font-size="16" >NH</text>
<text x="120.000754" y="160.961374" fill="rgb(12,12,255)"  stroke="rgb(12,12,255)" stroke-width="1" font-size="13" >2</text>
<text x="154.001509" y="82.640435" fill="rgb(255,12,12)"  stroke="rgb(255,12,12)" stroke-width="1" font-size="16" >OH</text>
</svg>
</g>
<text text-anchor="middle" font-size="1.200000" fill ="black" font-family="sans-serif"
x="50.000000" y="59.500000" >threonine</text>
<g transform="translate(40.000000,40.000000)">
<svg width="20.000000" height="20.000000" x="0" y="0" viewBox="0 0 223.924726 174.640477"
font-family="sans-serif" stroke="rgb(0,0,0)" stroke-width="2.000000"  stroke-linecap="round">
<line x1="80.0" y1="121.6" x2="80.0" y2="94.6" stroke="rgb(0,0,0)"  stroke-width="2.0"/>
<line x1="76.6" y1="90.4" x2="78.0" y2="89.6" stroke="rgb(0,0,0)"  stroke-width="2.0"/>
<line x1="73.9" y1="87.0" x2="76.4" y2="85.6" stroke="rgb(0,0,0)"  stroke-width="2.0"/>
<line x1="71.2" y1="83.6" x2="74.8" y2="81.5" stroke="rgb(0,0,0)"  stroke-width="2.0"/>
<line x1="68.5" y1="80.2" x2="73.2" y2="77.5" stroke="rgb(0,0,0)"  stroke-width="2.0"/>
<line x1="65.8" y1="76.8" x2="71.7" y2="73.5" stroke="rgb(0,0,0)"  stroke-width="2.0"/>
<line x1="63.1" y1="73.4" x2="70.1" y2="69.4" stroke="rgb(0,0,0)"  stroke-width="2.0"/>
<line x1="80.0" y1="94.6" x2="114.6" y2="74.6" stroke="rgb(0,0,0)"  stroke-width="2.0"/>
<line x1="80.0" y1="94.6" x2="53.0" y2="94.6" stroke="rgb(0,0,0)"  stroke-width="2.0"/>
<polygon points="114.640377 74.640175 124.576368 49.431214 131.504520 53.431302 " stroke-width="2.000000" fill="rgb(0,0,0)"  stroke="rgb(0,0,0)" />
<line x1="114.6" y1="74.6" x2="149.3" y2="94.6" stroke="rgb(0,0,0)"  stroke-width="2.0"/>
<line x1="114.6" y1="74.6" x2="101.1" y2="51.3" stroke="rgb(0,0,0)"  stroke-width="2.0"/>
<line x1="152.3" y1="94.6" x2="152.3" y2="121.6" stroke="rgb(0,0,0)"  stroke-width="2.0"/>
<line x1="146.3" y1="94.6" x2="146.3" y2="121.6" stroke="rgb(0,0,0)"  stroke-width="2.0"/>
<line x1="149.3" y1="94.6" x2="172.7" y2="81.1" stroke="rgb(0,0,0)"  stroke-width="2.0"/>
<text x="76.000202" y="142.640477" fill="rgb(102,102,102)"  stroke="rgb(102,102,102)" stroke-width="1" font-size="16" >CH</text>
<text x="100.000202" y="146.320477" fill="rgb(102,102,102)"  stroke="rgb(102,102,102)" stroke-width="1" font-size="13" >3</text>
<text x="54.000101" y="68.000101" fill="rgb(191,191,191)"  stroke="rgb(191,191,191)" stroke-width="1" font-size="16" >H</text>
<text x="128.640477" y="48.000000" fill="rgb(191,191,191)"  stroke="rgb(191,191,191)" stroke-width="1" font-size="16" >H</text>
<text x="143.284551" y="142.640477" fill="rgb(255,12,12)"  stroke="rgb(255,12,12)" stroke-width="1" font-size="16" >O</text>
<text x="177.924726" y="82.640175" fill="rgb(255,12,12)"  stroke="rgb(255,12,12)" stroke-width="1" font-size="16" >OH</text>
<text x="68.640276" y="48.000000" fill="rgb(12,12,255)"  stroke="rgb(12,12,255)" stroke-width="1" font-size="16" >H</text>
<text x="80.640276" y="51.680000" fill="rgb(12,12,255)"  stroke="rgb(12,12,255)" stroke-width="1" font-size="13" >2</text>
<text x="87.140276" y="48.000000" fill="rgb(12,12,255)"  stroke="rgb(12,12,255)" stroke-width="1" font-size="16" >N</text>
<text x="22.000000" y="102.640276" fill="rgb(255,12,12)"  stroke="rgb(255,12,12)" stroke-width="1" font-size="16" >HO</text>
</svg>
</g>
<text text-anchor="middle" font-size="1.200000" fill ="black" font-family="sans-serif"
x="70.000000" y="59.500000" >aspartate</text>
<g transform="translate(60.000000,40.000000)">
<svg width="20.000000" height="20.000000" x="0" y="0" viewBox="0 0 218.562905 199.999052"
font-family="sans-serif" stroke="rgb(0,0,0)" stroke-width="2.000000"  stroke-linecap="round">
<line x1="119.0" y1="150.9" x2="142.4" y2="137.4" stroke="rgb(0,0,0)"  stroke-width="2.0"/>
<line x1="122.0" y1="156.1" x2="145.4" y2="142.6" stroke="rgb(0,0,0)"  stroke-width="2.0"/>
<line x1="143.9" y1="140.0" x2="167.3" y2="153.5" stroke="rgb(0,0,0)"  stroke-width="2.0"/>
<line x1="143.9" y1="140.0" x2="143.9" y2="100.0" stroke="rgb(0,0,0)"  stroke-width="2.0"/>
<line x1="143.9" y1="100.0" x2="109.3" y2="80.0" stroke="rgb(0,0,0)"  stroke-width="2.0"/>
<line x1="109.3" y1="80.0" x2="109.3" y2="53.0" stroke="rgb(0,0,0)"  stroke-width="2.0"/>
<line x1="109.3" y1="80.0" x2="74.6" y2="100.0" stroke="rgb(0,0,0)"  stroke-width="2.0"/>
<line x1="73.1" y1="102.6" x2="49.8" y2="89.1" stroke="rgb(0,0,0)"  stroke-width="2.0"/>
<line x1="76.1" y1="97.4" x2="52.8" y2="83.9" stroke="rgb(0,0,0)"  stroke-width="2.0"/>
<line x1="74.6" y1="100.0" x2="74.6" y2="127.0" stroke="rgb(0,0,0)"  stroke-width="2.0"/>
<text x="103.279453" y="167.999052" fill="rgb(255,12,12)"  stroke="rgb(255,12,12)" stroke-width="1" font-size="16" >O</text>
<text x="172.562905" y="167.999052" fill="rgb(255,12,12)"  stroke="rgb(255,12,12)" stroke-width="1" font-size="16" >OH</text>
<text x="105.279453" y="48.000000" fill="rgb(12,12,255)"  stroke="rgb(12,12,255)" stroke-width="1" font-size="16" >NH</text>
<text x="129.279453" y="51.680000" fill="rgb(12,12,255)"  stroke="rgb(12,12,255)" stroke-width="1" font-size="13" >2</text>
<text x="34.000000" y="87.999684" fill="rgb(255,12,12)"  stroke="rgb(255,12,12)" stroke-width="1" font-size="16" >O</text>
<text x="68.639726" y="147.999210" fill="rgb(255,12,12)"  stroke="rgb(255,12,12)" stroke-width="1" font-size="16" >OH</text>
</svg>
</g>
<text text-anchor="middle" font-size="1.200000" fill ="black" font-family="sans-serif"
x="90.000000" y="59.500000" >glutamic acid</text>
<g transform="translate(80.000000,40.000000)">
<svg width="20.000000" height="20.000000" x="0" y="0" viewBox="0 0 253.205540 199.998296"
font-family="sans-serif" stroke="rgb(0,0,0)" stroke-width="2.000000"  stroke-linecap="round">
<line x1="109.3" y1="120.0" x2="74.6" y2="100.0" stroke="rgb(0,0,0)"  stroke-width="2.0"/>
<line x1="109.3" y1="120.0" x2="143.9" y2="100.0" stroke="rgb(0,0,0)"  stroke-width="2.0"/>
<line x1="74.6" y1="100.0" x2="74.6" y2="60.0" stroke="rgb(0,0,0)"  stroke-width="2.0"/>
<line x1="73.1" y1="57.4" x2="96.5" y2="43.9" stroke="rgb(0,0,0)"  stroke-width="2.0"/>
<line x1="76.1" y1="62.6" x2="99.5" y2="49.1" stroke="rgb(0,0,0)"  stroke-width="2.0"/>
<line x1="74.6" y1="60.0" x2="51.3" y2="46.5" stroke="rgb(0,0,0)"  stroke-width="2.0"/>
<line x1="143.9" y1="100.0" x2="178.6" y2="120.0" stroke="rgb(0,0,0)"  stroke-width="2.0"/>
<line x1="143.9" y1="100.0" x2="143.9" y2="73.0" stroke="rgb(0,0,0)"  stroke-width="2.0"/>
<line x1="181.6" y1="120.0" x2="181.6" y2="147.0" stroke="rgb(0,0,0)"  stroke-width="2.0"/>
<line x1="175.6" y1="120.0" x2="175.6" y2="147.0" stroke="rgb(0,0,0)"  stroke-width="2.0"/>
<line x1="178.6" y1="120.0" x2="201.9" y2="106.5" stroke="rgb(0,0,0)"  stroke-width="2.0"/>
<text x="103.283016" y="48.000000" fill="rgb(255,12,12)"  stroke="rgb(255,12,12)" stroke-width="1" font-size="16" >O</text>
<text x="22.000000" y="48.000000" fill="rgb(255,12,12)"  stroke="rgb(255,12,12)" stroke-width="1" font-size="16" >HO</text>
<text x="172.562032" y="167.998296" fill="rgb(255,12,12)"  stroke="rgb(255,12,12)" stroke-width="1" font-size="16" >O</text>
<text x="207.205540" y="107.999148" fill="rgb(255,12,12)"  stroke="rgb(255,12,12)" stroke-width="1" font-size="16" >OH</text>
<text x="139.922524" y="67.999716" fill="rgb(12,12,255)"  stroke="rgb(12,12,255)" stroke-width="1" font-size="16" >NH</text>
<text x="163.922524" y="71.679716" fill="rgb(12,12,255)"  stroke="rgb(12,12,255)" stroke-width="1" font-size="13" >2</text>
</svg>
</g>
<text text-anchor="middle" font-size="1.200000" fill ="black" font-family="sans-serif"
x="10.000000" y="79.500000" >histadine</text>
<g transform="translate(0.000000,60.000000)">
<svg width="20.000000" height="20.000000" x="0" y="0" viewBox="0 0 258.847289 221.015440"
font-family="sans-serif" stroke="rgb(0,0,0)" stroke-width="2.000000"  stroke-linecap="round">
<line x1="67.0" y1="52.1" x2="72.7" y2="78.5" stroke="rgb(0,0,0)"  stroke-width="2.0"/>
<line x1="61.2" y1="53.3" x2="66.8" y2="79.8" stroke="rgb(0,0,0)"  stroke-width="2.0"/>
<line x1="69.7" y1="79.1" x2="49.7" y2="97.2" stroke="rgb(0,0,0)"  stroke-width="2.0"/>
<line x1="69.7" y1="79.1" x2="107.8" y2="91.5" stroke="rgb(0,0,0)"  stroke-width="2.0"/>
<line x1="112.8" y1="89.6" x2="113.2" y2="91.2" stroke="rgb(0,0,0)"  stroke-width="2.0"/>
<line x1="116.9" y1="88.1" x2="117.5" y2="90.9" stroke="rgb(0,0,0)"  stroke-width="2.0"/>
<line x1="121.0" y1="86.6" x2="121.8" y2="90.6" stroke="rgb(0,0,0)"  stroke-width="2.0"/>
<line x1="125.0" y1="85.0" x2="126.2" y2="90.4" stroke="rgb(0,0,0)"  stroke-width="2.0"/>
<line x1="129.1" y1="83.5" x2="130.5" y2="90.1" stroke="rgb(0,0,0)"  stroke-width="2.0"/>
<line x1="133.2" y1="82.0" x2="134.8" y2="89.8" stroke="rgb(0,0,0)"  stroke-width="2.0"/>
<line x1="107.8" y1="91.5" x2="116.1" y2="65.8" stroke="rgb(0,0,0)"  stroke-width="2.0"/>
<line x1="107.8" y1="91.5" x2="116.1" y2="130.6" stroke="rgb(0,0,0)"  stroke-width="2.0"/>
<line x1="116.1" y1="130.6" x2="154.1" y2="143.0" stroke="rgb(0,0,0)"  stroke-width="2.0"/>
<line x1="154.1" y1="143.0" x2="186.5" y2="119.5" stroke="rgb(0,0,0)"  stroke-width="2.0"/>
<line x1="163.2" y1="145.3" x2="185.9" y2="128.8" stroke="rgb(0,0,0)"  stroke-width="2.0"/>
<line x1="186.5" y1="119.5" x2="208.3" y2="135.3" stroke="rgb(0,0,0)"  stroke-width="2.0"/>
<line x1="214.8" y1="155.3" x2="206.5" y2="181.0" stroke="rgb(0,0,0)"  stroke-width="2.0"/>
<line x1="206.5" y1="181.0" x2="179.7" y2="181.0" stroke="rgb(0,0,0)"  stroke-width="2.0"/>
<line x1="200.5" y1="173.8" x2="181.7" y2="173.8" stroke="rgb(0,0,0)"  stroke-width="2.0"/>
<line x1="162.5" y1="168.7" x2="154.1" y2="143.0" stroke="rgb(0,0,0)"  stroke-width="2.0"/>
<text x="55.407915" y="48.000000" fill="rgb(255,12,12)"  stroke="rgb(255,12,12)" stroke-width="1" font-size="16" >O</text>
<text x="22.000000" y="113.891738" fill="rgb(255,12,12)"  stroke="rgb(255,12,12)" stroke-width="1" font-size="16" >HO</text>
<text x="140.895575" y="91.171828" fill="rgb(191,191,191)"  stroke="rgb(191,191,191)" stroke-width="1" font-size="16" >H</text>
<text x="116.127682" y="61.443947" fill="rgb(12,12,255)"  stroke="rgb(12,12,255)" stroke-width="1" font-size="16" >NH</text>
<text x="140.127682" y="65.123947" fill="rgb(12,12,255)"  stroke="rgb(12,12,255)" stroke-width="1" font-size="13" >2</text>
<text x="212.847289" y="150.971591" fill="rgb(12,12,255)"  stroke="rgb(12,12,255)" stroke-width="1" font-size="16" >NH</text>
<text x="160.487497" y="189.015440" fill="rgb(12,12,255)"  stroke="rgb(12,12,255)" stroke-width="1" font-size="16" >N</text>
</svg>
</g>
<text text-anchor="middle" font-size="1.200000" fill ="black" font-family="sans-serif"
x="30.000000" y="79.500000" >lysine</text>
<g transform="translate(20.000000,60.000000)">
<svg width="20.000000" height="20.000000" x="0" y="0" viewBox="0 0 287.847048 199.999451"
font-family="sans-serif" stroke="rgb(0,0,0)" stroke-width="2.000000"  stroke-linecap="round">
<line x1="143.9" y1="140.0" x2="109.3" y2="160.0" stroke="rgb(0,0,0)"  stroke-width="2.0"/>
<line x1="143.9" y1="140.0" x2="143.9" y2="100.0" stroke="rgb(0,0,0)"  stroke-width="2.0"/>
<line x1="109.3" y1="160.0" x2="74.6" y2="140.0" stroke="rgb(0,0,0)"  stroke-width="2.0"/>
<line x1="74.6" y1="140.0" x2="51.3" y2="153.5" stroke="rgb(0,0,0)"  stroke-width="2.0"/>
<line x1="143.9" y1="100.0" x2="178.6" y2="80.0" stroke="rgb(0,0,0)"  stroke-width="2.0"/>
<line x1="178.6" y1="80.0" x2="213.2" y2="100.0" stroke="rgb(0,0,0)"  stroke-width="2.0"/>
<line x1="178.6" y1="80.0" x2="178.6" y2="53.0" stroke="rgb(0,0,0)"  stroke-width="2.0"/>
<line x1="216.2" y1="100.0" x2="216.2" y2="127.0" stroke="rgb(0,0,0)"  stroke-width="2.0"/>
<line x1="210.2" y1="100.0" x2="210.2" y2="127.0" stroke="rgb(0,0,0)"  stroke-width="2.0"/>
<line x1="213.2" y1="100.0" x2="236.6" y2="86.5" stroke="rgb(0,0,0)"  stroke-width="2.0"/>
<text x="14.000000" y="167.999451" fill="rgb(12,12,255)"  stroke="rgb(12,12,255)" stroke-width="1" font-size="16" >H</text>
<text x="26.000000" y="171.679451" fill="rgb(12,12,255)"  stroke="rgb(12,12,255)" stroke-width="1" font-size="13" >2</text>
<text x="32.500000" y="167.999451" fill="rgb(12,12,255)"  stroke="rgb(12,12,255)" stroke-width="1" font-size="16" >N</text>
<text x="207.203207" y="147.999542" fill="rgb(255,12,12)"  stroke="rgb(255,12,12)" stroke-width="1" font-size="16" >O</text>
<text x="241.847048" y="87.999817" fill="rgb(255,12,12)"  stroke="rgb(255,12,12)" stroke-width="1" font-size="16" >OH</text>
<text x="174.563366" y="48.000000" fill="rgb(12,12,255)"  stroke="rgb(12,12,255)" stroke-width="1" font-size="16" >NH</text>
<text x="198.563366" y="51.680000" fill="rgb(12,12,255)"  stroke="rgb(12,12,255)" stroke-width="1" font-size="13" >2</text>
</svg>
</g>
<text text-anchor="middle" font-size="1.200000" fill ="black" font-family="sans-serif"
x="50.000000" y="79.500000" >arganine</text>
<g transform="translate(40.000000,60.000000)">
<svg width="20.000000" height="20.000000" x="0" y="0" viewBox="0 0 287.847769 259.999800"
font-family="sans-serif" stroke="rgb(0,0,0)" stroke-width="2.000000"  stroke-linecap="round">
<line x1="236.6" y1="46.5" x2="213.2" y2="60.0" stroke="rgb(0,0,0)"  stroke-width="2.0"/>
<line x1="213.2" y1="60.0" x2="178.6" y2="40.0" stroke="rgb(0,0,0)"  stroke-width="2.0"/>
<line x1="213.2" y1="60.0" x2="213.2" y2="100.0" stroke="rgb(0,0,0)"  stroke-width="2.0"/>
<line x1="178.6" y1="40.0" x2="143.9" y2="60.0" stroke="rgb(0,0,0)"  stroke-width="2.0"/>
<line x1="143.9" y1="60.0" x2="143.9" y2="100.0" stroke="rgb(0,0,0)"  stroke-width="2.0"/>
<line x1="143.9" y1="100.0" x2="120.5" y2="113.5" stroke="rgb(0,0,0)"  stroke-width="2.0"/>
<line x1="98.0" y1="113.5" x2="85.9" y2="106.5" stroke="rgb(0,0,0)"  stroke-width="2.0"/>
<line x1="109.3" y1="133.0" x2="109.3" y2="160.0" stroke="rgb(0,0,0)"  stroke-width="2.0"/>
<line x1="109.3" y1="160.0" x2="85.9" y2="173.5" stroke="rgb(0,0,0)"  stroke-width="2.0"/>
<line x1="109.3" y1="160.0" x2="132.7" y2="173.5" stroke="rgb(0,0,0)"  stroke-width="2.0"/>
<line x1="63.4" y1="173.5" x2="51.3" y2="166.5" stroke="rgb(0,0,0)"  stroke-width="2.0"/>
<line x1="143.9" y1="193.0" x2="143.9" y2="207.0" stroke="rgb(0,0,0)"  stroke-width="2.0"/>
<line x1="155.2" y1="173.5" x2="167.3" y2="166.5" stroke="rgb(0,0,0)"  stroke-width="2.0"/>
<line x1="213.2" y1="100.0" x2="189.8" y2="113.5" stroke="rgb(0,0,0)"  stroke-width="2.0"/>
<line x1="213.2" y1="100.0" x2="236.6" y2="113.5" stroke="rgb(0,0,0)"  stroke-width="2.0"/>
<line x1="247.8" y1="133.0" x2="247.8" y2="147.0" stroke="rgb(0,0,0)"  stroke-width="2.0"/>
<text x="243.847769" y="48.000000" fill="rgb(12,12,255)"  stroke="rgb(12,12,255)" stroke-width="1" font-size="16" >NH</text>
<text x="267.847769" y="51.680000" fill="rgb(12,12,255)"  stroke="rgb(12,12,255)" stroke-width="1" font-size="13" >2</text>
<text x="103.283923" y="127.999911" fill="rgb(12,12,255)"  stroke="rgb(12,12,255)" stroke-width="1" font-size="16" >N</text>
<text x="68.643961" y="107.999933" fill="rgb(191,191,191)"  stroke="rgb(191,191,191)" stroke-width="1" font-size="16" >H</text>
<text x="79.443961" y="175.967844" fill="rgb(12,12,255)"  stroke="rgb(12,12,255)" stroke-width="1" font-size="16" ></text>
<text x="79.443961" y="175.967844" fill="rgb(12,12,255)"  stroke="rgb(12,12,255)" stroke-width="1" font-size="32" >.</text>
<text x="68.643961" y="187.999844" fill="rgb(12,12,255)"  stroke="rgb(12,12,255)" stroke-width="1" font-size="16" >N</text>
<text x="34.000000" y="167.999866" fill="rgb(191,191,191)"  stroke="rgb(191,191,191)" stroke-width="1" font-size="16" >H</text>
<text x="137.923884" y="187.999844" fill="rgb(12,12,255)"  stroke="rgb(12,12,255)" stroke-width="1" font-size="16" >N</text>
<text x="137.923884" y="227.999800" fill="rgb(191,191,191)"  stroke="rgb(191,191,191)" stroke-width="1" font-size="16" >H</text>
<text x="172.563846" y="167.999866" fill="rgb(191,191,191)"  stroke="rgb(191,191,191)" stroke-width="1" font-size="16" >H</text>
<text x="183.363846" y="115.967911" fill="rgb(255,12,12)"  stroke="rgb(255,12,12)" stroke-width="1" font-size="16" ></text>
<text x="183.363846" y="115.967911" fill="rgb(255,12,12)"  stroke="rgb(255,12,12)" stroke-width="1" font-size="32" >.</text>
<text x="172.563846" y="127.999911" fill="rgb(255,12,12)"  stroke="rgb(255,12,12)" stroke-width="1" font-size="16" >O</text>
<text x="241.847769" y="127.999911" fill="rgb(255,12,12)"  stroke="rgb(255,12,12)" stroke-width="1" font-size="16" >O</text>
<text x="241.847769" y="167.999866" fill="rgb(191,191,191)"  stroke="rgb(191,191,191)" stroke-width="1" font-size="16" >H</text>
</svg>
</g>
<text text-anchor="middle" font-size="1.200000" fill ="black" font-family="sans-serif"
x="70.000000" y="79.500000" >asparagine</text>
<g transform="translate(60.000000,60.000000)">
<svg width="20.000000" height="20.000000" x="0" y="0" viewBox="0 0 253.205297 180.000749"
font-family="sans-serif" stroke="rgb(0,0,0)" stroke-width="2.000000"  stroke-linecap="round">
<line x1="175.6" y1="127.0" x2="175.6" y2="100.0" stroke="rgb(0,0,0)"  stroke-width="2.0"/>
<line x1="181.6" y1="127.0" x2="181.6" y2="100.0" stroke="rgb(0,0,0)"  stroke-width="2.0"/>
<line x1="178.6" y1="100.0" x2="201.9" y2="86.5" stroke="rgb(0,0,0)"  stroke-width="2.0"/>
<line x1="178.6" y1="100.0" x2="143.9" y2="80.0" stroke="rgb(0,0,0)"  stroke-width="2.0"/>
<line x1="143.9" y1="80.0" x2="109.3" y2="100.0" stroke="rgb(0,0,0)"  stroke-width="2.0"/>
<polygon points="109.284519 100.000449 99.348495 125.209467 92.420342 121.209379 " stroke-width="2.000000" fill="rgb(0,0,0)"  stroke="rgb(0,0,0)" />
<line x1="109.3" y1="100.0" x2="122.8" y2="123.4" stroke="rgb(0,0,0)"  stroke-width="2.0"/>
<line x1="109.3" y1="100.0" x2="74.6" y2="80.0" stroke="rgb(0,0,0)"  stroke-width="2.0"/>
<line x1="71.6" y1="80.0" x2="71.6" y2="53.0" stroke="rgb(0,0,0)"  stroke-width="2.0"/>
<line x1="77.6" y1="80.0" x2="77.6" y2="53.0" stroke="rgb(0,0,0)"  stroke-width="2.0"/>
<line x1="74.6" y1="80.0" x2="51.3" y2="93.5" stroke="rgb(0,0,0)"  stroke-width="2.0"/>
<text x="172.565038" y="148.000749" fill="rgb(255,12,12)"  stroke="rgb(255,12,12)" stroke-width="1" font-size="16" >O</text>
<text x="209.205297" y="88.000300" fill="rgb(12,12,255)"  stroke="rgb(12,12,255)" stroke-width="1" font-size="16" >NH</text>
<text x="233.205297" y="91.680300" fill="rgb(12,12,255)"  stroke="rgb(12,12,255)" stroke-width="1" font-size="13" >2</text>
<text x="83.284369" y="142.640709" fill="rgb(191,191,191)"  stroke="rgb(191,191,191)" stroke-width="1" font-size="16" >H</text>
<text x="125.284669" y="142.640709" fill="rgb(12,12,255)"  stroke="rgb(12,12,255)" stroke-width="1" font-size="16" >NH</text>
<text x="149.284669" y="146.320709" fill="rgb(12,12,255)"  stroke="rgb(12,12,255)" stroke-width="1" font-size="13" >2</text>
<text x="68.640259" y="48.000000" fill="rgb(255,12,12)"  stroke="rgb(255,12,12)" stroke-width="1" font-size="16" >O</text>
<text x="22.000000" y="108.000449" fill="rgb(255,12,12)"  stroke="rgb(255,12,12)" stroke-width="1" font-size="16" >HO</text>
</svg>
</g>
<text text-anchor="middle" font-size="1.200000" fill ="black" font-family="sans-serif"
x="90.000000" y="79.500000" >glutamine</text>
<g transform="translate(80.000000,60.000000)">
<svg width="20.000000" height="20.000000" x="0" y="0" viewBox="0 0 287.845048 180.000504"
font-family="sans-serif" stroke="rgb(0,0,0)" stroke-width="2.000000"  stroke-linecap="round">
<line x1="210.2" y1="127.0" x2="210.2" y2="100.0" stroke="rgb(0,0,0)"  stroke-width="2.0"/>
<line x1="216.2" y1="127.0" x2="216.2" y2="100.0" stroke="rgb(0,0,0)"  stroke-width="2.0"/>
<line x1="213.2" y1="100.0" x2="236.6" y2="86.5" stroke="rgb(0,0,0)"  stroke-width="2.0"/>
<line x1="213.2" y1="100.0" x2="178.6" y2="80.0" stroke="rgb(0,0,0)"  stroke-width="2.0"/>
<line x1="178.6" y1="80.0" x2="143.9" y2="100.0" stroke="rgb(0,0,0)"  stroke-width="2.0"/>
<line x1="143.9" y1="100.0" x2="109.3" y2="80.0" stroke="rgb(0,0,0)"  stroke-width="2.0"/>
<line x1="109.3" y1="80.0" x2="109.3" y2="53.0" stroke="rgb(0,0,0)"  stroke-width="2.0"/>
<line x1="109.3" y1="80.0" x2="74.6" y2="100.0" stroke="rgb(0,0,0)"  stroke-width="2.0"/>
<line x1="73.1" y1="102.6" x2="49.8" y2="89.1" stroke="rgb(0,0,0)"  stroke-width="2.0"/>
<line x1="76.1" y1="97.4" x2="52.8" y2="83.9" stroke="rgb(0,0,0)"  stroke-width="2.0"/>
<line x1="74.6" y1="100.0" x2="74.6" y2="127.0" stroke="rgb(0,0,0)"  stroke-width="2.0"/>
<text x="207.204874" y="148.000504" fill="rgb(255,12,12)"  stroke="rgb(255,12,12)" stroke-width="1" font-size="16" >O</text>
<text x="243.845048" y="88.000202" fill="rgb(12,12,255)"  stroke="rgb(12,12,255)" stroke-width="1" font-size="16" >NH</text>
<text x="267.845048" y="91.680202" fill="rgb(12,12,255)"  stroke="rgb(12,12,255)" stroke-width="1" font-size="13" >2</text>
<text x="105.280349" y="48.000000" fill="rgb(12,12,255)"  stroke="rgb(12,12,255)" stroke-width="1" font-size="16" >NH</text>
<text x="129.280349" y="51.680000" fill="rgb(12,12,255)"  stroke="rgb(12,12,255)" stroke-width="1" font-size="13" >2</text>
<text x="34.000000" y="88.000202" fill="rgb(255,12,12)"  stroke="rgb(255,12,12)" stroke-width="1" font-size="16" >O</text>
<text x="68.640175" y="148.000504" fill="rgb(255,12,12)"  stroke="rgb(255,12,12)" stroke-width="1" font-size="16" >OH</text>
</svg>
</g>
<script type="text/ecmascript">
  <![CDATA[
    var svgEl = document.getElementById("topsvg");
    svgEl.addEventListener('DOMMouseScroll', wheel, false);
    svgEl.addEventListener('mousewheel', wheel, false);
    var startx=0;
    var starty=0;
    function wheel(evt){
      evt = evt ? evt : window.event;
      var normal = evt.detail ? evt.detail * -1 : evt.wheelDelta / 40;
      var vb = new Array(4);
      var vbtext = svgEl.getAttributeNS(null,"viewBox");
      vb = vbtext.split(" ");
      var zoom = (normal<0)? 1.41 : 0.71;
      //var dwidth = parseFloat(Math.max(vb[2],vb[3])) * (1-zoom);
      vb[0] = parseFloat(vb[0]) + parseFloat(vb[2])*(1-zoom) * evt.clientX/innerWidth;
      vb[1] = parseFloat(vb[1]) + parseFloat(vb[3])*(1-zoom) * evt.clientY/innerHeight;
      vb[2] = parseFloat(vb[2]) * zoom;
      vb[3] = parseFloat(vb[3]) * zoom;
      svgEl.setAttributeNS(null, "viewBox", vb.join(" "));
      if (evt.preventDefault)
        evt.preventDefault(); // Don't scroll the page when zooming
    }
   svgEl.onmousedown = function(evt) {
      startx = evt.clientX;
      starty = evt.clientY;
    }
    svgEl.onmousemove=function(evt) {
      if(startx!=0 && starty!=0 
        && ((evt.clientX - startx)*(evt.clientX - startx)+(evt.clientY - starty)*(evt.clientY - starty)>100))
      {
        var vbtext = svgEl.getAttributeNS(null,"viewBox");
        vb = vbtext.split(" ");
        var maxwh = Math.max(parseFloat(vb[2]),parseFloat(vb[3]));
        vb[0] = parseFloat(vb[0]) - (evt.clientX - startx)*maxwh/innerWidth;
        vb[1] = parseFloat(vb[1]) - (evt.clientY - starty)*maxwh/innerHeight;
        svgEl.setAttributeNS(null, "viewBox", vb.join(" "));
        startx = evt.clientX;
        starty = evt.clientY;
      }
    } 
    svgEl.onmouseup=function() {
      startx=0;
      starty=0;
    }
    svgEl.ondblclick=function() {
      location.reload();
    }
  ]]>
</script>

</svg>

