<?xml version="1.0"?>
<svg xmlns="http://www.w3.org/2000/svg"
xmlns:xlink="http://www.w3.org/1999/xlink" xmlns:cml="http://www.xml-cml.org/schema" width="258.847" height="221.015" x="0" y="0" font-family="sans-serif" stroke="rgb(0,0,0)" stroke-width="1"  stroke-linecap="round">
<rect x="0%" y="0%" width="100%" height="100%" stroke-width="0" fill="rgb(255,255,255)"  />
<line x1="67.0" y1="52.1" x2="72.7" y2="78.5" stroke="rgb(0,0,0)"  stroke-width="1.0"/>
<line x1="61.2" y1="53.3" x2="66.8" y2="79.8" stroke="rgb(0,0,0)"  stroke-width="1.0"/>
<line x1="69.7" y1="79.1" x2="49.7" y2="97.2" stroke="rgb(0,0,0)"  stroke-width="1.0"/>
<line x1="69.7" y1="79.1" x2="107.8" y2="91.5" stroke="rgb(0,0,0)"  stroke-width="1.0"/>
<line x1="112.8" y1="89.6" x2="113.2" y2="91.2" stroke="rgb(0,0,0)"  stroke-width="1.0"/>
<line x1="116.9" y1="88.1" x2="117.5" y2="90.9" stroke="rgb(0,0,0)"  stroke-width="1.0"/>
<line x1="121.0" y1="86.6" x2="121.8" y2="90.6" stroke="rgb(0,0,0)"  stroke-width="1.0"/>
<line x1="125.0" y1="85.0" x2="126.2" y2="90.4" stroke="rgb(0,0,0)"  stroke-width="1.0"/>
<line x1="129.1" y1="83.5" x2="130.5" y2="90.1" stroke="rgb(0,0,0)"  stroke-width="1.0"/>
<line x1="133.2" y1="82.0" x2="134.8" y2="89.8" stroke="rgb(0,0,0)"  stroke-width="1.0"/>
<line x1="107.8" y1="91.5" x2="116.1" y2="65.8" stroke="rgb(0,0,0)"  stroke-width="1.0"/>
<line x1="107.8" y1="91.5" x2="116.1" y2="130.6" stroke="rgb(0,0,0)"  stroke-width="1.0"/>
<line x1="116.1" y1="130.6" x2="154.1" y2="143.0" stroke="rgb(0,0,0)"  stroke-width="1.0"/>
<line x1="154.1" y1="143.0" x2="186.5" y2="119.5" stroke="rgb(0,0,0)"  stroke-width="1.0"/>
<line x1="163.2" y1="145.3" x2="185.9" y2="128.8" stroke="rgb(0,0,0)"  stroke-width="1.0"/>
<line x1="186.5" y1="119.5" x2="208.3" y2="135.3" stroke="rgb(0,0,0)"  stroke-width="1.0"/>
<line x1="214.8" y1="155.3" x2="206.5" y2="181.0" stroke="rgb(0,0,0)"  stroke-width="1.0"/>
<line x1="206.5" y1="181.0" x2="179.7" y2="181.0" stroke="rgb(0,0,0)"  stroke-width="1.0"/>
<line x1="200.5" y1="173.8" x2="181.7" y2="173.8" stroke="rgb(0,0,0)"  stroke-width="1.0"/>
<line x1="162.5" y1="168.7" x2="154.1" y2="143.0" stroke="rgb(0,0,0)"  stroke-width="1.0"/>
<text x="55.407915" y="48.000000" fill="rgb(255,12,12)"  stroke="rgb(255,12,12)" stroke-width="1" font-size="16" >O</text>
<text x="22.000000" y="113.891738" fill="rgb(255,12,12)"  stroke="rgb(255,12,12)" stroke-width="1" font-size="16" >HO</text>
<text x="140.895575" y="91.171828" fill="rgb(191,191,191)"  stroke="rgb(191,191,191)" stroke-width="1" font-size="16" >H</text>
<text x="116.127682" y="61.443947" fill="rgb(12,12,255)"  stroke="rgb(12,12,255)" stroke-width="1" font-size="16" >NH</text>
<text x="140.127682" y="65.123947" fill="rgb(12,12,255)"  stroke="rgb(12,12,255)" stroke-width="1" font-size="13" >2</text>
<text x="212.847289" y="150.971591" fill="rgb(12,12,255)"  stroke="rgb(12,12,255)" stroke-width="1" font-size="16" >NH</text>
<text x="160.487497" y="189.015440" fill="rgb(12,12,255)"  stroke="rgb(12,12,255)" stroke-width="1" font-size="16" >N</text>
<text font-size="18.000000" fill ="black" font-family="sans-serif"
x="10.000000" y="20.000000" >histadine</text>
<title>histadine - OBDepict</title>
</svg>
