<?xml version="1.0"?>
<svg xmlns="http://www.w3.org/2000/svg"
xmlns:xlink="http://www.w3.org/1999/xlink" xmlns:cml="http://www.xml-cml.org/schema" width="245.478" height="239.999" x="0" y="0" font-family="sans-serif" stroke="rgb(0,0,0)" stroke-width="1"  stroke-linecap="round">
<rect x="0%" y="0%" width="100%" height="100%" stroke-width="0" fill="rgb(255,255,255)"  />
<line x1="55.2" y1="178.0" x2="59.5" y2="164.7" stroke="rgb(0,0,0)"  stroke-width="1.0"/>
<line x1="139.2" y1="160.0" x2="139.2" y2="187.0" stroke="rgb(0,0,0)"  stroke-width="1.0"/>
<line x1="133.2" y1="160.0" x2="133.2" y2="187.0" stroke="rgb(0,0,0)"  stroke-width="1.0"/>
<line x1="182.1" y1="146.5" x2="194.2" y2="153.5" stroke="rgb(0,0,0)"  stroke-width="1.0"/>
<line x1="169.3" y1="97.4" x2="192.7" y2="83.9" stroke="rgb(0,0,0)"  stroke-width="1.0"/>
<line x1="172.3" y1="102.6" x2="195.7" y2="89.1" stroke="rgb(0,0,0)"  stroke-width="1.0"/>
<line x1="136.2" y1="67.0" x2="136.2" y2="53.0" stroke="rgb(0,0,0)"  stroke-width="1.0"/>
<line x1="55.9" y1="141.8" x2="40.0" y2="120.0" stroke="rgb(0,0,0)"  stroke-width="1.0"/>
<line x1="40.0" y1="120.0" x2="55.8" y2="98.3" stroke="rgb(0,0,0)"  stroke-width="1.0"/>
<line x1="49.4" y1="119.4" x2="60.4" y2="104.2" stroke="rgb(0,0,0)"  stroke-width="1.0"/>
<line x1="75.9" y1="91.7" x2="101.6" y2="100.0" stroke="rgb(0,0,0)"  stroke-width="1.0"/>
<line x1="101.6" y1="100.0" x2="101.6" y2="140.0" stroke="rgb(0,0,0)"  stroke-width="1.0"/>
<line x1="94.4" y1="106.0" x2="94.4" y2="134.0" stroke="rgb(0,0,0)"  stroke-width="1.0"/>
<line x1="101.6" y1="140.0" x2="75.9" y2="148.3" stroke="rgb(0,0,0)"  stroke-width="1.0"/>
<line x1="170.8" y1="100.0" x2="170.8" y2="127.0" stroke="rgb(0,0,0)"  stroke-width="1.0"/>
<line x1="159.6" y1="146.5" x2="136.2" y2="160.0" stroke="rgb(0,0,0)"  stroke-width="1.0"/>
<line x1="136.2" y1="160.0" x2="101.6" y2="140.0" stroke="rgb(0,0,0)"  stroke-width="1.0"/>
<line x1="101.6" y1="100.0" x2="124.9" y2="86.5" stroke="rgb(0,0,0)"  stroke-width="1.0"/>
<line x1="147.5" y1="86.5" x2="170.8" y2="100.0" stroke="rgb(0,0,0)"  stroke-width="1.0"/>
<text x="25.151896" y="198.402603" fill="rgb(102,102,102)"  stroke="rgb(102,102,102)" stroke-width="1" font-size="16" >H</text>
<text x="37.151896" y="202.082603" fill="rgb(102,102,102)"  stroke="rgb(102,102,102)" stroke-width="1" font-size="13" >3</text>
<text x="43.651896" y="198.402603" fill="rgb(102,102,102)"  stroke="rgb(102,102,102)" stroke-width="1" font-size="16" >C</text>
<text x="57.511782" y="160.358956" fill="rgb(12,12,255)"  stroke="rgb(12,12,255)" stroke-width="1" font-size="16" >N</text>
<text x="57.511782" y="95.639557" fill="rgb(12,12,255)"  stroke="rgb(12,12,255)" stroke-width="1" font-size="16" >N</text>
<text x="130.195106" y="207.998514" fill="rgb(255,12,12)"  stroke="rgb(255,12,12)" stroke-width="1" font-size="16" >O</text>
<text x="164.834784" y="147.999071" fill="rgb(12,12,255)"  stroke="rgb(12,12,255)" stroke-width="1" font-size="16" >N</text>
<text x="199.478463" y="167.998885" fill="rgb(191,191,191)"  stroke="rgb(191,191,191)" stroke-width="1" font-size="16" >H</text>
<text x="199.478463" y="87.999628" fill="rgb(255,12,12)"  stroke="rgb(255,12,12)" stroke-width="1" font-size="16" >O</text>
<text x="130.195106" y="87.999628" fill="rgb(12,12,255)"  stroke="rgb(12,12,255)" stroke-width="1" font-size="16" >N</text>
<text x="132.195106" y="48.000000" fill="rgb(102,102,102)"  stroke="rgb(102,102,102)" stroke-width="1" font-size="16" >CH</text>
<text x="156.195106" y="51.680000" fill="rgb(102,102,102)"  stroke="rgb(102,102,102)" stroke-width="1" font-size="13" >3</text>
<text font-size="18.000000" fill ="black" font-family="sans-serif"
x="10.000000" y="20.000000" >theobromine</text>
<title>theobromine - OBDepict</title>
</svg>
