<?xml version="1.0"?>
<svg xmlns="http://www.w3.org/2000/svg"
xmlns:xlink="http://www.w3.org/1999/xlink" xmlns:cml="http://www.xml-cml.org/schema" width="383.965" height="522.634" x="0" y="0" font-family="sans-serif" stroke="rgb(0,0,0)" stroke-width="1"  stroke-linecap="round">
<rect x="0%" y="0%" width="100%" height="100%" stroke-width="0" fill="rgb(255,255,255)"  />
<line x1="295.8" y1="471.4" x2="309.3" y2="448.0" stroke="rgb(0,0,0)"  stroke-width="1.0"/>
<polygon points="309.325306 447.993978 326.189447 469.202847 319.261294 473.202935 " stroke-width="1.000000" fill="rgb(0,0,0)"  stroke="rgb(0,0,0)" />
<line x1="273.2" y1="390.6" x2="238.5" y2="370.6" stroke="rgb(0,0,0)"  stroke-width="1.0"/>
<line x1="276.2" y1="385.4" x2="241.5" y2="365.4" stroke="rgb(0,0,0)"  stroke-width="1.0"/>
<line x1="306.3" y1="368.0" x2="306.3" y2="341.0" stroke="rgb(0,0,0)"  stroke-width="1.0"/>
<line x1="312.3" y1="368.0" x2="312.3" y2="341.0" stroke="rgb(0,0,0)"  stroke-width="1.0"/>
<line x1="240.0" y1="368.0" x2="240.0" y2="328.0" stroke="rgb(0,0,0)"  stroke-width="1.0"/>
<line x1="238.5" y1="330.6" x2="203.9" y2="310.6" stroke="rgb(0,0,0)"  stroke-width="1.0"/>
<line x1="241.5" y1="325.4" x2="206.9" y2="305.4" stroke="rgb(0,0,0)"  stroke-width="1.0"/>
<polygon points="170.760634 247.993008 143.689499 249.167772 144.526311 241.211658 " stroke-width="1.000000" fill="rgb(0,0,0)"  stroke="rgb(0,0,0)" />
<line x1="209.2" y1="271.9" x2="207.9" y2="272.8" stroke="rgb(0,0,0)"  stroke-width="1.0"/>
<line x1="212.2" y1="275.0" x2="209.9" y2="276.6" stroke="rgb(0,0,0)"  stroke-width="1.0"/>
<line x1="215.3" y1="278.0" x2="211.9" y2="280.5" stroke="rgb(0,0,0)"  stroke-width="1.0"/>
<line x1="218.3" y1="281.1" x2="213.9" y2="284.3" stroke="rgb(0,0,0)"  stroke-width="1.0"/>
<line x1="221.4" y1="284.2" x2="215.9" y2="288.2" stroke="rgb(0,0,0)"  stroke-width="1.0"/>
<line x1="224.4" y1="287.3" x2="217.9" y2="292.0" stroke="rgb(0,0,0)"  stroke-width="1.0"/>
<line x1="173.7" y1="208.0" x2="174.2" y2="206.4" stroke="rgb(0,0,0)"  stroke-width="1.0"/>
<line x1="169.5" y1="207.3" x2="170.3" y2="204.5" stroke="rgb(0,0,0)"  stroke-width="1.0"/>
<line x1="165.2" y1="206.5" x2="166.5" y2="202.6" stroke="rgb(0,0,0)"  stroke-width="1.0"/>
<line x1="160.9" y1="205.8" x2="162.6" y2="200.6" stroke="rgb(0,0,0)"  stroke-width="1.0"/>
<line x1="156.6" y1="205.1" x2="158.7" y2="198.7" stroke="rgb(0,0,0)"  stroke-width="1.0"/>
<line x1="152.4" y1="204.4" x2="154.8" y2="196.8" stroke="rgb(0,0,0)"  stroke-width="1.0"/>
<line x1="179.1" y1="208.9" x2="170.8" y2="169.7" stroke="rgb(0,0,0)"  stroke-width="1.0"/>
<line x1="171.7" y1="164.4" x2="173.2" y2="164.9" stroke="rgb(0,0,0)"  stroke-width="1.0"/>
<line x1="172.4" y1="160.1" x2="175.1" y2="161.0" stroke="rgb(0,0,0)"  stroke-width="1.0"/>
<line x1="173.1" y1="155.8" x2="177.0" y2="157.1" stroke="rgb(0,0,0)"  stroke-width="1.0"/>
<line x1="173.8" y1="151.6" x2="179.0" y2="153.2" stroke="rgb(0,0,0)"  stroke-width="1.0"/>
<line x1="174.5" y1="147.3" x2="180.9" y2="149.4" stroke="rgb(0,0,0)"  stroke-width="1.0"/>
<line x1="175.2" y1="143.0" x2="182.8" y2="145.5" stroke="rgb(0,0,0)"  stroke-width="1.0"/>
<line x1="170.8" y1="169.7" x2="197.2" y2="164.1" stroke="rgb(0,0,0)"  stroke-width="1.0"/>
<line x1="170.8" y1="169.7" x2="132.7" y2="157.4" stroke="rgb(0,0,0)"  stroke-width="1.0"/>
<line x1="132.7" y1="157.4" x2="124.4" y2="118.3" stroke="rgb(0,0,0)"  stroke-width="1.0"/>
<line x1="124.4" y1="118.3" x2="86.4" y2="105.9" stroke="rgb(0,0,0)"  stroke-width="1.0"/>
<line x1="86.4" y1="105.9" x2="78.0" y2="66.8" stroke="rgb(0,0,0)"  stroke-width="1.0"/>
<line x1="78.0" y1="66.8" x2="52.4" y2="58.4" stroke="rgb(0,0,0)"  stroke-width="1.0"/>
<line x1="78.0" y1="66.8" x2="98.1" y2="48.7" stroke="rgb(0,0,0)"  stroke-width="1.0"/>
<line x1="218.9" y1="204.7" x2="235.1" y2="241.2" stroke="rgb(0,0,0)"  stroke-width="1.0"/>
<line x1="235.1" y1="241.2" x2="205.4" y2="268.0" stroke="rgb(0,0,0)"  stroke-width="1.0"/>
<line x1="205.4" y1="268.0" x2="170.8" y2="248.0" stroke="rgb(0,0,0)"  stroke-width="1.0"/>
<line x1="170.8" y1="248.0" x2="179.1" y2="208.9" stroke="rgb(0,0,0)"  stroke-width="1.0"/>
<line x1="179.1" y1="208.9" x2="218.9" y2="204.7" stroke="rgb(0,0,0)"  stroke-width="1.0"/>
<line x1="309.3" y1="448.0" x2="274.7" y2="428.0" stroke="rgb(0,0,0)"  stroke-width="1.0"/>
<line x1="274.7" y1="428.0" x2="274.7" y2="388.0" stroke="rgb(0,0,0)"  stroke-width="1.0"/>
<line x1="274.7" y1="388.0" x2="309.3" y2="368.0" stroke="rgb(0,0,0)"  stroke-width="1.0"/>
<line x1="309.3" y1="368.0" x2="344.0" y2="388.0" stroke="rgb(0,0,0)"  stroke-width="1.0"/>
<line x1="344.0" y1="388.0" x2="344.0" y2="428.0" stroke="rgb(0,0,0)"  stroke-width="1.0"/>
<line x1="344.0" y1="428.0" x2="309.3" y2="448.0" stroke="rgb(0,0,0)"  stroke-width="1.0"/>
<line x1="205.4" y1="308.0" x2="170.8" y2="328.0" stroke="rgb(0,0,0)"  stroke-width="1.0"/>
<line x1="170.8" y1="328.0" x2="136.1" y2="308.0" stroke="rgb(0,0,0)"  stroke-width="1.0"/>
<line x1="136.1" y1="308.0" x2="136.1" y2="268.0" stroke="rgb(0,0,0)"  stroke-width="1.0"/>
<line x1="136.1" y1="268.0" x2="170.8" y2="248.0" stroke="rgb(0,0,0)"  stroke-width="1.0"/>
<line x1="205.4" y1="268.0" x2="205.4" y2="308.0" stroke="rgb(0,0,0)"  stroke-width="1.0"/>
<text x="271.325209" y="490.634146" fill="rgb(255,12,12)"  stroke="rgb(255,12,12)" stroke-width="1" font-size="16" >HO</text>
<text x="323.325403" y="490.634146" fill="rgb(191,191,191)"  stroke="rgb(191,191,191)" stroke-width="1" font-size="16" >H</text>
<text x="305.325306" y="335.993396" fill="rgb(102,102,102)"  stroke="rgb(102,102,102)" stroke-width="1" font-size="16" >CH</text>
<text x="329.325306" y="339.673396" fill="rgb(102,102,102)"  stroke="rgb(102,102,102)" stroke-width="1" font-size="13" >2</text>
<text x="222.912916" y="308.353262" fill="rgb(191,191,191)"  stroke="rgb(191,191,191)" stroke-width="1" font-size="16" >H</text>
<text x="135.036490" y="204.504759" fill="rgb(191,191,191)"  stroke="rgb(191,191,191)" stroke-width="1" font-size="16" >H</text>
<text x="177.120694" y="139.696445" fill="rgb(191,191,191)"  stroke="rgb(191,191,191)" stroke-width="1" font-size="16" >H</text>
<text x="205.884824" y="169.424589" fill="rgb(102,102,102)"  stroke="rgb(102,102,102)" stroke-width="1" font-size="16" >CH</text>
<text x="229.884824" y="173.104589" fill="rgb(102,102,102)"  stroke="rgb(102,102,102)" stroke-width="1" font-size="13" >3</text>
<text x="14.000000" y="62.404070" fill="rgb(102,102,102)"  stroke="rgb(102,102,102)" stroke-width="1" font-size="16" >H</text>
<text x="26.000000" y="66.084070" fill="rgb(102,102,102)"  stroke="rgb(102,102,102)" stroke-width="1" font-size="13" >3</text>
<text x="32.500000" y="62.404070" fill="rgb(102,102,102)"  stroke="rgb(102,102,102)" stroke-width="1" font-size="16" >C</text>
<text x="103.768329" y="48.000000" fill="rgb(102,102,102)"  stroke="rgb(102,102,102)" stroke-width="1" font-size="16" >CH</text>
<text x="127.768329" y="51.680000" fill="rgb(102,102,102)"  stroke="rgb(102,102,102)" stroke-width="1" font-size="13" >3</text>
<text x="104.980441" y="251.808988" fill="rgb(102,102,102)"  stroke="rgb(102,102,102)" stroke-width="1" font-size="16" >H</text>
<text x="116.980441" y="255.488988" fill="rgb(102,102,102)"  stroke="rgb(102,102,102)" stroke-width="1" font-size="13" >3</text>
<text x="123.480441" y="251.808988" fill="rgb(102,102,102)"  stroke="rgb(102,102,102)" stroke-width="1" font-size="16" >C</text>
<text font-size="18.000000" fill ="black" font-family="sans-serif"
x="10.000000" y="20.000000" >vitamin D3</text>
<title>vitamin D3 - OBDepict</title>
</svg>
