<?xml version="1.0"?>
<svg xmlns="http://www.w3.org/2000/svg"
xmlns:xlink="http://www.w3.org/1999/xlink" xmlns:cml="http://www.xml-cml.org/schema" width="437.5" height="399.632" x="0" y="0" font-family="sans-serif" stroke="rgb(0,0,0)" stroke-width="1"  stroke-linecap="round">
<rect x="0%" y="0%" width="100%" height="100%" stroke-width="0" fill="rgb(255,255,255)"  />
<line x1="386.2" y1="353.1" x2="362.5" y2="339.4" stroke="rgb(0,0,0)"  stroke-width="1.0"/>
<polygon points="362.487817 339.415830 383.946600 322.414620 387.945088 329.343696 " stroke-width="1.000000" fill="rgb(0,0,0)"  stroke="rgb(0,0,0)" />
<line x1="226.2" y1="295.0" x2="227.8" y2="295.0" stroke="rgb(0,0,0)"  stroke-width="1.0"/>
<line x1="225.5" y1="290.8" x2="228.4" y2="290.8" stroke="rgb(0,0,0)"  stroke-width="1.0"/>
<line x1="224.9" y1="286.6" x2="229.0" y2="286.6" stroke="rgb(0,0,0)"  stroke-width="1.0"/>
<line x1="224.2" y1="282.4" x2="229.7" y2="282.4" stroke="rgb(0,0,0)"  stroke-width="1.0"/>
<line x1="223.6" y1="278.2" x2="230.3" y2="278.2" stroke="rgb(0,0,0)"  stroke-width="1.0"/>
<line x1="223.0" y1="274.1" x2="231.0" y2="274.1" stroke="rgb(0,0,0)"  stroke-width="1.0"/>
<polygon points="260.859875 280.715863 264.859875 306.936969 256.859875 306.936969 " stroke-width="1.000000" fill="rgb(0,0,0)"  stroke="rgb(0,0,0)" />
<line x1="192.3" y1="236.2" x2="193.9" y2="236.2" stroke="rgb(0,0,0)"  stroke-width="1.0"/>
<line x1="191.6" y1="231.9" x2="194.5" y2="231.9" stroke="rgb(0,0,0)"  stroke-width="1.0"/>
<line x1="191.0" y1="227.6" x2="195.2" y2="227.6" stroke="rgb(0,0,0)"  stroke-width="1.0"/>
<line x1="190.4" y1="223.4" x2="195.8" y2="223.4" stroke="rgb(0,0,0)"  stroke-width="1.0"/>
<line x1="189.7" y1="219.1" x2="196.4" y2="219.1" stroke="rgb(0,0,0)"  stroke-width="1.0"/>
<line x1="189.1" y1="214.8" x2="197.1" y2="214.8" stroke="rgb(0,0,0)"  stroke-width="1.0"/>
<polygon points="193.075913 280.715863 197.075913 307.799928 189.075913 307.799928 " stroke-width="1.000000" fill="rgb(0,0,0)"  stroke="rgb(0,0,0)" />
<polygon points="159.183932 222.039897 155.183932 194.955832 163.183932 194.955832 " stroke-width="1.000000" fill="rgb(0,0,0)"  stroke="rgb(0,0,0)" />
<line x1="159.2" y1="222.0" x2="125.3" y2="202.5" stroke="rgb(0,0,0)"  stroke-width="1.0"/>
<polygon points="125.327952 202.519908 98.867800 203.775346 99.699652 195.818712 " stroke-width="1.000000" fill="rgb(0,0,0)"  stroke="rgb(0,0,0)" />
<line x1="125.3" y1="202.5" x2="110.0" y2="223.6" stroke="rgb(0,0,0)"  stroke-width="1.0"/>
<line x1="125.3" y1="202.5" x2="129.4" y2="163.6" stroke="rgb(0,0,0)"  stroke-width="1.0"/>
<line x1="129.4" y1="163.6" x2="97.8" y2="140.7" stroke="rgb(0,0,0)"  stroke-width="1.0"/>
<line x1="97.8" y1="140.7" x2="101.8" y2="101.8" stroke="rgb(0,0,0)"  stroke-width="1.0"/>
<polygon points="101.823965 101.823965 128.284116 100.568526 127.452264 108.525160 " stroke-width="1.000000" fill="rgb(0,0,0)"  stroke="rgb(0,0,0)" />
<line x1="101.8" y1="101.8" x2="105.9" y2="63.0" stroke="rgb(0,0,0)"  stroke-width="1.0"/>
<line x1="101.8" y1="101.8" x2="63.0" y2="97.8" stroke="rgb(0,0,0)"  stroke-width="1.0"/>
<line x1="105.9" y1="63.0" x2="84.8" y2="47.6" stroke="rgb(0,0,0)"  stroke-width="1.0"/>
<line x1="63.0" y1="97.8" x2="52.3" y2="73.9" stroke="rgb(0,0,0)"  stroke-width="1.0"/>
<line x1="63.0" y1="97.8" x2="47.6" y2="118.9" stroke="rgb(0,0,0)"  stroke-width="1.0"/>
<line x1="294.0" y1="294.9" x2="295.6" y2="294.9" stroke="rgb(0,0,0)"  stroke-width="1.0"/>
<line x1="293.3" y1="290.6" x2="296.2" y2="290.6" stroke="rgb(0,0,0)"  stroke-width="1.0"/>
<line x1="292.7" y1="286.3" x2="296.8" y2="286.3" stroke="rgb(0,0,0)"  stroke-width="1.0"/>
<line x1="292.0" y1="282.0" x2="297.5" y2="282.0" stroke="rgb(0,0,0)"  stroke-width="1.0"/>
<line x1="291.4" y1="277.7" x2="298.1" y2="277.7" stroke="rgb(0,0,0)"  stroke-width="1.0"/>
<line x1="290.8" y1="273.5" x2="298.8" y2="273.5" stroke="rgb(0,0,0)"  stroke-width="1.0"/>
<line x1="125.3" y1="241.6" x2="159.2" y2="222.0" stroke="rgb(0,0,0)"  stroke-width="1.0"/>
<line x1="159.2" y1="222.0" x2="193.1" y2="241.6" stroke="rgb(0,0,0)"  stroke-width="1.0"/>
<line x1="193.1" y1="241.6" x2="193.1" y2="280.7" stroke="rgb(0,0,0)"  stroke-width="1.0"/>
<line x1="193.1" y1="280.7" x2="125.3" y2="280.7" stroke="rgb(0,0,0)"  stroke-width="1.0"/>
<line x1="125.3" y1="280.7" x2="125.3" y2="241.6" stroke="rgb(0,0,0)"  stroke-width="1.0"/>
<line x1="362.5" y1="339.4" x2="328.6" y2="359.0" stroke="rgb(0,0,0)"  stroke-width="1.0"/>
<line x1="328.6" y1="359.0" x2="294.8" y2="339.4" stroke="rgb(0,0,0)"  stroke-width="1.0"/>
<line x1="294.8" y1="339.4" x2="294.8" y2="300.3" stroke="rgb(0,0,0)"  stroke-width="1.0"/>
<line x1="294.8" y1="300.3" x2="328.6" y2="280.7" stroke="rgb(0,0,0)"  stroke-width="1.0"/>
<line x1="328.6" y1="280.7" x2="362.5" y2="300.3" stroke="rgb(0,0,0)"  stroke-width="1.0"/>
<line x1="362.5" y1="300.3" x2="362.5" y2="339.4" stroke="rgb(0,0,0)"  stroke-width="1.0"/>
<line x1="260.9" y1="359.0" x2="294.8" y2="339.4" stroke="rgb(0,0,0)"  stroke-width="1.0"/>
<line x1="262.5" y1="349.7" x2="286.0" y2="336.2" stroke="rgb(0,0,0)"  stroke-width="1.0"/>
<line x1="294.8" y1="300.3" x2="260.9" y2="280.7" stroke="rgb(0,0,0)"  stroke-width="1.0"/>
<line x1="260.9" y1="280.7" x2="227.0" y2="300.3" stroke="rgb(0,0,0)"  stroke-width="1.0"/>
<line x1="227.0" y1="300.3" x2="227.0" y2="339.4" stroke="rgb(0,0,0)"  stroke-width="1.0"/>
<line x1="227.0" y1="339.4" x2="260.9" y2="359.0" stroke="rgb(0,0,0)"  stroke-width="1.0"/>
<line x1="193.1" y1="280.7" x2="227.0" y2="300.3" stroke="rgb(0,0,0)"  stroke-width="1.0"/>
<line x1="260.9" y1="280.7" x2="260.9" y2="241.6" stroke="rgb(0,0,0)"  stroke-width="1.0"/>
<line x1="260.9" y1="241.6" x2="227.0" y2="222.0" stroke="rgb(0,0,0)"  stroke-width="1.0"/>
<line x1="227.0" y1="222.0" x2="193.1" y2="241.6" stroke="rgb(0,0,0)"  stroke-width="1.0"/>
<text x="391.491797" y="367.631819" fill="rgb(255,12,12)"  stroke="rgb(255,12,12)" stroke-width="1" font-size="16" >OH</text>
<text x="391.499797" y="327.211842" fill="rgb(191,191,191)"  stroke="rgb(191,191,191)" stroke-width="1" font-size="16" >H</text>
<text x="220.967894" y="269.151875" fill="rgb(191,191,191)"  stroke="rgb(191,191,191)" stroke-width="1" font-size="16" >H</text>
<text x="254.859875" y="327.851841" fill="rgb(191,191,191)"  stroke="rgb(191,191,191)" stroke-width="1" font-size="16" >H</text>
<text x="187.075913" y="329.139840" fill="rgb(191,191,191)"  stroke="rgb(191,191,191)" stroke-width="1" font-size="16" >H</text>
<text x="153.183932" y="189.615920" fill="rgb(191,191,191)"  stroke="rgb(191,191,191)" stroke-width="1" font-size="16" >H</text>
<text x="80.455974" y="206.455910" fill="rgb(191,191,191)"  stroke="rgb(191,191,191)" stroke-width="1" font-size="16" >H</text>
<text x="76.371965" y="242.147890" fill="rgb(102,102,102)"  stroke="rgb(102,102,102)" stroke-width="1" font-size="16" >H</text>
<text x="88.371965" y="245.827890" fill="rgb(102,102,102)"  stroke="rgb(102,102,102)" stroke-width="1" font-size="13" >3</text>
<text x="94.871965" y="242.147890" fill="rgb(102,102,102)"  stroke="rgb(102,102,102)" stroke-width="1" font-size="16" >C</text>
<text x="134.695943" y="113.887963" fill="rgb(191,191,191)"  stroke="rgb(191,191,191)" stroke-width="1" font-size="16" >H</text>
<text x="48.259981" y="48.000000" fill="rgb(102,102,102)"  stroke="rgb(102,102,102)" stroke-width="1" font-size="16" >H</text>
<text x="60.259981" y="51.680000" fill="rgb(102,102,102)"  stroke="rgb(102,102,102)" stroke-width="1" font-size="13" >3</text>
<text x="66.759981" y="48.000000" fill="rgb(102,102,102)"  stroke="rgb(102,102,102)" stroke-width="1" font-size="16" >C</text>
<text x="21.039996" y="70.063987" fill="rgb(102,102,102)"  stroke="rgb(102,102,102)" stroke-width="1" font-size="16" >H</text>
<text x="33.039996" y="73.743987" fill="rgb(102,102,102)"  stroke="rgb(102,102,102)" stroke-width="1" font-size="13" >3</text>
<text x="39.539996" y="70.063987" fill="rgb(102,102,102)"  stroke="rgb(102,102,102)" stroke-width="1" font-size="16" >C</text>
<text x="14.000000" y="137.391949" fill="rgb(102,102,102)"  stroke="rgb(102,102,102)" stroke-width="1" font-size="16" >H</text>
<text x="26.000000" y="141.071949" fill="rgb(102,102,102)"  stroke="rgb(102,102,102)" stroke-width="1" font-size="13" >3</text>
<text x="32.500000" y="137.391949" fill="rgb(102,102,102)"  stroke="rgb(102,102,102)" stroke-width="1" font-size="16" >C</text>
<text x="189.075913" y="209.583908" fill="rgb(102,102,102)"  stroke="rgb(102,102,102)" stroke-width="1" font-size="16" >CH</text>
<text x="213.075913" y="213.263908" fill="rgb(102,102,102)"  stroke="rgb(102,102,102)" stroke-width="1" font-size="13" >3</text>
<text x="290.751855" y="268.259875" fill="rgb(102,102,102)"  stroke="rgb(102,102,102)" stroke-width="1" font-size="16" >CH</text>
<text x="314.751855" y="271.939875" fill="rgb(102,102,102)"  stroke="rgb(102,102,102)" stroke-width="1" font-size="13" >3</text>
<text font-size="18.000000" fill ="black" font-family="sans-serif"
x="10.000000" y="20.000000" >beta-sitosterol</text>
<title>beta-sitosterol - OBDepict</title>
</svg>
