<?xml version="1.0"?>
<svg xmlns="http://www.w3.org/2000/svg"
xmlns:xlink="http://www.w3.org/1999/xlink" xmlns:cml="http://www.xml-cml.org/schema" width="347.849" height="240" x="0" y="0" font-family="sans-serif" stroke="rgb(0,0,0)" stroke-width="1"  stroke-linecap="round">
<rect x="0%" y="0%" width="100%" height="100%" stroke-width="0" fill="rgb(255,255,255)"  />
<line x1="234.3" y1="183.4" x2="247.8" y2="160.0" stroke="rgb(0,0,0)"  stroke-width="1.0"/>
<line x1="247.8" y1="160.0" x2="271.2" y2="173.5" stroke="rgb(0,0,0)"  stroke-width="1.0"/>
<line x1="247.8" y1="160.0" x2="267.8" y2="125.4" stroke="rgb(0,0,0)"  stroke-width="1.0"/>
<line x1="247.8" y1="160.0" x2="213.2" y2="140.0" stroke="rgb(0,0,0)"  stroke-width="1.0"/>
<line x1="267.8" y1="125.4" x2="294.8" y2="125.4" stroke="rgb(0,0,0)"  stroke-width="1.0"/>
<line x1="213.2" y1="140.0" x2="213.2" y2="113.0" stroke="rgb(0,0,0)"  stroke-width="1.0"/>
<line x1="213.2" y1="140.0" x2="178.6" y2="160.0" stroke="rgb(0,0,0)"  stroke-width="1.0"/>
<line x1="178.6" y1="160.0" x2="178.6" y2="187.0" stroke="rgb(0,0,0)"  stroke-width="1.0"/>
<line x1="178.6" y1="160.0" x2="155.2" y2="146.5" stroke="rgb(0,0,0)"  stroke-width="1.0"/>
<line x1="143.9" y1="127.0" x2="143.9" y2="113.0" stroke="rgb(0,0,0)"  stroke-width="1.0"/>
<line x1="132.7" y1="146.5" x2="109.3" y2="160.0" stroke="rgb(0,0,0)"  stroke-width="1.0"/>
<line x1="109.3" y1="160.0" x2="74.6" y2="140.0" stroke="rgb(0,0,0)"  stroke-width="1.0"/>
<line x1="74.6" y1="140.0" x2="74.6" y2="100.0" stroke="rgb(0,0,0)"  stroke-width="1.0"/>
<line x1="74.6" y1="100.0" x2="51.3" y2="86.5" stroke="rgb(0,0,0)"  stroke-width="1.0"/>
<line x1="74.6" y1="100.0" x2="98.0" y2="86.5" stroke="rgb(0,0,0)"  stroke-width="1.0"/>
<line x1="109.3" y1="67.0" x2="109.3" y2="53.0" stroke="rgb(0,0,0)"  stroke-width="1.0"/>
<text x="201.848549" y="202.640452" fill="rgb(102,102,102)"  stroke="rgb(102,102,102)" stroke-width="1" font-size="16" >H</text>
<text x="213.848549" y="206.320452" fill="rgb(102,102,102)"  stroke="rgb(102,102,102)" stroke-width="1" font-size="13" >3</text>
<text x="220.348549" y="202.640452" fill="rgb(102,102,102)"  stroke="rgb(102,102,102)" stroke-width="1" font-size="16" >C</text>
<text x="278.488709" y="188.000409" fill="rgb(102,102,102)"  stroke="rgb(102,102,102)" stroke-width="1" font-size="16" >CH</text>
<text x="302.488709" y="191.680409" fill="rgb(102,102,102)"  stroke="rgb(102,102,102)" stroke-width="1" font-size="13" >3</text>
<text x="301.848783" y="133.360250" fill="rgb(255,12,12)"  stroke="rgb(255,12,12)" stroke-width="1" font-size="16" >OH</text>
<text x="207.208507" y="108.000175" fill="rgb(255,12,12)"  stroke="rgb(255,12,12)" stroke-width="1" font-size="16" >OH</text>
<text x="183.368405" y="195.968468" fill="rgb(255,12,12)"  stroke="rgb(255,12,12)" stroke-width="1" font-size="16" ></text>
<text x="183.368405" y="195.968468" fill="rgb(255,12,12)"  stroke="rgb(255,12,12)" stroke-width="1" font-size="32" >.</text>
<text x="172.568405" y="208.000468" fill="rgb(255,12,12)"  stroke="rgb(255,12,12)" stroke-width="1" font-size="16" >O</text>
<text x="137.924304" y="148.000292" fill="rgb(12,12,255)"  stroke="rgb(12,12,255)" stroke-width="1" font-size="16" >N</text>
<text x="137.924304" y="108.000175" fill="rgb(191,191,191)"  stroke="rgb(191,191,191)" stroke-width="1" font-size="16" >H</text>
<text x="44.800000" y="75.968117" fill="rgb(255,12,12)"  stroke="rgb(255,12,12)" stroke-width="1" font-size="16" ></text>
<text x="44.800000" y="75.968117" fill="rgb(255,12,12)"  stroke="rgb(255,12,12)" stroke-width="1" font-size="32" >.</text>
<text x="34.000000" y="88.000117" fill="rgb(255,12,12)"  stroke="rgb(255,12,12)" stroke-width="1" font-size="16" >O</text>
<text x="103.284203" y="88.000117" fill="rgb(255,12,12)"  stroke="rgb(255,12,12)" stroke-width="1" font-size="16" >O</text>
<text x="103.284203" y="48.000000" fill="rgb(191,191,191)"  stroke="rgb(191,191,191)" stroke-width="1" font-size="16" >H</text>
<text font-size="18.000000" fill ="black" font-family="sans-serif"
x="10.000000" y="20.000000" >pantothenic acid</text>
<title>pantothenic acid - OBDepict</title>
</svg>
