<?xml version="1.0"?>
<svg xmlns="http://www.w3.org/2000/svg"
xmlns:xlink="http://www.w3.org/1999/xlink" xmlns:cml="http://www.xml-cml.org/schema" width="564.972" height="409.284" x="0" y="0" font-family="sans-serif" stroke="rgb(0,0,0)" stroke-width="1"  stroke-linecap="round">
<rect x="0%" y="0%" width="100%" height="100%" stroke-width="0" fill="rgb(255,255,255)"  />
<line x1="282.5" y1="180.0" x2="259.1" y2="166.5" stroke="rgb(0,0,0)"  stroke-width="1.0"/>
<line x1="351.8" y1="220.0" x2="386.4" y2="240.0" stroke="rgb(0,0,0)"  stroke-width="1.0"/>
<line x1="384.9" y1="237.4" x2="408.3" y2="223.9" stroke="rgb(0,0,0)"  stroke-width="1.0"/>
<line x1="387.9" y1="242.6" x2="411.3" y2="229.1" stroke="rgb(0,0,0)"  stroke-width="1.0"/>
<line x1="386.4" y1="240.0" x2="386.4" y2="267.0" stroke="rgb(0,0,0)"  stroke-width="1.0"/>
<line x1="397.7" y1="286.5" x2="421.1" y2="300.0" stroke="rgb(0,0,0)"  stroke-width="1.0"/>
<line x1="423.0" y1="295.0" x2="424.4" y2="295.8" stroke="rgb(0,0,0)"  stroke-width="1.0"/>
<line x1="424.6" y1="290.9" x2="427.1" y2="292.4" stroke="rgb(0,0,0)"  stroke-width="1.0"/>
<line x1="426.2" y1="286.9" x2="429.8" y2="289.0" stroke="rgb(0,0,0)"  stroke-width="1.0"/>
<line x1="427.8" y1="282.9" x2="432.5" y2="285.6" stroke="rgb(0,0,0)"  stroke-width="1.0"/>
<line x1="429.4" y1="278.8" x2="435.2" y2="282.2" stroke="rgb(0,0,0)"  stroke-width="1.0"/>
<line x1="431.0" y1="274.8" x2="437.9" y2="278.8" stroke="rgb(0,0,0)"  stroke-width="1.0"/>
<line x1="421.1" y1="300.0" x2="455.7" y2="320.0" stroke="rgb(0,0,0)"  stroke-width="1.0"/>
<line x1="421.1" y1="300.0" x2="401.1" y2="334.6" stroke="rgb(0,0,0)"  stroke-width="1.0"/>
<line x1="455.7" y1="320.0" x2="490.3" y2="300.0" stroke="rgb(0,0,0)"  stroke-width="1.0"/>
<line x1="490.3" y1="300.0" x2="490.3" y2="260.0" stroke="rgb(0,0,0)"  stroke-width="1.0"/>
<line x1="488.8" y1="262.6" x2="465.5" y2="249.1" stroke="rgb(0,0,0)"  stroke-width="1.0"/>
<line x1="491.8" y1="257.4" x2="468.5" y2="243.9" stroke="rgb(0,0,0)"  stroke-width="1.0"/>
<line x1="490.3" y1="260.0" x2="513.7" y2="246.5" stroke="rgb(0,0,0)"  stroke-width="1.0"/>
<line x1="403.7" y1="333.1" x2="417.2" y2="356.5" stroke="rgb(0,0,0)"  stroke-width="1.0"/>
<line x1="398.5" y1="336.1" x2="412.0" y2="359.5" stroke="rgb(0,0,0)"  stroke-width="1.0"/>
<line x1="401.1" y1="334.6" x2="374.1" y2="334.6" stroke="rgb(0,0,0)"  stroke-width="1.0"/>
<line x1="236.6" y1="166.5" x2="213.2" y2="180.0" stroke="rgb(0,0,0)"  stroke-width="1.0"/>
<line x1="213.2" y1="180.0" x2="178.6" y2="160.0" stroke="rgb(0,0,0)"  stroke-width="1.0"/>
<line x1="142.4" y1="57.4" x2="165.8" y2="43.9" stroke="rgb(0,0,0)"  stroke-width="1.0"/>
<line x1="145.4" y1="62.6" x2="168.8" y2="49.1" stroke="rgb(0,0,0)"  stroke-width="1.0"/>
<line x1="74.6" y1="60.0" x2="51.3" y2="46.5" stroke="rgb(0,0,0)"  stroke-width="1.0"/>
<line x1="63.4" y1="106.5" x2="51.3" y2="113.5" stroke="rgb(0,0,0)"  stroke-width="1.0"/>
<line x1="317.1" y1="240.0" x2="282.5" y2="220.0" stroke="rgb(0,0,0)"  stroke-width="1.0"/>
<line x1="315.5" y1="230.8" x2="291.3" y2="216.8" stroke="rgb(0,0,0)"  stroke-width="1.0"/>
<line x1="282.5" y1="220.0" x2="282.5" y2="180.0" stroke="rgb(0,0,0)"  stroke-width="1.0"/>
<line x1="282.5" y1="180.0" x2="317.1" y2="160.0" stroke="rgb(0,0,0)"  stroke-width="1.0"/>
<line x1="291.3" y1="183.2" x2="315.5" y2="169.2" stroke="rgb(0,0,0)"  stroke-width="1.0"/>
<line x1="317.1" y1="160.0" x2="351.8" y2="180.0" stroke="rgb(0,0,0)"  stroke-width="1.0"/>
<line x1="351.8" y1="180.0" x2="351.8" y2="220.0" stroke="rgb(0,0,0)"  stroke-width="1.0"/>
<line x1="344.6" y1="186.0" x2="344.6" y2="214.0" stroke="rgb(0,0,0)"  stroke-width="1.0"/>
<line x1="351.8" y1="220.0" x2="317.1" y2="240.0" stroke="rgb(0,0,0)"  stroke-width="1.0"/>
<line x1="178.6" y1="160.0" x2="143.9" y2="180.0" stroke="rgb(0,0,0)"  stroke-width="1.0"/>
<line x1="169.8" y1="156.8" x2="145.5" y2="170.8" stroke="rgb(0,0,0)"  stroke-width="1.0"/>
<line x1="143.9" y1="180.0" x2="120.5" y2="166.5" stroke="rgb(0,0,0)"  stroke-width="1.0"/>
<line x1="109.3" y1="146.8" x2="109.3" y2="120.0" stroke="rgb(0,0,0)"  stroke-width="1.0"/>
<line x1="116.5" y1="144.8" x2="116.5" y2="126.0" stroke="rgb(0,0,0)"  stroke-width="1.0"/>
<line x1="109.3" y1="120.0" x2="143.9" y2="100.0" stroke="rgb(0,0,0)"  stroke-width="1.0"/>
<line x1="143.9" y1="100.0" x2="167.1" y2="113.4" stroke="rgb(0,0,0)"  stroke-width="1.0"/>
<line x1="145.5" y1="109.2" x2="161.8" y2="118.6" stroke="rgb(0,0,0)"  stroke-width="1.0"/>
<line x1="178.6" y1="133.0" x2="178.6" y2="160.0" stroke="rgb(0,0,0)"  stroke-width="1.0"/>
<line x1="74.6" y1="60.0" x2="97.8" y2="46.6" stroke="rgb(0,0,0)"  stroke-width="1.0"/>
<line x1="83.4" y1="63.2" x2="99.7" y2="53.8" stroke="rgb(0,0,0)"  stroke-width="1.0"/>
<line x1="120.5" y1="46.5" x2="143.9" y2="60.0" stroke="rgb(0,0,0)"  stroke-width="1.0"/>
<line x1="143.9" y1="60.0" x2="143.9" y2="100.0" stroke="rgb(0,0,0)"  stroke-width="1.0"/>
<line x1="109.3" y1="120.0" x2="85.9" y2="106.5" stroke="rgb(0,0,0)"  stroke-width="1.0"/>
<line x1="74.6" y1="87.0" x2="74.6" y2="60.0" stroke="rgb(0,0,0)"  stroke-width="1.0"/>
<text x="415.051871" y="227.999939" fill="rgb(255,12,12)"  stroke="rgb(255,12,12)" stroke-width="1" font-size="16" >O</text>
<text x="368.407882" y="287.999919" fill="rgb(12,12,255)"  stroke="rgb(12,12,255)" stroke-width="1" font-size="16" >HN</text>
<text x="435.051864" y="273.359924" fill="rgb(191,191,191)"  stroke="rgb(191,191,191)" stroke-width="1" font-size="16" >H</text>
<text x="449.691859" y="247.999932" fill="rgb(255,12,12)"  stroke="rgb(255,12,12)" stroke-width="1" font-size="16" >O</text>
<text x="518.971835" y="247.999932" fill="rgb(255,12,12)"  stroke="rgb(255,12,12)" stroke-width="1" font-size="16" >OH</text>
<text x="415.051871" y="377.283888" fill="rgb(255,12,12)"  stroke="rgb(255,12,12)" stroke-width="1" font-size="16" >O</text>
<text x="343.051891" y="342.639900" fill="rgb(255,12,12)"  stroke="rgb(255,12,12)" stroke-width="1" font-size="16" >HO</text>
<text x="241.843929" y="167.999959" fill="rgb(12,12,255)"  stroke="rgb(12,12,255)" stroke-width="1" font-size="16" >N</text>
<text x="241.843929" y="151.999959" fill="rgb(12,12,255)"  stroke="rgb(12,12,255)" stroke-width="1" font-size="16" >H</text>
<text x="103.279976" y="167.999959" fill="rgb(12,12,255)"  stroke="rgb(12,12,255)" stroke-width="1" font-size="16" >N</text>
<text x="172.563953" y="127.999973" fill="rgb(12,12,255)"  stroke="rgb(12,12,255)" stroke-width="1" font-size="16" >N</text>
<text x="172.563953" y="48.000000" fill="rgb(255,12,12)"  stroke="rgb(255,12,12)" stroke-width="1" font-size="16" >O</text>
<text x="103.279976" y="48.000000" fill="rgb(12,12,255)"  stroke="rgb(12,12,255)" stroke-width="1" font-size="16" >N</text>
<text x="68.639988" y="107.999980" fill="rgb(12,12,255)"  stroke="rgb(12,12,255)" stroke-width="1" font-size="16" >N</text>
<text x="34.000000" y="127.999973" fill="rgb(191,191,191)"  stroke="rgb(191,191,191)" stroke-width="1" font-size="16" >H</text>
<text x="14.000000" y="48.000000" fill="rgb(12,12,255)"  stroke="rgb(12,12,255)" stroke-width="1" font-size="16" >H</text>
<text x="26.000000" y="51.680000" fill="rgb(12,12,255)"  stroke="rgb(12,12,255)" stroke-width="1" font-size="13" >2</text>
<text x="32.500000" y="48.000000" fill="rgb(12,12,255)"  stroke="rgb(12,12,255)" stroke-width="1" font-size="16" >N</text>
<text font-size="18.000000" fill ="black" font-family="sans-serif"
x="10.000000" y="20.000000" >folate</text>
<title>folate - OBDepict</title>
</svg>
