<?xml version="1.0"?>
<svg xmlns="http://www.w3.org/2000/svg"
xmlns:xlink="http://www.w3.org/1999/xlink" xmlns:cml="http://www.xml-cml.org/schema" width="668.897" height="400.001" x="0" y="0" font-family="sans-serif" stroke="rgb(0,0,0)" stroke-width="1"  stroke-linecap="round">
<rect x="0%" y="0%" width="100%" height="100%" stroke-width="0" fill="rgb(255,255,255)"  />
<line x1="617.6" y1="353.5" x2="594.3" y2="340.0" stroke="rgb(0,0,0)"  stroke-width="1.0"/>
<line x1="559.6" y1="280.0" x2="573.1" y2="256.6" stroke="rgb(0,0,0)"  stroke-width="1.0"/>
<line x1="559.6" y1="280.0" x2="546.1" y2="256.6" stroke="rgb(0,0,0)"  stroke-width="1.0"/>
<line x1="594.3" y1="300.0" x2="628.9" y2="280.0" stroke="rgb(0,0,0)"  stroke-width="1.0"/>
<line x1="625.9" y1="280.0" x2="631.9" y2="240.0" stroke="rgb(0,0,0)"  stroke-width="1.0"/>
<line x1="631.9" y1="280.0" x2="625.9" y2="240.0" stroke="rgb(0,0,0)"  stroke-width="1.0"/>
<line x1="628.9" y1="240.0" x2="594.3" y2="220.0" stroke="rgb(0,0,0)"  stroke-width="1.0"/>
<line x1="594.3" y1="220.0" x2="570.9" y2="233.5" stroke="rgb(0,0,0)"  stroke-width="1.0"/>
<line x1="591.3" y1="220.0" x2="591.3" y2="180.0" stroke="rgb(0,0,0)"  stroke-width="1.0"/>
<line x1="597.3" y1="220.0" x2="597.3" y2="180.0" stroke="rgb(0,0,0)"  stroke-width="1.0"/>
<line x1="594.3" y1="180.0" x2="559.6" y2="160.0" stroke="rgb(0,0,0)"  stroke-width="1.0"/>
<line x1="561.1" y1="162.6" x2="526.5" y2="182.6" stroke="rgb(0,0,0)"  stroke-width="1.0"/>
<line x1="558.1" y1="157.4" x2="523.5" y2="177.4" stroke="rgb(0,0,0)"  stroke-width="1.0"/>
<line x1="525.0" y1="180.0" x2="490.3" y2="160.0" stroke="rgb(0,0,0)"  stroke-width="1.0"/>
<line x1="490.3" y1="160.0" x2="467.0" y2="173.5" stroke="rgb(0,0,0)"  stroke-width="1.0"/>
<line x1="487.3" y1="160.0" x2="487.3" y2="120.0" stroke="rgb(0,0,0)"  stroke-width="1.0"/>
<line x1="493.3" y1="160.0" x2="493.3" y2="120.0" stroke="rgb(0,0,0)"  stroke-width="1.0"/>
<line x1="490.3" y1="120.0" x2="455.7" y2="100.0" stroke="rgb(0,0,0)"  stroke-width="1.0"/>
<line x1="457.2" y1="102.6" x2="422.6" y2="122.6" stroke="rgb(0,0,0)"  stroke-width="1.0"/>
<line x1="454.2" y1="97.4" x2="419.6" y2="117.4" stroke="rgb(0,0,0)"  stroke-width="1.0"/>
<line x1="421.1" y1="120.0" x2="386.4" y2="100.0" stroke="rgb(0,0,0)"  stroke-width="1.0"/>
<line x1="387.9" y1="102.6" x2="353.3" y2="122.6" stroke="rgb(0,0,0)"  stroke-width="1.0"/>
<line x1="384.9" y1="97.4" x2="350.3" y2="117.4" stroke="rgb(0,0,0)"  stroke-width="1.0"/>
<line x1="351.8" y1="120.0" x2="351.8" y2="147.0" stroke="rgb(0,0,0)"  stroke-width="1.0"/>
<line x1="351.8" y1="120.0" x2="317.1" y2="100.0" stroke="rgb(0,0,0)"  stroke-width="1.0"/>
<line x1="318.6" y1="102.6" x2="284.0" y2="122.6" stroke="rgb(0,0,0)"  stroke-width="1.0"/>
<line x1="315.6" y1="97.4" x2="281.0" y2="117.4" stroke="rgb(0,0,0)"  stroke-width="1.0"/>
<line x1="282.5" y1="120.0" x2="247.8" y2="100.0" stroke="rgb(0,0,0)"  stroke-width="1.0"/>
<line x1="249.3" y1="102.6" x2="214.7" y2="122.6" stroke="rgb(0,0,0)"  stroke-width="1.0"/>
<line x1="246.3" y1="97.4" x2="211.7" y2="117.4" stroke="rgb(0,0,0)"  stroke-width="1.0"/>
<line x1="213.2" y1="120.0" x2="213.2" y2="147.0" stroke="rgb(0,0,0)"  stroke-width="1.0"/>
<line x1="213.2" y1="120.0" x2="178.6" y2="100.0" stroke="rgb(0,0,0)"  stroke-width="1.0"/>
<line x1="180.1" y1="102.6" x2="145.4" y2="122.6" stroke="rgb(0,0,0)"  stroke-width="1.0"/>
<line x1="177.1" y1="97.4" x2="142.4" y2="117.4" stroke="rgb(0,0,0)"  stroke-width="1.0"/>
<line x1="143.9" y1="120.0" x2="109.3" y2="100.0" stroke="rgb(0,0,0)"  stroke-width="1.0"/>
<line x1="109.3" y1="60.0" x2="132.7" y2="46.5" stroke="rgb(0,0,0)"  stroke-width="1.0"/>
<line x1="74.6" y1="120.0" x2="88.1" y2="143.4" stroke="rgb(0,0,0)"  stroke-width="1.0"/>
<line x1="74.6" y1="120.0" x2="61.1" y2="143.4" stroke="rgb(0,0,0)"  stroke-width="1.0"/>
<line x1="594.3" y1="340.0" x2="559.6" y2="360.0" stroke="rgb(0,0,0)"  stroke-width="1.0"/>
<line x1="585.5" y1="336.8" x2="561.2" y2="350.8" stroke="rgb(0,0,0)"  stroke-width="1.0"/>
<line x1="559.6" y1="360.0" x2="525.0" y2="340.0" stroke="rgb(0,0,0)"  stroke-width="1.0"/>
<line x1="525.0" y1="340.0" x2="525.0" y2="300.0" stroke="rgb(0,0,0)"  stroke-width="1.0"/>
<line x1="525.0" y1="300.0" x2="559.6" y2="280.0" stroke="rgb(0,0,0)"  stroke-width="1.0"/>
<line x1="559.6" y1="280.0" x2="594.3" y2="300.0" stroke="rgb(0,0,0)"  stroke-width="1.0"/>
<line x1="594.3" y1="300.0" x2="594.3" y2="340.0" stroke="rgb(0,0,0)"  stroke-width="1.0"/>
<line x1="109.3" y1="100.0" x2="109.3" y2="60.0" stroke="rgb(0,0,0)"  stroke-width="1.0"/>
<line x1="102.1" y1="94.0" x2="102.1" y2="66.0" stroke="rgb(0,0,0)"  stroke-width="1.0"/>
<line x1="109.3" y1="60.0" x2="74.6" y2="40.0" stroke="rgb(0,0,0)"  stroke-width="1.0"/>
<line x1="74.6" y1="40.0" x2="40.0" y2="60.0" stroke="rgb(0,0,0)"  stroke-width="1.0"/>
<line x1="40.0" y1="60.0" x2="40.0" y2="100.0" stroke="rgb(0,0,0)"  stroke-width="1.0"/>
<line x1="40.0" y1="100.0" x2="74.6" y2="120.0" stroke="rgb(0,0,0)"  stroke-width="1.0"/>
<line x1="74.6" y1="120.0" x2="109.3" y2="100.0" stroke="rgb(0,0,0)"  stroke-width="1.0"/>
<text x="624.897405" y="368.000763" fill="rgb(102,102,102)"  stroke="rgb(102,102,102)" stroke-width="1" font-size="16" >CH</text>
<text x="648.897405" y="371.680763" fill="rgb(102,102,102)"  stroke="rgb(102,102,102)" stroke-width="1" font-size="13" >3</text>
<text x="575.617287" y="253.360490" fill="rgb(102,102,102)"  stroke="rgb(102,102,102)" stroke-width="1" font-size="16" >CH</text>
<text x="599.617287" y="257.040490" fill="rgb(102,102,102)"  stroke="rgb(102,102,102)" stroke-width="1" font-size="13" >3</text>
<text x="513.617192" y="253.360490" fill="rgb(102,102,102)"  stroke="rgb(102,102,102)" stroke-width="1" font-size="16" >H</text>
<text x="525.617192" y="257.040490" fill="rgb(102,102,102)"  stroke="rgb(102,102,102)" stroke-width="1" font-size="13" >3</text>
<text x="532.117192" y="253.360490" fill="rgb(102,102,102)"  stroke="rgb(102,102,102)" stroke-width="1" font-size="16" >C</text>
<text x="533.617239" y="248.000477" fill="rgb(102,102,102)"  stroke="rgb(102,102,102)" stroke-width="1" font-size="16" >H</text>
<text x="545.617239" y="251.680477" fill="rgb(102,102,102)"  stroke="rgb(102,102,102)" stroke-width="1" font-size="13" >3</text>
<text x="552.117239" y="248.000477" fill="rgb(102,102,102)"  stroke="rgb(102,102,102)" stroke-width="1" font-size="16" >C</text>
<text x="429.692991" y="188.000334" fill="rgb(102,102,102)"  stroke="rgb(102,102,102)" stroke-width="1" font-size="16" >H</text>
<text x="441.692991" y="191.680334" fill="rgb(102,102,102)"  stroke="rgb(102,102,102)" stroke-width="1" font-size="13" >3</text>
<text x="448.192991" y="188.000334" fill="rgb(102,102,102)"  stroke="rgb(102,102,102)" stroke-width="1" font-size="16" >C</text>
<text x="347.768744" y="168.000286" fill="rgb(102,102,102)"  stroke="rgb(102,102,102)" stroke-width="1" font-size="16" >CH</text>
<text x="371.768744" y="171.680286" fill="rgb(102,102,102)"  stroke="rgb(102,102,102)" stroke-width="1" font-size="13" >3</text>
<text x="209.204413" y="168.000286" fill="rgb(102,102,102)"  stroke="rgb(102,102,102)" stroke-width="1" font-size="16" >CH</text>
<text x="233.204413" y="171.680286" fill="rgb(102,102,102)"  stroke="rgb(102,102,102)" stroke-width="1" font-size="13" >3</text>
<text x="139.924248" y="48.000000" fill="rgb(102,102,102)"  stroke="rgb(102,102,102)" stroke-width="1" font-size="16" >CH</text>
<text x="163.924248" y="51.680000" fill="rgb(102,102,102)"  stroke="rgb(102,102,102)" stroke-width="1" font-size="13" >3</text>
<text x="90.640130" y="162.640273" fill="rgb(102,102,102)"  stroke="rgb(102,102,102)" stroke-width="1" font-size="16" >CH</text>
<text x="114.640130" y="166.320273" fill="rgb(102,102,102)"  stroke="rgb(102,102,102)" stroke-width="1" font-size="13" >3</text>
<text x="28.640035" y="162.640273" fill="rgb(102,102,102)"  stroke="rgb(102,102,102)" stroke-width="1" font-size="16" >H</text>
<text x="40.640035" y="166.320273" fill="rgb(102,102,102)"  stroke="rgb(102,102,102)" stroke-width="1" font-size="13" >3</text>
<text x="47.140035" y="162.640273" fill="rgb(102,102,102)"  stroke="rgb(102,102,102)" stroke-width="1" font-size="16" >C</text>
<text font-size="18.000000" fill ="black" font-family="sans-serif"
x="10.000000" y="20.000000" >alpha carotene</text>
<title>alpha carotene - OBDepict</title>
</svg>
