<?xml version="1.0"?>
<svg xmlns="http://www.w3.org/2000/svg"
xmlns:xlink="http://www.w3.org/1999/xlink" xmlns:cml="http://www.xml-cml.org/schema" width="634.255" height="479.999" x="0" y="0" font-family="sans-serif" stroke="rgb(0,0,0)" stroke-width="1"  stroke-linecap="round">
<rect x="0%" y="0%" width="100%" height="100%" stroke-width="0" fill="rgb(255,255,255)"  />
<line x1="201.9" y1="86.5" x2="178.6" y2="100.0" stroke="rgb(0,0,0)"  stroke-width="1.0"/>
<line x1="178.6" y1="140.0" x2="213.2" y2="160.0" stroke="rgb(0,0,0)"  stroke-width="1.0"/>
<line x1="146.9" y1="160.0" x2="146.9" y2="187.0" stroke="rgb(0,0,0)"  stroke-width="1.0"/>
<line x1="140.9" y1="160.0" x2="140.9" y2="187.0" stroke="rgb(0,0,0)"  stroke-width="1.0"/>
<line x1="140.9" y1="80.0" x2="140.9" y2="53.0" stroke="rgb(0,0,0)"  stroke-width="1.0"/>
<line x1="146.9" y1="80.0" x2="146.9" y2="53.0" stroke="rgb(0,0,0)"  stroke-width="1.0"/>
<line x1="213.2" y1="160.0" x2="213.2" y2="200.0" stroke="rgb(0,0,0)"  stroke-width="1.0"/>
<line x1="214.7" y1="197.4" x2="246.3" y2="222.6" stroke="rgb(0,0,0)"  stroke-width="1.0"/>
<line x1="211.7" y1="202.6" x2="249.3" y2="217.4" stroke="rgb(0,0,0)"  stroke-width="1.0"/>
<line x1="247.8" y1="220.0" x2="247.8" y2="247.0" stroke="rgb(0,0,0)"  stroke-width="1.0"/>
<line x1="247.8" y1="220.0" x2="282.5" y2="200.0" stroke="rgb(0,0,0)"  stroke-width="1.0"/>
<line x1="282.5" y1="200.0" x2="317.1" y2="220.0" stroke="rgb(0,0,0)"  stroke-width="1.0"/>
<line x1="317.1" y1="220.0" x2="317.1" y2="260.0" stroke="rgb(0,0,0)"  stroke-width="1.0"/>
<line x1="318.6" y1="257.4" x2="350.3" y2="282.6" stroke="rgb(0,0,0)"  stroke-width="1.0"/>
<line x1="315.6" y1="262.6" x2="353.3" y2="277.4" stroke="rgb(0,0,0)"  stroke-width="1.0"/>
<line x1="351.8" y1="280.0" x2="351.8" y2="307.0" stroke="rgb(0,0,0)"  stroke-width="1.0"/>
<line x1="351.8" y1="280.0" x2="386.4" y2="260.0" stroke="rgb(0,0,0)"  stroke-width="1.0"/>
<line x1="386.4" y1="260.0" x2="421.1" y2="280.0" stroke="rgb(0,0,0)"  stroke-width="1.0"/>
<line x1="421.1" y1="280.0" x2="421.1" y2="320.0" stroke="rgb(0,0,0)"  stroke-width="1.0"/>
<line x1="422.6" y1="317.4" x2="454.2" y2="342.6" stroke="rgb(0,0,0)"  stroke-width="1.0"/>
<line x1="419.6" y1="322.6" x2="457.2" y2="337.4" stroke="rgb(0,0,0)"  stroke-width="1.0"/>
<line x1="455.7" y1="340.0" x2="455.7" y2="367.0" stroke="rgb(0,0,0)"  stroke-width="1.0"/>
<line x1="455.7" y1="340.0" x2="490.3" y2="320.0" stroke="rgb(0,0,0)"  stroke-width="1.0"/>
<line x1="490.3" y1="320.0" x2="525.0" y2="340.0" stroke="rgb(0,0,0)"  stroke-width="1.0"/>
<line x1="525.0" y1="340.0" x2="525.0" y2="380.0" stroke="rgb(0,0,0)"  stroke-width="1.0"/>
<line x1="526.5" y1="377.4" x2="561.1" y2="397.4" stroke="rgb(0,0,0)"  stroke-width="1.0"/>
<line x1="523.5" y1="382.6" x2="558.1" y2="402.6" stroke="rgb(0,0,0)"  stroke-width="1.0"/>
<line x1="559.6" y1="400.0" x2="559.6" y2="427.0" stroke="rgb(0,0,0)"  stroke-width="1.0"/>
<line x1="559.6" y1="400.0" x2="583.0" y2="386.5" stroke="rgb(0,0,0)"  stroke-width="1.0"/>
<line x1="178.6" y1="100.0" x2="178.6" y2="140.0" stroke="rgb(0,0,0)"  stroke-width="1.0"/>
<line x1="171.4" y1="106.0" x2="171.4" y2="134.0" stroke="rgb(0,0,0)"  stroke-width="1.0"/>
<line x1="178.6" y1="140.0" x2="143.9" y2="160.0" stroke="rgb(0,0,0)"  stroke-width="1.0"/>
<line x1="143.9" y1="160.0" x2="109.3" y2="140.0" stroke="rgb(0,0,0)"  stroke-width="1.0"/>
<line x1="109.3" y1="140.0" x2="109.3" y2="100.0" stroke="rgb(0,0,0)"  stroke-width="1.0"/>
<line x1="109.3" y1="100.0" x2="143.9" y2="80.0" stroke="rgb(0,0,0)"  stroke-width="1.0"/>
<line x1="143.9" y1="80.0" x2="178.6" y2="100.0" stroke="rgb(0,0,0)"  stroke-width="1.0"/>
<line x1="74.6" y1="160.0" x2="40.0" y2="140.0" stroke="rgb(0,0,0)"  stroke-width="1.0"/>
<line x1="40.0" y1="140.0" x2="40.0" y2="100.0" stroke="rgb(0,0,0)"  stroke-width="1.0"/>
<line x1="47.2" y1="134.0" x2="47.2" y2="106.0" stroke="rgb(0,0,0)"  stroke-width="1.0"/>
<line x1="40.0" y1="100.0" x2="74.6" y2="80.0" stroke="rgb(0,0,0)"  stroke-width="1.0"/>
<line x1="74.6" y1="80.0" x2="109.3" y2="100.0" stroke="rgb(0,0,0)"  stroke-width="1.0"/>
<line x1="76.2" y1="89.2" x2="100.5" y2="103.2" stroke="rgb(0,0,0)"  stroke-width="1.0"/>
<line x1="109.3" y1="140.0" x2="74.6" y2="160.0" stroke="rgb(0,0,0)"  stroke-width="1.0"/>
<line x1="100.5" y1="136.8" x2="76.2" y2="150.8" stroke="rgb(0,0,0)"  stroke-width="1.0"/>
<text x="209.207706" y="87.999932" fill="rgb(102,102,102)"  stroke="rgb(102,102,102)" stroke-width="1" font-size="16" >CH</text>
<text x="233.207706" y="91.679932" fill="rgb(102,102,102)"  stroke="rgb(102,102,102)" stroke-width="1" font-size="13" >3</text>
<text x="137.923824" y="207.999729" fill="rgb(255,12,12)"  stroke="rgb(255,12,12)" stroke-width="1" font-size="16" >O</text>
<text x="137.923824" y="48.000000" fill="rgb(255,12,12)"  stroke="rgb(255,12,12)" stroke-width="1" font-size="16" >O</text>
<text x="243.847648" y="267.999627" fill="rgb(102,102,102)"  stroke="rgb(102,102,102)" stroke-width="1" font-size="16" >CH</text>
<text x="267.847648" y="271.679627" fill="rgb(102,102,102)"  stroke="rgb(102,102,102)" stroke-width="1" font-size="13" >3</text>
<text x="347.771472" y="327.999526" fill="rgb(102,102,102)"  stroke="rgb(102,102,102)" stroke-width="1" font-size="16" >CH</text>
<text x="371.771472" y="331.679526" fill="rgb(102,102,102)"  stroke="rgb(102,102,102)" stroke-width="1" font-size="13" >3</text>
<text x="451.691296" y="387.999424" fill="rgb(102,102,102)"  stroke="rgb(102,102,102)" stroke-width="1" font-size="16" >CH</text>
<text x="475.691296" y="391.679424" fill="rgb(102,102,102)"  stroke="rgb(102,102,102)" stroke-width="1" font-size="13" >3</text>
<text x="555.615119" y="447.999322" fill="rgb(102,102,102)"  stroke="rgb(102,102,102)" stroke-width="1" font-size="16" >CH</text>
<text x="579.615119" y="451.679322" fill="rgb(102,102,102)"  stroke="rgb(102,102,102)" stroke-width="1" font-size="13" >3</text>
<text x="590.255061" y="387.999424" fill="rgb(102,102,102)"  stroke="rgb(102,102,102)" stroke-width="1" font-size="16" >CH</text>
<text x="614.255061" y="391.679424" fill="rgb(102,102,102)"  stroke="rgb(102,102,102)" stroke-width="1" font-size="13" >3</text>
<text font-size="18.000000" fill ="black" font-family="sans-serif"
x="10.000000" y="20.000000" >menaquinone-4</text>
<title>menaquinone-4 - OBDepict</title>
</svg>
