<?xml version="1.0"?>
<svg xmlns="http://www.w3.org/2000/svg"
xmlns:xlink="http://www.w3.org/1999/xlink" xmlns:cml="http://www.xml-cml.org/schema" width="980.668" height="280" x="0" y="0" font-family="sans-serif" stroke="rgb(0,0,0)" stroke-width="1"  stroke-linecap="round">
<rect x="0%" y="0%" width="100%" height="100%" stroke-width="0" fill="rgb(255,255,255)"  />
<line x1="282.5" y1="120.0" x2="247.8" y2="100.0" stroke="rgb(0,0,0)"  stroke-width="1.0"/>
<line x1="285.5" y1="120.0" x2="285.5" y2="160.0" stroke="rgb(0,0,0)"  stroke-width="1.0"/>
<line x1="279.5" y1="120.0" x2="279.5" y2="160.0" stroke="rgb(0,0,0)"  stroke-width="1.0"/>
<line x1="282.5" y1="120.0" x2="305.9" y2="106.5" stroke="rgb(0,0,0)"  stroke-width="1.0"/>
<line x1="244.8" y1="100.0" x2="244.8" y2="60.0" stroke="rgb(0,0,0)"  stroke-width="1.0"/>
<line x1="250.8" y1="100.0" x2="250.8" y2="60.0" stroke="rgb(0,0,0)"  stroke-width="1.0"/>
<line x1="247.8" y1="60.0" x2="213.2" y2="40.0" stroke="rgb(0,0,0)"  stroke-width="1.0"/>
<line x1="214.7" y1="42.6" x2="180.1" y2="62.6" stroke="rgb(0,0,0)"  stroke-width="1.0"/>
<line x1="211.7" y1="37.4" x2="177.1" y2="57.4" stroke="rgb(0,0,0)"  stroke-width="1.0"/>
<line x1="178.6" y1="60.0" x2="143.9" y2="40.0" stroke="rgb(0,0,0)"  stroke-width="1.0"/>
<line x1="178.6" y1="60.0" x2="178.6" y2="87.0" stroke="rgb(0,0,0)"  stroke-width="1.0"/>
<line x1="143.9" y1="40.0" x2="109.3" y2="60.0" stroke="rgb(0,0,0)"  stroke-width="1.0"/>
<line x1="109.3" y1="60.0" x2="109.3" y2="100.0" stroke="rgb(0,0,0)"  stroke-width="1.0"/>
<line x1="110.8" y1="102.6" x2="76.1" y2="122.6" stroke="rgb(0,0,0)"  stroke-width="1.0"/>
<line x1="107.8" y1="97.4" x2="73.1" y2="117.4" stroke="rgb(0,0,0)"  stroke-width="1.0"/>
<line x1="74.6" y1="120.0" x2="51.3" y2="106.5" stroke="rgb(0,0,0)"  stroke-width="1.0"/>
<line x1="74.6" y1="120.0" x2="74.6" y2="147.0" stroke="rgb(0,0,0)"  stroke-width="1.0"/>
<line x1="282.5" y1="160.0" x2="317.1" y2="180.0" stroke="rgb(0,0,0)"  stroke-width="1.0"/>
<line x1="315.6" y1="177.4" x2="350.3" y2="157.4" stroke="rgb(0,0,0)"  stroke-width="1.0"/>
<line x1="318.6" y1="182.6" x2="353.3" y2="162.6" stroke="rgb(0,0,0)"  stroke-width="1.0"/>
<line x1="351.8" y1="160.0" x2="386.4" y2="180.0" stroke="rgb(0,0,0)"  stroke-width="1.0"/>
<line x1="389.4" y1="180.0" x2="389.4" y2="220.0" stroke="rgb(0,0,0)"  stroke-width="1.0"/>
<line x1="383.4" y1="180.0" x2="383.4" y2="220.0" stroke="rgb(0,0,0)"  stroke-width="1.0"/>
<line x1="386.4" y1="180.0" x2="409.8" y2="166.5" stroke="rgb(0,0,0)"  stroke-width="1.0"/>
<line x1="386.4" y1="220.0" x2="421.1" y2="240.0" stroke="rgb(0,0,0)"  stroke-width="1.0"/>
<line x1="419.6" y1="237.4" x2="454.2" y2="217.4" stroke="rgb(0,0,0)"  stroke-width="1.0"/>
<line x1="422.6" y1="242.6" x2="457.2" y2="222.6" stroke="rgb(0,0,0)"  stroke-width="1.0"/>
<line x1="455.7" y1="220.0" x2="490.3" y2="240.0" stroke="rgb(0,0,0)"  stroke-width="1.0"/>
<line x1="488.8" y1="237.4" x2="523.5" y2="217.4" stroke="rgb(0,0,0)"  stroke-width="1.0"/>
<line x1="491.8" y1="242.6" x2="526.5" y2="222.6" stroke="rgb(0,0,0)"  stroke-width="1.0"/>
<line x1="525.0" y1="220.0" x2="559.6" y2="240.0" stroke="rgb(0,0,0)"  stroke-width="1.0"/>
<line x1="525.0" y1="220.0" x2="525.0" y2="193.0" stroke="rgb(0,0,0)"  stroke-width="1.0"/>
<line x1="558.1" y1="237.4" x2="592.8" y2="217.4" stroke="rgb(0,0,0)"  stroke-width="1.0"/>
<line x1="561.1" y1="242.6" x2="595.8" y2="222.6" stroke="rgb(0,0,0)"  stroke-width="1.0"/>
<line x1="594.3" y1="220.0" x2="628.9" y2="240.0" stroke="rgb(0,0,0)"  stroke-width="1.0"/>
<line x1="627.4" y1="237.4" x2="662.0" y2="217.4" stroke="rgb(0,0,0)"  stroke-width="1.0"/>
<line x1="630.4" y1="242.6" x2="665.0" y2="222.6" stroke="rgb(0,0,0)"  stroke-width="1.0"/>
<line x1="663.5" y1="220.0" x2="698.2" y2="240.0" stroke="rgb(0,0,0)"  stroke-width="1.0"/>
<line x1="663.5" y1="220.0" x2="663.5" y2="193.0" stroke="rgb(0,0,0)"  stroke-width="1.0"/>
<line x1="696.7" y1="237.4" x2="731.3" y2="217.4" stroke="rgb(0,0,0)"  stroke-width="1.0"/>
<line x1="699.7" y1="242.6" x2="734.3" y2="222.6" stroke="rgb(0,0,0)"  stroke-width="1.0"/>
<line x1="732.8" y1="220.0" x2="767.5" y2="240.0" stroke="rgb(0,0,0)"  stroke-width="1.0"/>
<line x1="766.0" y1="237.4" x2="800.6" y2="217.4" stroke="rgb(0,0,0)"  stroke-width="1.0"/>
<line x1="769.0" y1="242.6" x2="803.6" y2="222.6" stroke="rgb(0,0,0)"  stroke-width="1.0"/>
<line x1="802.1" y1="220.0" x2="802.1" y2="193.0" stroke="rgb(0,0,0)"  stroke-width="1.0"/>
<line x1="802.1" y1="220.0" x2="836.7" y2="240.0" stroke="rgb(0,0,0)"  stroke-width="1.0"/>
<line x1="836.7" y1="240.0" x2="871.4" y2="220.0" stroke="rgb(0,0,0)"  stroke-width="1.0"/>
<line x1="871.4" y1="220.0" x2="871.4" y2="180.0" stroke="rgb(0,0,0)"  stroke-width="1.0"/>
<line x1="869.9" y1="177.4" x2="904.5" y2="157.4" stroke="rgb(0,0,0)"  stroke-width="1.0"/>
<line x1="872.9" y1="182.6" x2="907.5" y2="162.6" stroke="rgb(0,0,0)"  stroke-width="1.0"/>
<line x1="906.0" y1="160.0" x2="906.0" y2="133.0" stroke="rgb(0,0,0)"  stroke-width="1.0"/>
<line x1="906.0" y1="160.0" x2="929.4" y2="173.5" stroke="rgb(0,0,0)"  stroke-width="1.0"/>
<text x="14.000000" y="108.000015" fill="rgb(102,102,102)"  stroke="rgb(102,102,102)" stroke-width="1" font-size="16" >H</text>
<text x="26.000000" y="111.680015" fill="rgb(102,102,102)"  stroke="rgb(102,102,102)" stroke-width="1" font-size="13" >3</text>
<text x="32.500000" y="108.000015" fill="rgb(102,102,102)"  stroke="rgb(102,102,102)" stroke-width="1" font-size="16" >C</text>
<text x="70.640009" y="168.000030" fill="rgb(102,102,102)"  stroke="rgb(102,102,102)" stroke-width="1" font-size="16" >CH</text>
<text x="94.640009" y="171.680030" fill="rgb(102,102,102)"  stroke="rgb(102,102,102)" stroke-width="1" font-size="13" >3</text>
<text x="174.564035" y="108.000015" fill="rgb(102,102,102)"  stroke="rgb(102,102,102)" stroke-width="1" font-size="16" >CH</text>
<text x="198.564035" y="111.680015" fill="rgb(102,102,102)"  stroke="rgb(102,102,102)" stroke-width="1" font-size="13" >3</text>
<text x="798.104191" y="188.000035" fill="rgb(102,102,102)"  stroke="rgb(102,102,102)" stroke-width="1" font-size="16" >CH</text>
<text x="822.104191" y="191.680035" fill="rgb(102,102,102)"  stroke="rgb(102,102,102)" stroke-width="1" font-size="13" >3</text>
<text x="902.024217" y="128.000020" fill="rgb(102,102,102)"  stroke="rgb(102,102,102)" stroke-width="1" font-size="16" >CH</text>
<text x="926.024217" y="131.680020" fill="rgb(102,102,102)"  stroke="rgb(102,102,102)" stroke-width="1" font-size="13" >3</text>
<text x="936.668226" y="188.000035" fill="rgb(102,102,102)"  stroke="rgb(102,102,102)" stroke-width="1" font-size="16" >CH</text>
<text x="960.668226" y="191.680035" fill="rgb(102,102,102)"  stroke="rgb(102,102,102)" stroke-width="1" font-size="13" >3</text>
<text x="659.540156" y="188.000035" fill="rgb(102,102,102)"  stroke="rgb(102,102,102)" stroke-width="1" font-size="16" >CH</text>
<text x="683.540156" y="191.680035" fill="rgb(102,102,102)"  stroke="rgb(102,102,102)" stroke-width="1" font-size="13" >3</text>
<text x="520.976122" y="188.000035" fill="rgb(102,102,102)"  stroke="rgb(102,102,102)" stroke-width="1" font-size="16" >CH</text>
<text x="544.976122" y="191.680035" fill="rgb(102,102,102)"  stroke="rgb(102,102,102)" stroke-width="1" font-size="13" >3</text>
<text x="417.052096" y="168.000030" fill="rgb(102,102,102)"  stroke="rgb(102,102,102)" stroke-width="1" font-size="16" >CH</text>
<text x="441.052096" y="171.680030" fill="rgb(102,102,102)"  stroke="rgb(102,102,102)" stroke-width="1" font-size="13" >3</text>
<text x="313.128070" y="108.000015" fill="rgb(102,102,102)"  stroke="rgb(102,102,102)" stroke-width="1" font-size="16" >CH</text>
<text x="337.128070" y="111.680015" fill="rgb(102,102,102)"  stroke="rgb(102,102,102)" stroke-width="1" font-size="13" >3</text>
<text font-size="18.000000" fill ="black" font-family="sans-serif"
x="10.000000" y="20.000000" >lycopene</text>
<title>lycopene - OBDepict</title>
</svg>
