<?xml version="1.0"?>
<svg xmlns="http://www.w3.org/2000/svg"
xmlns:xlink="http://www.w3.org/1999/xlink" xmlns:cml="http://www.xml-cml.org/schema" width="204.399" height="266.887" x="0" y="0" font-family="sans-serif" stroke="rgb(0,0,0)" stroke-width="1"  stroke-linecap="round">
<rect x="0%" y="0%" width="100%" height="100%" stroke-width="0" fill="rgb(255,255,255)"  />
<line x1="145.3" y1="108.7" x2="133.1" y2="132.8" stroke="rgb(0,0,0)"  stroke-width="1.0"/>
<line x1="137.8" y1="135.5" x2="136.8" y2="136.8" stroke="rgb(0,0,0)"  stroke-width="1.0"/>
<line x1="141.5" y1="137.7" x2="139.7" y2="139.9" stroke="rgb(0,0,0)"  stroke-width="1.0"/>
<line x1="145.3" y1="139.8" x2="142.7" y2="143.1" stroke="rgb(0,0,0)"  stroke-width="1.0"/>
<line x1="149.0" y1="142.0" x2="145.7" y2="146.3" stroke="rgb(0,0,0)"  stroke-width="1.0"/>
<line x1="152.8" y1="144.2" x2="148.6" y2="149.4" stroke="rgb(0,0,0)"  stroke-width="1.0"/>
<line x1="156.6" y1="146.3" x2="151.6" y2="152.6" stroke="rgb(0,0,0)"  stroke-width="1.0"/>
<polygon points="120.723589 170.835334 127.502278 197.072509 119.546072 197.908447 " stroke-width="1.000000" fill="rgb(0,0,0)"  stroke="rgb(0,0,0)" />
<line x1="120.7" y1="170.8" x2="145.4" y2="181.8" stroke="rgb(0,0,0)"  stroke-width="1.0"/>
<line x1="76.2" y1="173.7" x2="75.5" y2="172.3" stroke="rgb(0,0,0)"  stroke-width="1.0"/>
<line x1="72.5" y1="176.1" x2="71.3" y2="173.4" stroke="rgb(0,0,0)"  stroke-width="1.0"/>
<line x1="68.8" y1="178.4" x2="67.1" y2="174.6" stroke="rgb(0,0,0)"  stroke-width="1.0"/>
<line x1="65.2" y1="180.7" x2="63.0" y2="175.8" stroke="rgb(0,0,0)"  stroke-width="1.0"/>
<line x1="61.5" y1="183.1" x2="58.8" y2="176.9" stroke="rgb(0,0,0)"  stroke-width="1.0"/>
<line x1="57.9" y1="185.4" x2="54.6" y2="178.1" stroke="rgb(0,0,0)"  stroke-width="1.0"/>
<line x1="80.7" y1="170.8" x2="76.5" y2="210.6" stroke="rgb(0,0,0)"  stroke-width="1.0"/>
<polygon points="100.723691 109.283647 110.659546 84.074921 117.587699 88.075009 " stroke-width="1.000000" fill="rgb(0,0,0)"  stroke="rgb(0,0,0)" />
<line x1="100.7" y1="109.3" x2="80.7" y2="74.6" stroke="rgb(0,0,0)"  stroke-width="1.0"/>
<line x1="80.7" y1="74.6" x2="94.2" y2="51.3" stroke="rgb(0,0,0)"  stroke-width="1.0"/>
<line x1="76.5" y1="210.6" x2="51.9" y2="221.6" stroke="rgb(0,0,0)"  stroke-width="1.0"/>
<line x1="133.1" y1="132.8" x2="120.7" y2="170.8" stroke="rgb(0,0,0)"  stroke-width="1.0"/>
<line x1="120.7" y1="170.8" x2="80.7" y2="170.8" stroke="rgb(0,0,0)"  stroke-width="1.0"/>
<line x1="80.7" y1="170.8" x2="72.4" y2="145.2" stroke="rgb(0,0,0)"  stroke-width="1.0"/>
<line x1="78.9" y1="125.2" x2="100.7" y2="109.3" stroke="rgb(0,0,0)"  stroke-width="1.0"/>
<line x1="100.7" y1="109.3" x2="133.1" y2="132.8" stroke="rgb(0,0,0)"  stroke-width="1.0"/>
<text x="145.243434" y="105.155709" fill="rgb(255,12,12)"  stroke="rgb(255,12,12)" stroke-width="1" font-size="16" >OH</text>
<text x="158.399367" y="165.683401" fill="rgb(191,191,191)"  stroke="rgb(191,191,191)" stroke-width="1" font-size="16" >H</text>
<text x="118.903568" y="218.619131" fill="rgb(191,191,191)"  stroke="rgb(191,191,191)" stroke-width="1" font-size="16" >H</text>
<text x="151.263403" y="195.107251" fill="rgb(255,12,12)"  stroke="rgb(255,12,12)" stroke-width="1" font-size="16" >OH</text>
<text x="38.183979" y="195.107251" fill="rgb(191,191,191)"  stroke="rgb(191,191,191)" stroke-width="1" font-size="16" >H</text>
<text x="62.363856" y="140.795527" fill="rgb(255,12,12)"  stroke="rgb(255,12,12)" stroke-width="1" font-size="16" >O</text>
<text x="114.723589" y="82.643824" fill="rgb(255,12,12)"  stroke="rgb(255,12,12)" stroke-width="1" font-size="16" >OH</text>
<text x="94.723691" y="48.000000" fill="rgb(255,12,12)"  stroke="rgb(255,12,12)" stroke-width="1" font-size="16" >OH</text>
<text x="22.000000" y="234.887048" fill="rgb(255,12,12)"  stroke="rgb(255,12,12)" stroke-width="1" font-size="16" >HO</text>
<text font-size="18.000000" fill ="black" font-family="sans-serif"
x="10.000000" y="20.000000" >fructose</text>
<title>fructose - OBDepict</title>
</svg>
