<?xml version="1.0"?>
<svg xmlns="http://www.w3.org/2000/svg"
xmlns:xlink="http://www.w3.org/1999/xlink" xmlns:cml="http://www.xml-cml.org/schema" width="357.128" height="400" x="0" y="0" font-family="sans-serif" stroke="rgb(0,0,0)" stroke-width="1"  stroke-linecap="round">
<rect x="0%" y="0%" width="100%" height="100%" stroke-width="0" fill="rgb(255,255,255)"  />
<line x1="305.9" y1="53.5" x2="282.5" y2="40.0" stroke="rgb(0,0,0)"  stroke-width="1.0"/>
<line x1="282.5" y1="40.0" x2="247.8" y2="60.0" stroke="rgb(0,0,0)"  stroke-width="1.0"/>
<line x1="250.8" y1="60.0" x2="250.8" y2="100.0" stroke="rgb(0,0,0)"  stroke-width="1.0"/>
<line x1="244.8" y1="60.0" x2="244.8" y2="100.0" stroke="rgb(0,0,0)"  stroke-width="1.0"/>
<line x1="247.8" y1="100.0" x2="213.2" y2="120.0" stroke="rgb(0,0,0)"  stroke-width="1.0"/>
<line x1="247.8" y1="100.0" x2="271.2" y2="113.5" stroke="rgb(0,0,0)"  stroke-width="1.0"/>
<line x1="216.2" y1="120.0" x2="216.2" y2="160.0" stroke="rgb(0,0,0)"  stroke-width="1.0"/>
<line x1="210.2" y1="120.0" x2="210.2" y2="160.0" stroke="rgb(0,0,0)"  stroke-width="1.0"/>
<line x1="213.2" y1="160.0" x2="178.6" y2="180.0" stroke="rgb(0,0,0)"  stroke-width="1.0"/>
<line x1="181.6" y1="180.0" x2="181.6" y2="220.0" stroke="rgb(0,0,0)"  stroke-width="1.0"/>
<line x1="175.6" y1="180.0" x2="175.6" y2="220.0" stroke="rgb(0,0,0)"  stroke-width="1.0"/>
<line x1="178.6" y1="220.0" x2="143.9" y2="240.0" stroke="rgb(0,0,0)"  stroke-width="1.0"/>
<line x1="178.6" y1="220.0" x2="201.9" y2="233.5" stroke="rgb(0,0,0)"  stroke-width="1.0"/>
<line x1="146.9" y1="240.0" x2="146.9" y2="280.0" stroke="rgb(0,0,0)"  stroke-width="1.0"/>
<line x1="140.9" y1="240.0" x2="140.9" y2="280.0" stroke="rgb(0,0,0)"  stroke-width="1.0"/>
<line x1="143.9" y1="280.0" x2="109.3" y2="300.0" stroke="rgb(0,0,0)"  stroke-width="1.0"/>
<line x1="109.3" y1="340.0" x2="132.7" y2="353.5" stroke="rgb(0,0,0)"  stroke-width="1.0"/>
<line x1="74.6" y1="280.0" x2="88.1" y2="256.6" stroke="rgb(0,0,0)"  stroke-width="1.0"/>
<line x1="74.6" y1="280.0" x2="61.1" y2="256.6" stroke="rgb(0,0,0)"  stroke-width="1.0"/>
<line x1="109.3" y1="300.0" x2="109.3" y2="340.0" stroke="rgb(0,0,0)"  stroke-width="1.0"/>
<line x1="102.1" y1="306.0" x2="102.1" y2="334.0" stroke="rgb(0,0,0)"  stroke-width="1.0"/>
<line x1="109.3" y1="340.0" x2="74.6" y2="360.0" stroke="rgb(0,0,0)"  stroke-width="1.0"/>
<line x1="74.6" y1="360.0" x2="40.0" y2="340.0" stroke="rgb(0,0,0)"  stroke-width="1.0"/>
<line x1="40.0" y1="340.0" x2="40.0" y2="300.0" stroke="rgb(0,0,0)"  stroke-width="1.0"/>
<line x1="40.0" y1="300.0" x2="74.6" y2="280.0" stroke="rgb(0,0,0)"  stroke-width="1.0"/>
<line x1="74.6" y1="280.0" x2="109.3" y2="300.0" stroke="rgb(0,0,0)"  stroke-width="1.0"/>
<text x="311.127783" y="67.999984" fill="rgb(255,12,12)"  stroke="rgb(255,12,12)" stroke-width="1" font-size="16" >OH</text>
<text x="90.639957" y="253.359840" fill="rgb(102,102,102)"  stroke="rgb(102,102,102)" stroke-width="1" font-size="16" >CH</text>
<text x="114.639957" y="257.039840" fill="rgb(102,102,102)"  stroke="rgb(102,102,102)" stroke-width="1" font-size="13" >3</text>
<text x="28.639989" y="253.359840" fill="rgb(102,102,102)"  stroke="rgb(102,102,102)" stroke-width="1" font-size="16" >H</text>
<text x="40.639989" y="257.039840" fill="rgb(102,102,102)"  stroke="rgb(102,102,102)" stroke-width="1" font-size="13" >3</text>
<text x="47.139989" y="253.359840" fill="rgb(102,102,102)"  stroke="rgb(102,102,102)" stroke-width="1" font-size="16" >C</text>
<text x="139.923919" y="367.999750" fill="rgb(102,102,102)"  stroke="rgb(102,102,102)" stroke-width="1" font-size="16" >CH</text>
<text x="163.923919" y="371.679750" fill="rgb(102,102,102)"  stroke="rgb(102,102,102)" stroke-width="1" font-size="13" >3</text>
<text x="209.203865" y="247.999844" fill="rgb(102,102,102)"  stroke="rgb(102,102,102)" stroke-width="1" font-size="16" >CH</text>
<text x="233.203865" y="251.679844" fill="rgb(102,102,102)"  stroke="rgb(102,102,102)" stroke-width="1" font-size="13" >3</text>
<text x="278.487811" y="127.999937" fill="rgb(102,102,102)"  stroke="rgb(102,102,102)" stroke-width="1" font-size="16" >CH</text>
<text x="302.487811" y="131.679937" fill="rgb(102,102,102)"  stroke="rgb(102,102,102)" stroke-width="1" font-size="13" >3</text>
<text font-size="18.000000" fill ="black" font-family="sans-serif"
x="10.000000" y="20.000000" >retinol</text>
<title>retinol - OBDepict</title>
</svg>
