<?xml version="1.0"?>
<svg xmlns="http://www.w3.org/2000/svg"
xmlns:xlink="http://www.w3.org/1999/xlink" xmlns:cml="http://www.xml-cml.org/schema" width="353.207" height="486.41" x="0" y="0" font-family="sans-serif" stroke="rgb(0,0,0)" stroke-width="1"  stroke-linecap="round">
<rect x="0%" y="0%" width="100%" height="100%" stroke-width="0" fill="rgb(255,255,255)"  />
<line x1="301.9" y1="86.5" x2="278.6" y2="100.0" stroke="rgb(0,0,0)"  stroke-width="1.0"/>
<line x1="278.6" y1="140.0" x2="301.9" y2="153.5" stroke="rgb(0,0,0)"  stroke-width="1.0"/>
<line x1="243.9" y1="160.0" x2="243.9" y2="187.0" stroke="rgb(0,0,0)"  stroke-width="1.0"/>
<line x1="140.0" y1="100.0" x2="126.5" y2="76.6" stroke="rgb(0,0,0)"  stroke-width="1.0"/>
<line x1="140.0" y1="100.0" x2="100.0" y2="100.0" stroke="rgb(0,0,0)"  stroke-width="1.0"/>
<line x1="243.9" y1="80.0" x2="243.9" y2="53.0" stroke="rgb(0,0,0)"  stroke-width="1.0"/>
<line x1="100.0" y1="100.0" x2="80.0" y2="134.6" stroke="rgb(0,0,0)"  stroke-width="1.0"/>
<line x1="80.0" y1="134.6" x2="100.0" y2="169.3" stroke="rgb(0,0,0)"  stroke-width="1.0"/>
<line x1="100.0" y1="169.3" x2="80.0" y2="203.9" stroke="rgb(0,0,0)"  stroke-width="1.0"/>
<line x1="80.0" y1="203.9" x2="53.0" y2="203.9" stroke="rgb(0,0,0)"  stroke-width="1.0"/>
<line x1="80.0" y1="203.9" x2="100.0" y2="238.6" stroke="rgb(0,0,0)"  stroke-width="1.0"/>
<line x1="100.0" y1="238.6" x2="80.0" y2="273.2" stroke="rgb(0,0,0)"  stroke-width="1.0"/>
<line x1="80.0" y1="273.2" x2="100.0" y2="307.8" stroke="rgb(0,0,0)"  stroke-width="1.0"/>
<line x1="100.0" y1="307.8" x2="80.0" y2="342.5" stroke="rgb(0,0,0)"  stroke-width="1.0"/>
<line x1="80.0" y1="342.5" x2="53.0" y2="342.5" stroke="rgb(0,0,0)"  stroke-width="1.0"/>
<line x1="80.0" y1="342.5" x2="100.0" y2="377.1" stroke="rgb(0,0,0)"  stroke-width="1.0"/>
<line x1="100.0" y1="377.1" x2="140.0" y2="377.1" stroke="rgb(0,0,0)"  stroke-width="1.0"/>
<line x1="140.0" y1="377.1" x2="160.0" y2="411.8" stroke="rgb(0,0,0)"  stroke-width="1.0"/>
<line x1="160.0" y1="411.8" x2="200.0" y2="411.8" stroke="rgb(0,0,0)"  stroke-width="1.0"/>
<line x1="200.0" y1="411.8" x2="213.5" y2="435.2" stroke="rgb(0,0,0)"  stroke-width="1.0"/>
<line x1="200.0" y1="411.8" x2="213.5" y2="388.4" stroke="rgb(0,0,0)"  stroke-width="1.0"/>
<line x1="278.6" y1="100.0" x2="278.6" y2="140.0" stroke="rgb(0,0,0)"  stroke-width="1.0"/>
<line x1="271.4" y1="106.0" x2="271.4" y2="134.0" stroke="rgb(0,0,0)"  stroke-width="1.0"/>
<line x1="278.6" y1="140.0" x2="243.9" y2="160.0" stroke="rgb(0,0,0)"  stroke-width="1.0"/>
<line x1="243.9" y1="160.0" x2="209.3" y2="140.0" stroke="rgb(0,0,0)"  stroke-width="1.0"/>
<line x1="242.3" y1="150.8" x2="218.1" y2="136.8" stroke="rgb(0,0,0)"  stroke-width="1.0"/>
<line x1="209.3" y1="140.0" x2="209.3" y2="100.0" stroke="rgb(0,0,0)"  stroke-width="1.0"/>
<line x1="209.3" y1="100.0" x2="243.9" y2="80.0" stroke="rgb(0,0,0)"  stroke-width="1.0"/>
<line x1="218.1" y1="103.2" x2="242.3" y2="89.2" stroke="rgb(0,0,0)"  stroke-width="1.0"/>
<line x1="243.9" y1="80.0" x2="278.6" y2="100.0" stroke="rgb(0,0,0)"  stroke-width="1.0"/>
<line x1="174.6" y1="160.0" x2="140.0" y2="140.0" stroke="rgb(0,0,0)"  stroke-width="1.0"/>
<line x1="140.0" y1="140.0" x2="140.0" y2="100.0" stroke="rgb(0,0,0)"  stroke-width="1.0"/>
<line x1="140.0" y1="100.0" x2="163.4" y2="86.5" stroke="rgb(0,0,0)"  stroke-width="1.0"/>
<line x1="185.9" y1="86.5" x2="209.3" y2="100.0" stroke="rgb(0,0,0)"  stroke-width="1.0"/>
<line x1="209.3" y1="140.0" x2="174.6" y2="160.0" stroke="rgb(0,0,0)"  stroke-width="1.0"/>
<text x="309.206957" y="87.999847" fill="rgb(102,102,102)"  stroke="rgb(102,102,102)" stroke-width="1" font-size="16" >CH</text>
<text x="333.206957" y="91.679847" fill="rgb(102,102,102)"  stroke="rgb(102,102,102)" stroke-width="1" font-size="13" >3</text>
<text x="168.639486" y="87.999847" fill="rgb(255,12,12)"  stroke="rgb(255,12,12)" stroke-width="1" font-size="16" >O</text>
<text x="239.923221" y="48.000000" fill="rgb(102,102,102)"  stroke="rgb(102,102,102)" stroke-width="1" font-size="16" >CH</text>
<text x="263.923221" y="51.680000" fill="rgb(102,102,102)"  stroke="rgb(102,102,102)" stroke-width="1" font-size="13" >3</text>
<text x="93.999694" y="73.359903" fill="rgb(102,102,102)"  stroke="rgb(102,102,102)" stroke-width="1" font-size="16" >H</text>
<text x="105.999694" y="77.039903" fill="rgb(102,102,102)"  stroke="rgb(102,102,102)" stroke-width="1" font-size="13" >3</text>
<text x="112.499694" y="73.359903" fill="rgb(102,102,102)"  stroke="rgb(102,102,102)" stroke-width="1" font-size="16" >C</text>
<text x="14.000000" y="211.923374" fill="rgb(102,102,102)"  stroke="rgb(102,102,102)" stroke-width="1" font-size="16" >H</text>
<text x="26.000000" y="215.603374" fill="rgb(102,102,102)"  stroke="rgb(102,102,102)" stroke-width="1" font-size="13" >3</text>
<text x="32.500000" y="211.923374" fill="rgb(102,102,102)"  stroke="rgb(102,102,102)" stroke-width="1" font-size="16" >C</text>
<text x="14.000000" y="350.486845" fill="rgb(102,102,102)"  stroke="rgb(102,102,102)" stroke-width="1" font-size="16" >H</text>
<text x="26.000000" y="354.166845" fill="rgb(102,102,102)"  stroke="rgb(102,102,102)" stroke-width="1" font-size="13" >3</text>
<text x="32.500000" y="350.486845" fill="rgb(102,102,102)"  stroke="rgb(102,102,102)" stroke-width="1" font-size="16" >C</text>
<text x="215.999313" y="454.410448" fill="rgb(102,102,102)"  stroke="rgb(102,102,102)" stroke-width="1" font-size="16" >CH</text>
<text x="239.999313" y="458.090448" fill="rgb(102,102,102)"  stroke="rgb(102,102,102)" stroke-width="1" font-size="13" >3</text>
<text x="215.999313" y="385.126712" fill="rgb(102,102,102)"  stroke="rgb(102,102,102)" stroke-width="1" font-size="16" >CH</text>
<text x="239.999313" y="388.806712" fill="rgb(102,102,102)"  stroke="rgb(102,102,102)" stroke-width="1" font-size="13" >3</text>
<text x="239.923221" y="207.999389" fill="rgb(102,102,102)"  stroke="rgb(102,102,102)" stroke-width="1" font-size="16" >CH</text>
<text x="263.923221" y="211.679389" fill="rgb(102,102,102)"  stroke="rgb(102,102,102)" stroke-width="1" font-size="13" >3</text>
<text x="307.206957" y="167.999542" fill="rgb(255,12,12)"  stroke="rgb(255,12,12)" stroke-width="1" font-size="16" >OH</text>
<text font-size="18.000000" fill ="black" font-family="sans-serif"
x="10.000000" y="20.000000" >vitamin E</text>
<title>vitamin E - OBDepict</title>
</svg>
