<?xml version="1.0"?>
<svg xmlns="http://www.w3.org/2000/svg"
xmlns:xlink="http://www.w3.org/1999/xlink" xmlns:cml="http://www.xml-cml.org/schema" width="240" height="189.284" x="0" y="0" font-family="sans-serif" stroke="rgb(0,0,0)" stroke-width="1"  stroke-linecap="round">
<rect x="0%" y="0%" width="100%" height="100%" stroke-width="0" fill="rgb(255,255,255)"  />
<line x1="187.0" y1="74.6" x2="160.0" y2="74.6" stroke="rgb(0,0,0)"  stroke-width="1.0"/>
<line x1="160.0" y1="74.6" x2="140.0" y2="109.3" stroke="rgb(0,0,0)"  stroke-width="1.0"/>
<polygon points="140.000234 109.284162 144.000234 136.084225 136.000234 136.084225 " stroke-width="1.000000" fill="rgb(0,0,0)"  stroke="rgb(0,0,0)" />
<line x1="140.0" y1="109.3" x2="163.4" y2="122.8" stroke="rgb(0,0,0)"  stroke-width="1.0"/>
<line x1="140.0" y1="109.3" x2="100.0" y2="109.3" stroke="rgb(0,0,0)"  stroke-width="1.0"/>
<polygon points="100.000140 109.284162 78.791330 126.148270 74.791242 119.220117 " stroke-width="1.000000" fill="rgb(0,0,0)"  stroke="rgb(0,0,0)" />
<line x1="100.0" y1="109.3" x2="80.0" y2="74.6" stroke="rgb(0,0,0)"  stroke-width="1.0"/>
<line x1="100.0" y1="109.3" x2="100.0" y2="136.3" stroke="rgb(0,0,0)"  stroke-width="1.0"/>
<line x1="77.4" y1="73.1" x2="90.9" y2="49.8" stroke="rgb(0,0,0)"  stroke-width="1.0"/>
<line x1="82.6" y1="76.1" x2="96.1" y2="52.8" stroke="rgb(0,0,0)"  stroke-width="1.0"/>
<line x1="80.0" y1="74.6" x2="53.0" y2="74.6" stroke="rgb(0,0,0)"  stroke-width="1.0"/>
<text x="196.000374" y="82.644081" fill="rgb(102,102,102)"  stroke="rgb(102,102,102)" stroke-width="1" font-size="16" >CH</text>
<text x="220.000374" y="86.324081" fill="rgb(102,102,102)"  stroke="rgb(102,102,102)" stroke-width="1" font-size="13" >3</text>
<text x="134.000234" y="157.284256" fill="rgb(191,191,191)"  stroke="rgb(191,191,191)" stroke-width="1" font-size="16" >H</text>
<text x="170.640315" y="137.284209" fill="rgb(102,102,102)"  stroke="rgb(102,102,102)" stroke-width="1" font-size="16" >CH</text>
<text x="194.640315" y="140.964209" fill="rgb(102,102,102)"  stroke="rgb(102,102,102)" stroke-width="1" font-size="13" >3</text>
<text x="59.360059" y="137.284209" fill="rgb(191,191,191)"  stroke="rgb(191,191,191)" stroke-width="1" font-size="16" >H</text>
<text x="94.000140" y="48.000000" fill="rgb(255,12,12)"  stroke="rgb(255,12,12)" stroke-width="1" font-size="16" >O</text>
<text x="22.000000" y="82.644081" fill="rgb(255,12,12)"  stroke="rgb(255,12,12)" stroke-width="1" font-size="16" >HO</text>
<text x="96.000140" y="157.284256" fill="rgb(12,12,255)"  stroke="rgb(12,12,255)" stroke-width="1" font-size="16" >NH</text>
<text x="120.000140" y="160.964256" fill="rgb(12,12,255)"  stroke="rgb(12,12,255)" stroke-width="1" font-size="13" >2</text>
<text font-size="18.000000" fill ="black" font-family="sans-serif"
x="10.000000" y="20.000000" >isoleucine</text>
<title>isoleucine - OBDepict</title>
</svg>
