<?xml version="1.0"?>
<svg xmlns="http://www.w3.org/2000/svg"
xmlns:xlink="http://www.w3.org/1999/xlink" xmlns:cml="http://www.xml-cml.org/schema" width="218.567" height="174.64" x="0" y="0" font-family="sans-serif" stroke="rgb(0,0,0)" stroke-width="1"  stroke-linecap="round">
<rect x="0%" y="0%" width="100%" height="100%" stroke-width="0" fill="rgb(255,255,255)"  />
<line x1="167.3" y1="93.5" x2="143.9" y2="80.0" stroke="rgb(0,0,0)"  stroke-width="1.0"/>
<line x1="143.9" y1="80.0" x2="143.9" y2="53.0" stroke="rgb(0,0,0)"  stroke-width="1.0"/>
<line x1="143.9" y1="80.0" x2="109.3" y2="100.0" stroke="rgb(0,0,0)"  stroke-width="1.0"/>
<polygon points="109.283643 99.999691 99.347788 125.208415 92.419636 121.208327 " stroke-width="1.000000" fill="rgb(0,0,0)"  stroke="rgb(0,0,0)" />
<line x1="109.3" y1="100.0" x2="74.6" y2="80.0" stroke="rgb(0,0,0)"  stroke-width="1.0"/>
<line x1="109.3" y1="100.0" x2="122.8" y2="123.4" stroke="rgb(0,0,0)"  stroke-width="1.0"/>
<line x1="71.6" y1="80.0" x2="71.6" y2="53.0" stroke="rgb(0,0,0)"  stroke-width="1.0"/>
<line x1="77.6" y1="80.0" x2="77.6" y2="53.0" stroke="rgb(0,0,0)"  stroke-width="1.0"/>
<line x1="74.6" y1="80.0" x2="51.3" y2="93.5" stroke="rgb(0,0,0)"  stroke-width="1.0"/>
<text x="174.567286" y="107.999691" fill="rgb(102,102,102)"  stroke="rgb(102,102,102)" stroke-width="1" font-size="16" >CH</text>
<text x="198.567286" y="111.679691" fill="rgb(102,102,102)"  stroke="rgb(102,102,102)" stroke-width="1" font-size="13" >3</text>
<text x="139.923465" y="48.000000" fill="rgb(102,102,102)"  stroke="rgb(102,102,102)" stroke-width="1" font-size="16" >CH</text>
<text x="163.923465" y="51.680000" fill="rgb(102,102,102)"  stroke="rgb(102,102,102)" stroke-width="1" font-size="13" >3</text>
<text x="83.283746" y="142.639513" fill="rgb(191,191,191)"  stroke="rgb(191,191,191)" stroke-width="1" font-size="16" >H</text>
<text x="68.643822" y="48.000000" fill="rgb(255,12,12)"  stroke="rgb(255,12,12)" stroke-width="1" font-size="16" >O</text>
<text x="22.000000" y="107.999691" fill="rgb(255,12,12)"  stroke="rgb(255,12,12)" stroke-width="1" font-size="16" >HO</text>
<text x="125.283540" y="142.639513" fill="rgb(12,12,255)"  stroke="rgb(12,12,255)" stroke-width="1" font-size="16" >NH</text>
<text x="149.283540" y="146.319513" fill="rgb(12,12,255)"  stroke="rgb(12,12,255)" stroke-width="1" font-size="13" >2</text>
<text font-size="18.000000" fill ="black" font-family="sans-serif"
x="10.000000" y="20.000000" >valine</text>
<title>valine - OBDepict</title>
</svg>
