<?xml version="1.0"?>
<svg xmlns="http://www.w3.org/2000/svg"
xmlns:xlink="http://www.w3.org/1999/xlink" xmlns:cml="http://www.xml-cml.org/schema" width="238.273" height="234.641" x="0" y="0" font-family="sans-serif" stroke="rgb(0,0,0)" stroke-width="1"  stroke-linecap="round">
<rect x="0%" y="0%" width="100%" height="100%" stroke-width="0" fill="rgb(255,255,255)"  />
<line x1="185.7" y1="49.0" x2="159.6" y2="56.0" stroke="rgb(0,0,0)"  stroke-width="1.0"/>
<line x1="159.6" y1="56.0" x2="149.3" y2="94.6" stroke="rgb(0,0,0)"  stroke-width="1.0"/>
<line x1="154.0" y1="97.3" x2="153.0" y2="98.5" stroke="rgb(0,0,0)"  stroke-width="1.0"/>
<line x1="157.8" y1="99.4" x2="156.1" y2="101.7" stroke="rgb(0,0,0)"  stroke-width="1.0"/>
<line x1="161.6" y1="101.5" x2="159.1" y2="104.8" stroke="rgb(0,0,0)"  stroke-width="1.0"/>
<line x1="165.4" y1="103.6" x2="162.1" y2="107.9" stroke="rgb(0,0,0)"  stroke-width="1.0"/>
<line x1="169.2" y1="105.7" x2="165.1" y2="111.0" stroke="rgb(0,0,0)"  stroke-width="1.0"/>
<line x1="173.0" y1="107.8" x2="168.1" y2="114.1" stroke="rgb(0,0,0)"  stroke-width="1.0"/>
<line x1="114.6" y1="154.6" x2="114.6" y2="181.6" stroke="rgb(0,0,0)"  stroke-width="1.0"/>
<polygon points="80.000197 134.640465 53.200065 138.640465 53.200065 130.640465 " stroke-width="1.000000" fill="rgb(0,0,0)"  stroke="rgb(0,0,0)" />
<line x1="80.0" y1="134.6" x2="66.5" y2="158.0" stroke="rgb(0,0,0)"  stroke-width="1.0"/>
<line x1="76.6" y1="90.4" x2="78.0" y2="89.6" stroke="rgb(0,0,0)"  stroke-width="1.0"/>
<line x1="73.9" y1="87.0" x2="76.4" y2="85.6" stroke="rgb(0,0,0)"  stroke-width="1.0"/>
<line x1="71.2" y1="83.6" x2="74.8" y2="81.5" stroke="rgb(0,0,0)"  stroke-width="1.0"/>
<line x1="68.5" y1="80.2" x2="73.2" y2="77.5" stroke="rgb(0,0,0)"  stroke-width="1.0"/>
<line x1="65.8" y1="76.8" x2="71.7" y2="73.5" stroke="rgb(0,0,0)"  stroke-width="1.0"/>
<line x1="63.1" y1="73.4" x2="70.1" y2="69.4" stroke="rgb(0,0,0)"  stroke-width="1.0"/>
<line x1="80.0" y1="94.6" x2="53.0" y2="94.6" stroke="rgb(0,0,0)"  stroke-width="1.0"/>
<polygon points="114.640367 74.640170 124.576357 49.431212 131.504509 53.431300 " stroke-width="1.000000" fill="rgb(0,0,0)"  stroke="rgb(0,0,0)" />
<line x1="114.6" y1="74.6" x2="101.1" y2="51.3" stroke="rgb(0,0,0)"  stroke-width="1.0"/>
<line x1="149.3" y1="94.6" x2="149.3" y2="121.6" stroke="rgb(0,0,0)"  stroke-width="1.0"/>
<line x1="138.0" y1="141.1" x2="114.6" y2="154.6" stroke="rgb(0,0,0)"  stroke-width="1.0"/>
<line x1="114.6" y1="154.6" x2="80.0" y2="134.6" stroke="rgb(0,0,0)"  stroke-width="1.0"/>
<line x1="80.0" y1="134.6" x2="80.0" y2="94.6" stroke="rgb(0,0,0)"  stroke-width="1.0"/>
<line x1="80.0" y1="94.6" x2="114.6" y2="74.6" stroke="rgb(0,0,0)"  stroke-width="1.0"/>
<line x1="114.6" y1="74.6" x2="149.3" y2="94.6" stroke="rgb(0,0,0)"  stroke-width="1.0"/>
<text x="192.272778" y="53.652028" fill="rgb(255,12,12)"  stroke="rgb(255,12,12)" stroke-width="1" font-size="16" >OH</text>
<text x="175.016693" y="126.992388" fill="rgb(191,191,191)"  stroke="rgb(191,191,191)" stroke-width="1" font-size="16" >H</text>
<text x="143.280537" y="142.640465" fill="rgb(255,12,12)"  stroke="rgb(255,12,12)" stroke-width="1" font-size="16" >O</text>
<text x="108.640367" y="202.640760" fill="rgb(255,12,12)"  stroke="rgb(255,12,12)" stroke-width="1" font-size="16" >OH</text>
<text x="34.000000" y="142.640465" fill="rgb(191,191,191)"  stroke="rgb(191,191,191)" stroke-width="1" font-size="16" >H</text>
<text x="42.000098" y="177.280636" fill="rgb(255,12,12)"  stroke="rgb(255,12,12)" stroke-width="1" font-size="16" >HO</text>
<text x="54.000098" y="68.000098" fill="rgb(191,191,191)"  stroke="rgb(191,191,191)" stroke-width="1" font-size="16" >H</text>
<text x="22.000000" y="102.640269" fill="rgb(255,12,12)"  stroke="rgb(255,12,12)" stroke-width="1" font-size="16" >HO</text>
<text x="128.640465" y="48.000000" fill="rgb(191,191,191)"  stroke="rgb(191,191,191)" stroke-width="1" font-size="16" >H</text>
<text x="76.640269" y="48.000000" fill="rgb(255,12,12)"  stroke="rgb(255,12,12)" stroke-width="1" font-size="16" >HO</text>
<text font-size="18.000000" fill ="black" font-family="sans-serif"
x="10.000000" y="20.000000" >glucose</text>
<title>glucose - OBDepict</title>
</svg>
