<?xml version="1.0"?>
<svg xmlns="http://www.w3.org/2000/svg"
xmlns:xlink="http://www.w3.org/1999/xlink" xmlns:cml="http://www.xml-cml.org/schema" width="852.823" height="429.281" x="0" y="0" font-family="sans-serif" stroke="rgb(0,0,0)" stroke-width="1"  stroke-linecap="round">
<rect x="0%" y="0%" width="100%" height="100%" stroke-width="0" fill="rgb(255,255,255)"  />
<line x1="172.7" y1="61.1" x2="149.3" y2="74.6" stroke="rgb(0,0,0)"  stroke-width="1.0"/>
<line x1="149.3" y1="114.6" x2="183.9" y2="134.6" stroke="rgb(0,0,0)"  stroke-width="1.0"/>
<line x1="114.6" y1="134.6" x2="101.1" y2="158.0" stroke="rgb(0,0,0)"  stroke-width="1.0"/>
<line x1="114.6" y1="134.6" x2="128.1" y2="158.0" stroke="rgb(0,0,0)"  stroke-width="1.0"/>
<polygon points="80.000164 74.640142 63.136033 53.431291 70.064185 49.431203 " stroke-width="1.000000" fill="rgb(0,0,0)"  stroke="rgb(0,0,0)" />
<line x1="80.0" y1="74.6" x2="53.0" y2="74.6" stroke="rgb(0,0,0)"  stroke-width="1.0"/>
<line x1="186.9" y1="134.6" x2="186.9" y2="174.6" stroke="rgb(0,0,0)"  stroke-width="1.0"/>
<line x1="180.9" y1="134.6" x2="180.9" y2="174.6" stroke="rgb(0,0,0)"  stroke-width="1.0"/>
<line x1="183.9" y1="174.6" x2="218.6" y2="194.6" stroke="rgb(0,0,0)"  stroke-width="1.0"/>
<line x1="221.6" y1="194.6" x2="221.6" y2="234.6" stroke="rgb(0,0,0)"  stroke-width="1.0"/>
<line x1="215.6" y1="194.6" x2="215.6" y2="234.6" stroke="rgb(0,0,0)"  stroke-width="1.0"/>
<line x1="218.6" y1="194.6" x2="241.9" y2="181.1" stroke="rgb(0,0,0)"  stroke-width="1.0"/>
<line x1="218.6" y1="234.6" x2="253.2" y2="254.6" stroke="rgb(0,0,0)"  stroke-width="1.0"/>
<line x1="251.7" y1="252.0" x2="286.3" y2="232.0" stroke="rgb(0,0,0)"  stroke-width="1.0"/>
<line x1="254.7" y1="257.2" x2="289.3" y2="237.2" stroke="rgb(0,0,0)"  stroke-width="1.0"/>
<line x1="287.8" y1="234.6" x2="322.5" y2="254.6" stroke="rgb(0,0,0)"  stroke-width="1.0"/>
<line x1="325.5" y1="254.6" x2="325.5" y2="294.6" stroke="rgb(0,0,0)"  stroke-width="1.0"/>
<line x1="319.5" y1="254.6" x2="319.5" y2="294.6" stroke="rgb(0,0,0)"  stroke-width="1.0"/>
<line x1="322.5" y1="254.6" x2="345.9" y2="241.1" stroke="rgb(0,0,0)"  stroke-width="1.0"/>
<line x1="322.5" y1="294.6" x2="357.1" y2="314.6" stroke="rgb(0,0,0)"  stroke-width="1.0"/>
<line x1="355.6" y1="312.0" x2="390.3" y2="292.0" stroke="rgb(0,0,0)"  stroke-width="1.0"/>
<line x1="358.6" y1="317.2" x2="393.3" y2="297.2" stroke="rgb(0,0,0)"  stroke-width="1.0"/>
<line x1="391.8" y1="294.6" x2="426.4" y2="314.6" stroke="rgb(0,0,0)"  stroke-width="1.0"/>
<line x1="424.9" y1="312.0" x2="459.6" y2="292.0" stroke="rgb(0,0,0)"  stroke-width="1.0"/>
<line x1="427.9" y1="317.2" x2="462.6" y2="297.2" stroke="rgb(0,0,0)"  stroke-width="1.0"/>
<line x1="461.1" y1="294.6" x2="495.7" y2="314.6" stroke="rgb(0,0,0)"  stroke-width="1.0"/>
<line x1="461.1" y1="294.6" x2="461.1" y2="267.6" stroke="rgb(0,0,0)"  stroke-width="1.0"/>
<line x1="494.2" y1="312.0" x2="528.8" y2="292.0" stroke="rgb(0,0,0)"  stroke-width="1.0"/>
<line x1="497.2" y1="317.2" x2="531.8" y2="297.2" stroke="rgb(0,0,0)"  stroke-width="1.0"/>
<line x1="530.3" y1="294.6" x2="565.0" y2="314.6" stroke="rgb(0,0,0)"  stroke-width="1.0"/>
<line x1="563.5" y1="312.0" x2="598.1" y2="292.0" stroke="rgb(0,0,0)"  stroke-width="1.0"/>
<line x1="566.5" y1="317.2" x2="601.1" y2="297.2" stroke="rgb(0,0,0)"  stroke-width="1.0"/>
<line x1="599.6" y1="294.6" x2="634.3" y2="314.6" stroke="rgb(0,0,0)"  stroke-width="1.0"/>
<line x1="599.6" y1="294.6" x2="599.6" y2="267.6" stroke="rgb(0,0,0)"  stroke-width="1.0"/>
<line x1="632.8" y1="312.0" x2="667.4" y2="292.0" stroke="rgb(0,0,0)"  stroke-width="1.0"/>
<line x1="635.8" y1="317.2" x2="670.4" y2="297.2" stroke="rgb(0,0,0)"  stroke-width="1.0"/>
<line x1="668.9" y1="294.6" x2="703.5" y2="314.6" stroke="rgb(0,0,0)"  stroke-width="1.0"/>
<line x1="738.2" y1="294.6" x2="738.2" y2="267.6" stroke="rgb(0,0,0)"  stroke-width="1.0"/>
<line x1="776.2" y1="358.9" x2="774.8" y2="359.7" stroke="rgb(0,0,0)"  stroke-width="1.0"/>
<line x1="778.9" y1="362.3" x2="776.4" y2="363.7" stroke="rgb(0,0,0)"  stroke-width="1.0"/>
<line x1="781.6" y1="365.7" x2="778.0" y2="367.7" stroke="rgb(0,0,0)"  stroke-width="1.0"/>
<line x1="784.3" y1="369.1" x2="779.6" y2="371.8" stroke="rgb(0,0,0)"  stroke-width="1.0"/>
<line x1="787.0" y1="372.5" x2="781.2" y2="375.8" stroke="rgb(0,0,0)"  stroke-width="1.0"/>
<line x1="789.7" y1="375.9" x2="782.8" y2="379.9" stroke="rgb(0,0,0)"  stroke-width="1.0"/>
<line x1="772.8" y1="354.6" x2="799.8" y2="354.6" stroke="rgb(0,0,0)"  stroke-width="1.0"/>
<line x1="703.5" y1="354.6" x2="676.5" y2="354.6" stroke="rgb(0,0,0)"  stroke-width="1.0"/>
<line x1="703.5" y1="354.6" x2="690.0" y2="378.0" stroke="rgb(0,0,0)"  stroke-width="1.0"/>
<line x1="149.3" y1="74.6" x2="149.3" y2="114.6" stroke="rgb(0,0,0)"  stroke-width="1.0"/>
<line x1="142.1" y1="80.6" x2="142.1" y2="108.6" stroke="rgb(0,0,0)"  stroke-width="1.0"/>
<line x1="149.3" y1="114.6" x2="114.6" y2="134.6" stroke="rgb(0,0,0)"  stroke-width="1.0"/>
<line x1="114.6" y1="134.6" x2="80.0" y2="114.6" stroke="rgb(0,0,0)"  stroke-width="1.0"/>
<line x1="80.0" y1="114.6" x2="80.0" y2="74.6" stroke="rgb(0,0,0)"  stroke-width="1.0"/>
<line x1="80.0" y1="74.6" x2="114.6" y2="54.6" stroke="rgb(0,0,0)"  stroke-width="1.0"/>
<line x1="114.6" y1="54.6" x2="149.3" y2="74.6" stroke="rgb(0,0,0)"  stroke-width="1.0"/>
<line x1="703.5" y1="314.6" x2="738.2" y2="294.6" stroke="rgb(0,0,0)"  stroke-width="1.0"/>
<line x1="712.3" y1="317.9" x2="736.6" y2="303.9" stroke="rgb(0,0,0)"  stroke-width="1.0"/>
<line x1="738.2" y1="294.6" x2="772.8" y2="314.6" stroke="rgb(0,0,0)"  stroke-width="1.0"/>
<line x1="772.8" y1="314.6" x2="772.8" y2="354.6" stroke="rgb(0,0,0)"  stroke-width="1.0"/>
<line x1="772.8" y1="354.6" x2="738.2" y2="374.6" stroke="rgb(0,0,0)"  stroke-width="1.0"/>
<line x1="738.2" y1="374.6" x2="703.5" y2="354.6" stroke="rgb(0,0,0)"  stroke-width="1.0"/>
<line x1="703.5" y1="354.6" x2="703.5" y2="314.6" stroke="rgb(0,0,0)"  stroke-width="1.0"/>
<text x="179.924590" y="62.640060" fill="rgb(102,102,102)"  stroke="rgb(102,102,102)" stroke-width="1" font-size="16" >CH</text>
<text x="203.924590" y="66.320060" fill="rgb(102,102,102)"  stroke="rgb(102,102,102)" stroke-width="1" font-size="13" >3</text>
<text x="54.000082" y="48.000000" fill="rgb(191,191,191)"  stroke="rgb(191,191,191)" stroke-width="1" font-size="16" >H</text>
<text x="22.000000" y="82.640142" fill="rgb(255,12,12)"  stroke="rgb(255,12,12)" stroke-width="1" font-size="16" >HO</text>
<text x="68.640224" y="177.280530" fill="rgb(102,102,102)"  stroke="rgb(102,102,102)" stroke-width="1" font-size="16" >H</text>
<text x="80.640224" y="180.960530" fill="rgb(102,102,102)"  stroke="rgb(102,102,102)" stroke-width="1" font-size="13" >3</text>
<text x="87.140224" y="177.280530" fill="rgb(102,102,102)"  stroke="rgb(102,102,102)" stroke-width="1" font-size="16" >C</text>
<text x="130.640388" y="177.280530" fill="rgb(102,102,102)"  stroke="rgb(102,102,102)" stroke-width="1" font-size="16" >CH</text>
<text x="154.640388" y="180.960530" fill="rgb(102,102,102)"  stroke="rgb(102,102,102)" stroke-width="1" font-size="13" >3</text>
<text x="786.823085" y="397.281431" fill="rgb(191,191,191)"  stroke="rgb(191,191,191)" stroke-width="1" font-size="16" >H</text>
<text x="637.542555" y="362.641289" fill="rgb(102,102,102)"  stroke="rgb(102,102,102)" stroke-width="1" font-size="16" >H</text>
<text x="649.542555" y="366.321289" fill="rgb(102,102,102)"  stroke="rgb(102,102,102)" stroke-width="1" font-size="13" >3</text>
<text x="656.042555" y="362.641289" fill="rgb(102,102,102)"  stroke="rgb(102,102,102)" stroke-width="1" font-size="16" >C</text>
<text x="657.542637" y="397.281431" fill="rgb(102,102,102)"  stroke="rgb(102,102,102)" stroke-width="1" font-size="16" >H</text>
<text x="669.542637" y="400.961431" fill="rgb(102,102,102)"  stroke="rgb(102,102,102)" stroke-width="1" font-size="13" >3</text>
<text x="676.042637" y="397.281431" fill="rgb(102,102,102)"  stroke="rgb(102,102,102)" stroke-width="1" font-size="16" >C</text>
<text x="806.823167" y="362.641289" fill="rgb(255,12,12)"  stroke="rgb(255,12,12)" stroke-width="1" font-size="16" >OH</text>
<text x="734.182861" y="262.640879" fill="rgb(102,102,102)"  stroke="rgb(102,102,102)" stroke-width="1" font-size="16" >CH</text>
<text x="758.182861" y="266.320879" fill="rgb(102,102,102)"  stroke="rgb(102,102,102)" stroke-width="1" font-size="13" >3</text>
<text x="595.618293" y="262.640879" fill="rgb(102,102,102)"  stroke="rgb(102,102,102)" stroke-width="1" font-size="16" >CH</text>
<text x="619.618293" y="266.320879" fill="rgb(102,102,102)"  stroke="rgb(102,102,102)" stroke-width="1" font-size="13" >3</text>
<text x="457.053725" y="262.640879" fill="rgb(102,102,102)"  stroke="rgb(102,102,102)" stroke-width="1" font-size="16" >CH</text>
<text x="481.053725" y="266.320879" fill="rgb(102,102,102)"  stroke="rgb(102,102,102)" stroke-width="1" font-size="13" >3</text>
<text x="353.129299" y="242.640798" fill="rgb(102,102,102)"  stroke="rgb(102,102,102)" stroke-width="1" font-size="16" >CH</text>
<text x="377.129299" y="246.320798" fill="rgb(102,102,102)"  stroke="rgb(102,102,102)" stroke-width="1" font-size="13" >3</text>
<text x="249.204874" y="182.640552" fill="rgb(102,102,102)"  stroke="rgb(102,102,102)" stroke-width="1" font-size="16" >CH</text>
<text x="273.204874" y="186.320552" fill="rgb(102,102,102)"  stroke="rgb(102,102,102)" stroke-width="1" font-size="13" >3</text>
<text font-size="18.000000" fill ="black" font-family="sans-serif"
x="10.000000" y="20.000000" >zeaxanthin</text>
<title>zeaxanthin - OBDepict</title>
</svg>
