<?xml version="1.0"?>
<svg xmlns="http://www.w3.org/2000/svg"
xmlns:xlink="http://www.w3.org/1999/xlink" xmlns:cml="http://www.xml-cml.org/schema" width="405.373" height="494.785" x="0" y="0" font-family="sans-serif" stroke="rgb(0,0,0)" stroke-width="1"  stroke-linecap="round">
<rect x="0%" y="0%" width="100%" height="100%" stroke-width="0" fill="rgb(255,255,255)"  />
<line x1="88.1" y1="51.3" x2="74.6" y2="74.6" stroke="rgb(0,0,0)"  stroke-width="1.0"/>
<polygon points="74.640060 74.640060 57.775960 53.431264 64.704113 49.431176 " stroke-width="1.000000" fill="rgb(0,0,0)"  stroke="rgb(0,0,0)" />
<line x1="110.8" y1="132.0" x2="145.4" y2="152.0" stroke="rgb(0,0,0)"  stroke-width="1.0"/>
<line x1="107.8" y1="137.2" x2="142.4" y2="157.2" stroke="rgb(0,0,0)"  stroke-width="1.0"/>
<line x1="77.6" y1="154.6" x2="77.6" y2="181.6" stroke="rgb(0,0,0)"  stroke-width="1.0"/>
<line x1="71.6" y1="154.6" x2="71.6" y2="181.6" stroke="rgb(0,0,0)"  stroke-width="1.0"/>
<line x1="143.9" y1="154.6" x2="143.9" y2="194.6" stroke="rgb(0,0,0)"  stroke-width="1.0"/>
<line x1="145.4" y1="192.0" x2="180.1" y2="212.0" stroke="rgb(0,0,0)"  stroke-width="1.0"/>
<line x1="142.4" y1="197.2" x2="177.1" y2="217.2" stroke="rgb(0,0,0)"  stroke-width="1.0"/>
<polygon points="213.204299 274.640405 240.275351 273.465633 239.438539 281.421746 " stroke-width="1.000000" fill="rgb(0,0,0)"  stroke="rgb(0,0,0)" />
<line x1="174.8" y1="250.8" x2="176.1" y2="249.8" stroke="rgb(0,0,0)"  stroke-width="1.0"/>
<line x1="171.7" y1="247.7" x2="174.1" y2="246.0" stroke="rgb(0,0,0)"  stroke-width="1.0"/>
<line x1="168.7" y1="244.6" x2="172.1" y2="242.1" stroke="rgb(0,0,0)"  stroke-width="1.0"/>
<line x1="165.7" y1="241.5" x2="170.1" y2="238.3" stroke="rgb(0,0,0)"  stroke-width="1.0"/>
<line x1="162.6" y1="238.4" x2="168.0" y2="234.5" stroke="rgb(0,0,0)"  stroke-width="1.0"/>
<line x1="159.6" y1="235.3" x2="166.0" y2="230.6" stroke="rgb(0,0,0)"  stroke-width="1.0"/>
<line x1="210.2" y1="314.7" x2="209.7" y2="316.2" stroke="rgb(0,0,0)"  stroke-width="1.0"/>
<line x1="214.5" y1="315.4" x2="213.6" y2="318.1" stroke="rgb(0,0,0)"  stroke-width="1.0"/>
<line x1="218.8" y1="316.1" x2="217.5" y2="320.1" stroke="rgb(0,0,0)"  stroke-width="1.0"/>
<line x1="223.1" y1="316.8" x2="221.4" y2="322.0" stroke="rgb(0,0,0)"  stroke-width="1.0"/>
<line x1="227.3" y1="317.5" x2="225.3" y2="323.9" stroke="rgb(0,0,0)"  stroke-width="1.0"/>
<line x1="231.6" y1="318.2" x2="229.1" y2="325.9" stroke="rgb(0,0,0)"  stroke-width="1.0"/>
<line x1="204.9" y1="313.8" x2="213.2" y2="352.9" stroke="rgb(0,0,0)"  stroke-width="1.0"/>
<line x1="212.3" y1="358.2" x2="210.8" y2="357.7" stroke="rgb(0,0,0)"  stroke-width="1.0"/>
<line x1="211.6" y1="362.5" x2="208.9" y2="361.6" stroke="rgb(0,0,0)"  stroke-width="1.0"/>
<line x1="210.9" y1="366.8" x2="206.9" y2="365.5" stroke="rgb(0,0,0)"  stroke-width="1.0"/>
<line x1="210.2" y1="371.1" x2="205.0" y2="369.4" stroke="rgb(0,0,0)"  stroke-width="1.0"/>
<line x1="209.4" y1="375.3" x2="203.1" y2="373.3" stroke="rgb(0,0,0)"  stroke-width="1.0"/>
<line x1="208.7" y1="379.6" x2="201.1" y2="377.1" stroke="rgb(0,0,0)"  stroke-width="1.0"/>
<line x1="213.2" y1="352.9" x2="251.2" y2="365.3" stroke="rgb(0,0,0)"  stroke-width="1.0"/>
<line x1="213.2" y1="352.9" x2="186.8" y2="358.5" stroke="rgb(0,0,0)"  stroke-width="1.0"/>
<line x1="254.2" y1="364.6" x2="262.5" y2="403.8" stroke="rgb(0,0,0)"  stroke-width="1.0"/>
<line x1="248.3" y1="365.9" x2="256.6" y2="405.0" stroke="rgb(0,0,0)"  stroke-width="1.0"/>
<line x1="259.6" y1="404.4" x2="297.6" y2="416.7" stroke="rgb(0,0,0)"  stroke-width="1.0"/>
<line x1="301.8" y1="420.2" x2="300.6" y2="421.3" stroke="rgb(0,0,0)"  stroke-width="1.0"/>
<line x1="305.1" y1="422.9" x2="303.0" y2="424.9" stroke="rgb(0,0,0)"  stroke-width="1.0"/>
<line x1="308.5" y1="425.7" x2="305.4" y2="428.5" stroke="rgb(0,0,0)"  stroke-width="1.0"/>
<line x1="311.8" y1="428.5" x2="307.8" y2="432.1" stroke="rgb(0,0,0)"  stroke-width="1.0"/>
<line x1="315.2" y1="431.2" x2="310.2" y2="435.7" stroke="rgb(0,0,0)"  stroke-width="1.0"/>
<line x1="318.5" y1="434.0" x2="312.6" y2="439.3" stroke="rgb(0,0,0)"  stroke-width="1.0"/>
<line x1="297.6" y1="416.7" x2="289.3" y2="442.4" stroke="rgb(0,0,0)"  stroke-width="1.0"/>
<line x1="297.6" y1="416.7" x2="327.3" y2="390.0" stroke="rgb(0,0,0)"  stroke-width="1.0"/>
<line x1="327.3" y1="390.0" x2="321.7" y2="363.6" stroke="rgb(0,0,0)"  stroke-width="1.0"/>
<line x1="327.3" y1="390.0" x2="353.0" y2="398.3" stroke="rgb(0,0,0)"  stroke-width="1.0"/>
<line x1="165.1" y1="317.9" x2="148.8" y2="281.4" stroke="rgb(0,0,0)"  stroke-width="1.0"/>
<line x1="148.8" y1="281.4" x2="178.6" y2="254.6" stroke="rgb(0,0,0)"  stroke-width="1.0"/>
<line x1="178.6" y1="254.6" x2="213.2" y2="274.6" stroke="rgb(0,0,0)"  stroke-width="1.0"/>
<line x1="213.2" y1="274.6" x2="204.9" y2="313.8" stroke="rgb(0,0,0)"  stroke-width="1.0"/>
<line x1="204.9" y1="313.8" x2="165.1" y2="317.9" stroke="rgb(0,0,0)"  stroke-width="1.0"/>
<line x1="74.6" y1="74.6" x2="109.3" y2="94.6" stroke="rgb(0,0,0)"  stroke-width="1.0"/>
<line x1="109.3" y1="94.6" x2="109.3" y2="134.6" stroke="rgb(0,0,0)"  stroke-width="1.0"/>
<line x1="109.3" y1="134.6" x2="74.6" y2="154.6" stroke="rgb(0,0,0)"  stroke-width="1.0"/>
<line x1="74.6" y1="154.6" x2="40.0" y2="134.6" stroke="rgb(0,0,0)"  stroke-width="1.0"/>
<line x1="40.0" y1="134.6" x2="40.0" y2="94.6" stroke="rgb(0,0,0)"  stroke-width="1.0"/>
<line x1="40.0" y1="94.6" x2="74.6" y2="74.6" stroke="rgb(0,0,0)"  stroke-width="1.0"/>
<line x1="178.6" y1="214.6" x2="213.2" y2="194.6" stroke="rgb(0,0,0)"  stroke-width="1.0"/>
<line x1="213.2" y1="194.6" x2="247.8" y2="214.6" stroke="rgb(0,0,0)"  stroke-width="1.0"/>
<line x1="247.8" y1="214.6" x2="247.8" y2="254.6" stroke="rgb(0,0,0)"  stroke-width="1.0"/>
<line x1="247.8" y1="254.6" x2="213.2" y2="274.6" stroke="rgb(0,0,0)"  stroke-width="1.0"/>
<line x1="178.6" y1="254.6" x2="178.6" y2="214.6" stroke="rgb(0,0,0)"  stroke-width="1.0"/>
<text x="88.640094" y="48.000000" fill="rgb(255,12,12)"  stroke="rgb(255,12,12)" stroke-width="1" font-size="16" >OH</text>
<text x="48.640025" y="48.000000" fill="rgb(191,191,191)"  stroke="rgb(191,191,191)" stroke-width="1" font-size="16" >H</text>
<text x="70.640060" y="202.640267" fill="rgb(102,102,102)"  stroke="rgb(102,102,102)" stroke-width="1" font-size="16" >CH</text>
<text x="94.640060" y="206.320267" fill="rgb(102,102,102)"  stroke="rgb(102,102,102)" stroke-width="1" font-size="13" >2</text>
<text x="149.052198" y="230.280314" fill="rgb(191,191,191)"  stroke="rgb(191,191,191)" stroke-width="1" font-size="16" >H</text>
<text x="236.928350" y="334.128493" fill="rgb(191,191,191)"  stroke="rgb(191,191,191)" stroke-width="1" font-size="16" >H</text>
<text x="194.844277" y="398.936605" fill="rgb(191,191,191)"  stroke="rgb(191,191,191)" stroke-width="1" font-size="16" >H</text>
<text x="318.372490" y="454.468701" fill="rgb(191,191,191)"  stroke="rgb(191,191,191)" stroke-width="1" font-size="16" >H</text>
<text x="259.244423" y="462.784715" fill="rgb(102,102,102)"  stroke="rgb(102,102,102)" stroke-width="1" font-size="16" >H</text>
<text x="271.244423" y="466.464715" fill="rgb(102,102,102)"  stroke="rgb(102,102,102)" stroke-width="1" font-size="13" >3</text>
<text x="277.744423" y="462.784715" fill="rgb(102,102,102)"  stroke="rgb(102,102,102)" stroke-width="1" font-size="16" >C</text>
<text x="293.016481" y="358.848536" fill="rgb(102,102,102)"  stroke="rgb(102,102,102)" stroke-width="1" font-size="16" >H</text>
<text x="305.016481" y="362.528536" fill="rgb(102,102,102)"  stroke="rgb(102,102,102)" stroke-width="1" font-size="13" >3</text>
<text x="311.516481" y="358.848536" fill="rgb(102,102,102)"  stroke="rgb(102,102,102)" stroke-width="1" font-size="16" >C</text>
<text x="361.372561" y="410.336625" fill="rgb(102,102,102)"  stroke="rgb(102,102,102)" stroke-width="1" font-size="16" >CH</text>
<text x="385.372561" y="414.016625" fill="rgb(102,102,102)"  stroke="rgb(102,102,102)" stroke-width="1" font-size="13" >3</text>
<text x="148.080231" y="369.208554" fill="rgb(102,102,102)"  stroke="rgb(102,102,102)" stroke-width="1" font-size="16" >H</text>
<text x="160.080231" y="372.888554" fill="rgb(102,102,102)"  stroke="rgb(102,102,102)" stroke-width="1" font-size="13" >3</text>
<text x="166.580231" y="369.208554" fill="rgb(102,102,102)"  stroke="rgb(102,102,102)" stroke-width="1" font-size="16" >C</text>
<text x="248.984367" y="286.824412" fill="rgb(102,102,102)"  stroke="rgb(102,102,102)" stroke-width="1" font-size="16" >CH</text>
<text x="272.984367" y="290.504412" fill="rgb(102,102,102)"  stroke="rgb(102,102,102)" stroke-width="1" font-size="13" >3</text>
<text font-size="18.000000" fill ="black" font-family="sans-serif"
x="10.000000" y="20.000000" >vitamin D2</text>
<title>vitamin D2 - OBDepict</title>
</svg>
