<?xml version="1.0"?>
<svg version="1.1" id="topsvg"
xmlns="http://www.w3.org/2000/svg" xmlns:xlink="http://www.w3.org/1999/xlink"
xmlns:cml="http://www.xml-cml.org/schema" x="0" y="0" width="100%" height="100%" viewBox="0 0 100 66">
<title>OBDepict</title>
<rect x="0" y="0" width="100" height="66" fill="white"/>
<text text-anchor="middle" font-size="2" fill ="black" font-family="sans-serif"
x="16.6667" y="32.3333" >adenine</text>
<g transform="translate(0,0)">
<svg width="33.3333" height="33.3333" x="0" y="0" viewBox="0 0 210.836 200"
font-family="sans-serif" stroke="rgb(0,0,0)" stroke-width="2"  stroke-linecap="round">
<line x1="74.6" y1="120.0" x2="74.6" y2="147.0" stroke="rgb(0,0,0)"  stroke-width="2.0"/>
<line x1="155.0" y1="58.2" x2="170.8" y2="80.0" stroke="rgb(0,0,0)"  stroke-width="2.0"/>
<line x1="170.8" y1="80.0" x2="155.1" y2="101.7" stroke="rgb(0,0,0)"  stroke-width="2.0"/>
<line x1="161.5" y1="80.6" x2="150.4" y2="95.8" stroke="rgb(0,0,0)"  stroke-width="2.0"/>
<line x1="135.0" y1="108.3" x2="109.3" y2="100.0" stroke="rgb(0,0,0)"  stroke-width="2.0"/>
<line x1="109.3" y1="100.0" x2="109.3" y2="60.0" stroke="rgb(0,0,0)"  stroke-width="2.0"/>
<line x1="116.5" y1="94.0" x2="116.5" y2="66.0" stroke="rgb(0,0,0)"  stroke-width="2.0"/>
<line x1="109.3" y1="60.0" x2="135.0" y2="51.7" stroke="rgb(0,0,0)"  stroke-width="2.0"/>
<line x1="51.4" y1="106.6" x2="74.6" y2="120.0" stroke="rgb(0,0,0)"  stroke-width="2.0"/>
<line x1="56.8" y1="101.4" x2="73.0" y2="110.8" stroke="rgb(0,0,0)"  stroke-width="2.0"/>
<line x1="74.6" y1="120.0" x2="109.3" y2="100.0" stroke="rgb(0,0,0)"  stroke-width="2.0"/>
<line x1="109.3" y1="60.0" x2="85.9" y2="46.5" stroke="rgb(0,0,0)"  stroke-width="2.0"/>
<line x1="63.2" y1="46.6" x2="40.0" y2="60.0" stroke="rgb(0,0,0)"  stroke-width="2.0"/>
<line x1="65.1" y1="53.8" x2="48.8" y2="63.2" stroke="rgb(0,0,0)"  stroke-width="2.0"/>
<line x1="40.0" y1="60.0" x2="40.0" y2="87.0" stroke="rgb(0,0,0)"  stroke-width="2.0"/>
<text x="34.000000" y="108.000142" fill="rgb(12,12,255)"  stroke="rgb(12,12,255)" stroke-width="1" font-size="16" >N</text>
<text x="68.640082" y="48.000000" fill="rgb(12,12,255)"  stroke="rgb(12,12,255)" stroke-width="1" font-size="16" >N</text>
<text x="141.324253" y="55.640018" fill="rgb(12,12,255)"  stroke="rgb(12,12,255)" stroke-width="1" font-size="16" >N</text>
<text x="141.324253" y="39.640018" fill="rgb(12,12,255)"  stroke="rgb(12,12,255)" stroke-width="1" font-size="16" >H</text>
<text x="141.324253" y="120.360171" fill="rgb(12,12,255)"  stroke="rgb(12,12,255)" stroke-width="1" font-size="16" >N</text>
<text x="70.640082" y="168.000283" fill="rgb(12,12,255)"  stroke="rgb(12,12,255)" stroke-width="1" font-size="16" >NH</text>
<text x="94.640082" y="171.680283" fill="rgb(12,12,255)"  stroke="rgb(12,12,255)" stroke-width="1" font-size="13" >2</text>
</svg>
</g>
<text text-anchor="middle" font-size="2.000000" fill ="black" font-family="sans-serif"
x="50.000000" y="32.333333" >guanine</text>
<g transform="translate(33.333333,0.000000)">
<svg width="33.333333" height="33.333333" x="0" y="0" viewBox="0 0 245.478353 230.402503"
font-family="sans-serif" stroke="rgb(0,0,0)" stroke-width="2.000000"  stroke-linecap="round">
<line x1="59.5" y1="65.7" x2="55.2" y2="52.4" stroke="rgb(0,0,0)"  stroke-width="2.0"/>
<line x1="139.2" y1="150.4" x2="139.2" y2="177.4" stroke="rgb(0,0,0)"  stroke-width="2.0"/>
<line x1="133.2" y1="150.4" x2="133.2" y2="177.4" stroke="rgb(0,0,0)"  stroke-width="2.0"/>
<line x1="182.1" y1="136.9" x2="194.2" y2="143.9" stroke="rgb(0,0,0)"  stroke-width="2.0"/>
<line x1="170.8" y1="90.4" x2="194.2" y2="76.9" stroke="rgb(0,0,0)"  stroke-width="2.0"/>
<line x1="40.0" y1="110.4" x2="55.9" y2="88.6" stroke="rgb(0,0,0)"  stroke-width="2.0"/>
<line x1="75.9" y1="82.1" x2="101.6" y2="90.4" stroke="rgb(0,0,0)"  stroke-width="2.0"/>
<line x1="101.6" y1="90.4" x2="101.6" y2="130.4" stroke="rgb(0,0,0)"  stroke-width="2.0"/>
<line x1="94.4" y1="96.4" x2="94.4" y2="124.4" stroke="rgb(0,0,0)"  stroke-width="2.0"/>
<line x1="101.6" y1="130.4" x2="75.9" y2="138.7" stroke="rgb(0,0,0)"  stroke-width="2.0"/>
<line x1="55.8" y1="132.1" x2="40.0" y2="110.4" stroke="rgb(0,0,0)"  stroke-width="2.0"/>
<line x1="60.4" y1="126.2" x2="49.4" y2="111.0" stroke="rgb(0,0,0)"  stroke-width="2.0"/>
<line x1="136.2" y1="150.4" x2="159.6" y2="136.9" stroke="rgb(0,0,0)"  stroke-width="2.0"/>
<line x1="170.8" y1="117.4" x2="170.8" y2="90.4" stroke="rgb(0,0,0)"  stroke-width="2.0"/>
<line x1="170.8" y1="90.4" x2="147.6" y2="77.0" stroke="rgb(0,0,0)"  stroke-width="2.0"/>
<line x1="162.0" y1="93.6" x2="145.8" y2="84.2" stroke="rgb(0,0,0)"  stroke-width="2.0"/>
<line x1="124.9" y1="76.9" x2="101.6" y2="90.4" stroke="rgb(0,0,0)"  stroke-width="2.0"/>
<line x1="101.6" y1="130.4" x2="136.2" y2="150.4" stroke="rgb(0,0,0)"  stroke-width="2.0"/>
<text x="57.511766" y="86.043621" fill="rgb(12,12,255)"  stroke="rgb(12,12,255)" stroke-width="1" font-size="16" >N</text>
<text x="45.151889" y="48.000000" fill="rgb(191,191,191)"  stroke="rgb(191,191,191)" stroke-width="1" font-size="16" >H</text>
<text x="57.511766" y="150.762977" fill="rgb(12,12,255)"  stroke="rgb(12,12,255)" stroke-width="1" font-size="16" >N</text>
<text x="130.195042" y="198.402503" fill="rgb(255,12,12)"  stroke="rgb(255,12,12)" stroke-width="1" font-size="16" >O</text>
<text x="164.834698" y="138.403100" fill="rgb(12,12,255)"  stroke="rgb(12,12,255)" stroke-width="1" font-size="16" >N</text>
<text x="199.478353" y="158.402901" fill="rgb(191,191,191)"  stroke="rgb(191,191,191)" stroke-width="1" font-size="16" >H</text>
<text x="130.195042" y="78.403697" fill="rgb(12,12,255)"  stroke="rgb(12,12,255)" stroke-width="1" font-size="16" >N</text>
<text x="201.478353" y="78.403697" fill="rgb(12,12,255)"  stroke="rgb(12,12,255)" stroke-width="1" font-size="16" >NH</text>
<text x="225.478353" y="82.083697" fill="rgb(12,12,255)"  stroke="rgb(12,12,255)" stroke-width="1" font-size="13" >2</text>
</svg>
</g>
<text text-anchor="middle" font-size="2.000000" fill ="black" font-family="sans-serif"
x="83.333333" y="32.333333" >cytosine</text>
<g transform="translate(66.666667,0.000000)">
<svg width="33.333333" height="33.333333" x="0" y="0" viewBox="0 0 183.923524 199.999451"
font-family="sans-serif" stroke="rgb(0,0,0)" stroke-width="2.000000"  stroke-linecap="round">
<line x1="76.1" y1="142.6" x2="52.8" y2="156.1" stroke="rgb(0,0,0)"  stroke-width="2.0"/>
<line x1="73.1" y1="137.4" x2="49.8" y2="150.9" stroke="rgb(0,0,0)"  stroke-width="2.0"/>
<line x1="63.4" y1="93.5" x2="51.3" y2="86.5" stroke="rgb(0,0,0)"  stroke-width="2.0"/>
<line x1="109.3" y1="80.0" x2="109.3" y2="53.0" stroke="rgb(0,0,0)"  stroke-width="2.0"/>
<line x1="143.9" y1="100.0" x2="143.9" y2="140.0" stroke="rgb(0,0,0)"  stroke-width="2.0"/>
<line x1="143.9" y1="140.0" x2="120.7" y2="153.4" stroke="rgb(0,0,0)"  stroke-width="2.0"/>
<line x1="135.1" y1="136.8" x2="118.8" y2="146.2" stroke="rgb(0,0,0)"  stroke-width="2.0"/>
<line x1="98.0" y1="153.5" x2="74.6" y2="140.0" stroke="rgb(0,0,0)"  stroke-width="2.0"/>
<line x1="74.6" y1="140.0" x2="74.6" y2="113.0" stroke="rgb(0,0,0)"  stroke-width="2.0"/>
<line x1="85.9" y1="93.5" x2="109.3" y2="80.0" stroke="rgb(0,0,0)"  stroke-width="2.0"/>
<line x1="109.3" y1="80.0" x2="143.9" y2="100.0" stroke="rgb(0,0,0)"  stroke-width="2.0"/>
<line x1="110.9" y1="89.2" x2="135.1" y2="103.2" stroke="rgb(0,0,0)"  stroke-width="2.0"/>
<text x="103.283683" y="167.999451" fill="rgb(12,12,255)"  stroke="rgb(12,12,255)" stroke-width="1" font-size="16" >N</text>
<text x="34.000000" y="167.999451" fill="rgb(255,12,12)"  stroke="rgb(255,12,12)" stroke-width="1" font-size="16" >O</text>
<text x="68.643841" y="107.999725" fill="rgb(12,12,255)"  stroke="rgb(12,12,255)" stroke-width="1" font-size="16" >N</text>
<text x="34.000000" y="87.999817" fill="rgb(191,191,191)"  stroke="rgb(191,191,191)" stroke-width="1" font-size="16" >H</text>
<text x="105.283683" y="48.000000" fill="rgb(12,12,255)"  stroke="rgb(12,12,255)" stroke-width="1" font-size="16" >NH</text>
<text x="129.283683" y="51.680000" fill="rgb(12,12,255)"  stroke="rgb(12,12,255)" stroke-width="1" font-size="13" >2</text>
</svg>
</g>
<text text-anchor="middle" font-size="2.000000" fill ="black" font-family="sans-serif"
x="16.666667" y="65.666667" >thymine</text>
<g transform="translate(0.000000,33.333333)">
<svg width="33.333333" height="33.333333" x="0" y="0" viewBox="0 0 218.563758 239.999721"
font-family="sans-serif" stroke="rgb(0,0,0)" stroke-width="2.000000"  stroke-linecap="round">
<line x1="109.3" y1="187.0" x2="109.3" y2="160.0" stroke="rgb(0,0,0)"  stroke-width="2.0"/>
<line x1="63.4" y1="93.5" x2="51.3" y2="86.5" stroke="rgb(0,0,0)"  stroke-width="2.0"/>
<line x1="106.3" y1="80.0" x2="106.3" y2="53.0" stroke="rgb(0,0,0)"  stroke-width="2.0"/>
<line x1="112.3" y1="80.0" x2="112.3" y2="53.0" stroke="rgb(0,0,0)"  stroke-width="2.0"/>
<line x1="155.2" y1="93.5" x2="167.3" y2="86.5" stroke="rgb(0,0,0)"  stroke-width="2.0"/>
<line x1="145.4" y1="137.4" x2="168.8" y2="150.9" stroke="rgb(0,0,0)"  stroke-width="2.0"/>
<line x1="142.4" y1="142.6" x2="165.8" y2="156.1" stroke="rgb(0,0,0)"  stroke-width="2.0"/>
<line x1="109.3" y1="160.0" x2="74.6" y2="140.0" stroke="rgb(0,0,0)"  stroke-width="2.0"/>
<line x1="107.7" y1="150.8" x2="83.4" y2="136.8" stroke="rgb(0,0,0)"  stroke-width="2.0"/>
<line x1="74.6" y1="140.0" x2="74.6" y2="113.0" stroke="rgb(0,0,0)"  stroke-width="2.0"/>
<line x1="85.9" y1="93.5" x2="109.3" y2="80.0" stroke="rgb(0,0,0)"  stroke-width="2.0"/>
<line x1="109.3" y1="80.0" x2="132.7" y2="93.5" stroke="rgb(0,0,0)"  stroke-width="2.0"/>
<line x1="143.9" y1="113.0" x2="143.9" y2="140.0" stroke="rgb(0,0,0)"  stroke-width="2.0"/>
<line x1="143.9" y1="140.0" x2="109.3" y2="160.0" stroke="rgb(0,0,0)"  stroke-width="2.0"/>
<text x="105.283879" y="207.999721" fill="rgb(102,102,102)"  stroke="rgb(102,102,102)" stroke-width="1" font-size="16" >CH</text>
<text x="129.283879" y="211.679721" fill="rgb(102,102,102)"  stroke="rgb(102,102,102)" stroke-width="1" font-size="13" >3</text>
<text x="68.639940" y="107.999895" fill="rgb(12,12,255)"  stroke="rgb(12,12,255)" stroke-width="1" font-size="16" >N</text>
<text x="34.000000" y="87.999930" fill="rgb(191,191,191)"  stroke="rgb(191,191,191)" stroke-width="1" font-size="16" >H</text>
<text x="103.283879" y="48.000000" fill="rgb(255,12,12)"  stroke="rgb(255,12,12)" stroke-width="1" font-size="16" >O</text>
<text x="137.923819" y="107.999895" fill="rgb(12,12,255)"  stroke="rgb(12,12,255)" stroke-width="1" font-size="16" >N</text>
<text x="172.563758" y="87.999930" fill="rgb(191,191,191)"  stroke="rgb(191,191,191)" stroke-width="1" font-size="16" >H</text>
<text x="172.563758" y="167.999790" fill="rgb(255,12,12)"  stroke="rgb(255,12,12)" stroke-width="1" font-size="16" >O</text>
</svg>
</g>
<text text-anchor="middle" font-size="2.000000" fill ="black" font-family="sans-serif"
x="50.000000" y="65.666667" >uracil</text>
<g transform="translate(33.333333,33.333333)">
<svg width="33.333333" height="33.333333" x="0" y="0" viewBox="0 0 183.923179 199.999052"
font-family="sans-serif" stroke="rgb(0,0,0)" stroke-width="2.000000"  stroke-linecap="round">
<line x1="71.6" y1="147.0" x2="71.6" y2="120.0" stroke="rgb(0,0,0)"  stroke-width="2.0"/>
<line x1="77.6" y1="147.0" x2="77.6" y2="120.0" stroke="rgb(0,0,0)"  stroke-width="2.0"/>
<line x1="107.8" y1="57.4" x2="131.2" y2="43.9" stroke="rgb(0,0,0)"  stroke-width="2.0"/>
<line x1="110.8" y1="62.6" x2="134.2" y2="49.1" stroke="rgb(0,0,0)"  stroke-width="2.0"/>
<line x1="74.6" y1="120.0" x2="51.3" y2="106.5" stroke="rgb(0,0,0)"  stroke-width="2.0"/>
<line x1="40.0" y1="87.0" x2="40.0" y2="60.0" stroke="rgb(0,0,0)"  stroke-width="2.0"/>
<line x1="40.0" y1="60.0" x2="74.6" y2="40.0" stroke="rgb(0,0,0)"  stroke-width="2.0"/>
<line x1="48.8" y1="63.2" x2="73.0" y2="49.2" stroke="rgb(0,0,0)"  stroke-width="2.0"/>
<line x1="74.6" y1="40.0" x2="109.3" y2="60.0" stroke="rgb(0,0,0)"  stroke-width="2.0"/>
<line x1="109.3" y1="60.0" x2="109.3" y2="87.0" stroke="rgb(0,0,0)"  stroke-width="2.0"/>
<line x1="98.0" y1="106.5" x2="74.6" y2="120.0" stroke="rgb(0,0,0)"  stroke-width="2.0"/>
<text x="68.643726" y="167.999052" fill="rgb(255,12,12)"  stroke="rgb(255,12,12)" stroke-width="1" font-size="16" >O</text>
<text x="22.000000" y="107.999526" fill="rgb(12,12,255)"  stroke="rgb(12,12,255)" stroke-width="1" font-size="16" >HN</text>
<text x="137.923179" y="48.000000" fill="rgb(255,12,12)"  stroke="rgb(255,12,12)" stroke-width="1" font-size="16" >O</text>
<text x="103.283453" y="107.999526" fill="rgb(12,12,255)"  stroke="rgb(12,12,255)" stroke-width="1" font-size="16" >NH</text>
</svg>
</g>
<script type="text/ecmascript">
  <![CDATA[
    var svgEl = document.getElementById("topsvg");
    svgEl.addEventListener('DOMMouseScroll', wheel, false);
    svgEl.addEventListener('mousewheel', wheel, false);
    var startx=0;
    var starty=0;
    function wheel(evt){
      evt = evt ? evt : window.event;
      var normal = evt.detail ? evt.detail * -1 : evt.wheelDelta / 40;
      var vb = new Array(4);
      var vbtext = svgEl.getAttributeNS(null,"viewBox");
      vb = vbtext.split(" ");
      var zoom = (normal<0)? 1.41 : 0.71;
      //var dwidth = parseFloat(Math.max(vb[2],vb[3])) * (1-zoom);
      vb[0] = parseFloat(vb[0]) + parseFloat(vb[2])*(1-zoom) * evt.clientX/innerWidth;
      vb[1] = parseFloat(vb[1]) + parseFloat(vb[3])*(1-zoom) * evt.clientY/innerHeight;
      vb[2] = parseFloat(vb[2]) * zoom;
      vb[3] = parseFloat(vb[3]) * zoom;
      svgEl.setAttributeNS(null, "viewBox", vb.join(" "));
      if (evt.preventDefault)
        evt.preventDefault(); // Don't scroll the page when zooming
    }
   svgEl.onmousedown = function(evt) {
      startx = evt.clientX;
      starty = evt.clientY;
    }
    svgEl.onmousemove=function(evt) {
      if(startx!=0 && starty!=0 
        && ((evt.clientX - startx)*(evt.clientX - startx)+(evt.clientY - starty)*(evt.clientY - starty)>100))
      {
        var vbtext = svgEl.getAttributeNS(null,"viewBox");
        vb = vbtext.split(" ");
        var maxwh = Math.max(parseFloat(vb[2]),parseFloat(vb[3]));
        vb[0] = parseFloat(vb[0]) - (evt.clientX - startx)*maxwh/innerWidth;
        vb[1] = parseFloat(vb[1]) - (evt.clientY - starty)*maxwh/innerHeight;
        svgEl.setAttributeNS(null, "viewBox", vb.join(" "));
        startx = evt.clientX;
        starty = evt.clientY;
      }
    } 
    svgEl.onmouseup=function() {
      startx=0;
      starty=0;
    }
    svgEl.ondblclick=function() {
      location.reload();
    }
  ]]>
</script>

</svg>

