<?xml version="1.0"?>
<svg xmlns="http://www.w3.org/2000/svg"
xmlns:xlink="http://www.w3.org/1999/xlink" xmlns:cml="http://www.xml-cml.org/schema" width="245.478" height="230.403" x="0" y="0" font-family="sans-serif" stroke="rgb(0,0,0)" stroke-width="1"  stroke-linecap="round">
<rect x="0%" y="0%" width="100%" height="100%" stroke-width="0" fill="rgb(255,255,255)"  />
<line x1="59.5" y1="65.7" x2="55.2" y2="52.4" stroke="rgb(0,0,0)"  stroke-width="1.0"/>
<line x1="139.2" y1="150.4" x2="139.2" y2="177.4" stroke="rgb(0,0,0)"  stroke-width="1.0"/>
<line x1="133.2" y1="150.4" x2="133.2" y2="177.4" stroke="rgb(0,0,0)"  stroke-width="1.0"/>
<line x1="182.1" y1="136.9" x2="194.2" y2="143.9" stroke="rgb(0,0,0)"  stroke-width="1.0"/>
<line x1="170.8" y1="90.4" x2="194.2" y2="76.9" stroke="rgb(0,0,0)"  stroke-width="1.0"/>
<line x1="40.0" y1="110.4" x2="55.9" y2="88.6" stroke="rgb(0,0,0)"  stroke-width="1.0"/>
<line x1="75.9" y1="82.1" x2="101.6" y2="90.4" stroke="rgb(0,0,0)"  stroke-width="1.0"/>
<line x1="101.6" y1="90.4" x2="101.6" y2="130.4" stroke="rgb(0,0,0)"  stroke-width="1.0"/>
<line x1="94.4" y1="96.4" x2="94.4" y2="124.4" stroke="rgb(0,0,0)"  stroke-width="1.0"/>
<line x1="101.6" y1="130.4" x2="75.9" y2="138.7" stroke="rgb(0,0,0)"  stroke-width="1.0"/>
<line x1="55.8" y1="132.1" x2="40.0" y2="110.4" stroke="rgb(0,0,0)"  stroke-width="1.0"/>
<line x1="60.4" y1="126.2" x2="49.4" y2="111.0" stroke="rgb(0,0,0)"  stroke-width="1.0"/>
<line x1="136.2" y1="150.4" x2="159.6" y2="136.9" stroke="rgb(0,0,0)"  stroke-width="1.0"/>
<line x1="170.8" y1="117.4" x2="170.8" y2="90.4" stroke="rgb(0,0,0)"  stroke-width="1.0"/>
<line x1="170.8" y1="90.4" x2="147.6" y2="77.0" stroke="rgb(0,0,0)"  stroke-width="1.0"/>
<line x1="162.0" y1="93.6" x2="145.8" y2="84.2" stroke="rgb(0,0,0)"  stroke-width="1.0"/>
<line x1="124.9" y1="76.9" x2="101.6" y2="90.4" stroke="rgb(0,0,0)"  stroke-width="1.0"/>
<line x1="101.6" y1="130.4" x2="136.2" y2="150.4" stroke="rgb(0,0,0)"  stroke-width="1.0"/>
<text x="57.511766" y="86.043621" fill="rgb(12,12,255)"  stroke="rgb(12,12,255)" stroke-width="1" font-size="16" >N</text>
<text x="45.151889" y="48.000000" fill="rgb(191,191,191)"  stroke="rgb(191,191,191)" stroke-width="1" font-size="16" >H</text>
<text x="57.511766" y="150.762977" fill="rgb(12,12,255)"  stroke="rgb(12,12,255)" stroke-width="1" font-size="16" >N</text>
<text x="130.195042" y="198.402503" fill="rgb(255,12,12)"  stroke="rgb(255,12,12)" stroke-width="1" font-size="16" >O</text>
<text x="164.834698" y="138.403100" fill="rgb(12,12,255)"  stroke="rgb(12,12,255)" stroke-width="1" font-size="16" >N</text>
<text x="199.478353" y="158.402901" fill="rgb(191,191,191)"  stroke="rgb(191,191,191)" stroke-width="1" font-size="16" >H</text>
<text x="130.195042" y="78.403697" fill="rgb(12,12,255)"  stroke="rgb(12,12,255)" stroke-width="1" font-size="16" >N</text>
<text x="201.478353" y="78.403697" fill="rgb(12,12,255)"  stroke="rgb(12,12,255)" stroke-width="1" font-size="16" >NH</text>
<text x="225.478353" y="82.083697" fill="rgb(12,12,255)"  stroke="rgb(12,12,255)" stroke-width="1" font-size="13" >2</text>
<text font-size="18.000000" fill ="black" font-family="sans-serif"
x="10.000000" y="20.000000" >guanine</text>
<title>guanine - OBDepict</title>
</svg>
