<?xml version="1.0"?>
<svg xmlns="http://www.w3.org/2000/svg"
xmlns:xlink="http://www.w3.org/1999/xlink" xmlns:cml="http://www.xml-cml.org/schema" width="210.836" height="200" x="0" y="0" font-family="sans-serif" stroke="rgb(0,0,0)" stroke-width="1"  stroke-linecap="round">
<rect x="0%" y="0%" width="100%" height="100%" stroke-width="0" fill="rgb(255,255,255)"  />
<line x1="74.6" y1="120.0" x2="74.6" y2="147.0" stroke="rgb(0,0,0)"  stroke-width="1.0"/>
<line x1="155.0" y1="58.2" x2="170.8" y2="80.0" stroke="rgb(0,0,0)"  stroke-width="1.0"/>
<line x1="170.8" y1="80.0" x2="155.1" y2="101.7" stroke="rgb(0,0,0)"  stroke-width="1.0"/>
<line x1="161.5" y1="80.6" x2="150.4" y2="95.8" stroke="rgb(0,0,0)"  stroke-width="1.0"/>
<line x1="135.0" y1="108.3" x2="109.3" y2="100.0" stroke="rgb(0,0,0)"  stroke-width="1.0"/>
<line x1="109.3" y1="100.0" x2="109.3" y2="60.0" stroke="rgb(0,0,0)"  stroke-width="1.0"/>
<line x1="116.5" y1="94.0" x2="116.5" y2="66.0" stroke="rgb(0,0,0)"  stroke-width="1.0"/>
<line x1="109.3" y1="60.0" x2="135.0" y2="51.7" stroke="rgb(0,0,0)"  stroke-width="1.0"/>
<line x1="51.4" y1="106.6" x2="74.6" y2="120.0" stroke="rgb(0,0,0)"  stroke-width="1.0"/>
<line x1="56.8" y1="101.4" x2="73.0" y2="110.8" stroke="rgb(0,0,0)"  stroke-width="1.0"/>
<line x1="74.6" y1="120.0" x2="109.3" y2="100.0" stroke="rgb(0,0,0)"  stroke-width="1.0"/>
<line x1="109.3" y1="60.0" x2="85.9" y2="46.5" stroke="rgb(0,0,0)"  stroke-width="1.0"/>
<line x1="63.2" y1="46.6" x2="40.0" y2="60.0" stroke="rgb(0,0,0)"  stroke-width="1.0"/>
<line x1="65.1" y1="53.8" x2="48.8" y2="63.2" stroke="rgb(0,0,0)"  stroke-width="1.0"/>
<line x1="40.0" y1="60.0" x2="40.0" y2="87.0" stroke="rgb(0,0,0)"  stroke-width="1.0"/>
<text x="34.000000" y="108.000142" fill="rgb(12,12,255)"  stroke="rgb(12,12,255)" stroke-width="1" font-size="16" >N</text>
<text x="68.640082" y="48.000000" fill="rgb(12,12,255)"  stroke="rgb(12,12,255)" stroke-width="1" font-size="16" >N</text>
<text x="141.324253" y="55.640018" fill="rgb(12,12,255)"  stroke="rgb(12,12,255)" stroke-width="1" font-size="16" >N</text>
<text x="141.324253" y="39.640018" fill="rgb(12,12,255)"  stroke="rgb(12,12,255)" stroke-width="1" font-size="16" >H</text>
<text x="141.324253" y="120.360171" fill="rgb(12,12,255)"  stroke="rgb(12,12,255)" stroke-width="1" font-size="16" >N</text>
<text x="70.640082" y="168.000283" fill="rgb(12,12,255)"  stroke="rgb(12,12,255)" stroke-width="1" font-size="16" >NH</text>
<text x="94.640082" y="171.680283" fill="rgb(12,12,255)"  stroke="rgb(12,12,255)" stroke-width="1" font-size="13" >2</text>
<text font-size="18.000000" fill ="black" font-family="sans-serif"
x="10.000000" y="20.000000" >adenine</text>
<title>adenine - OBDepict</title>
</svg>
