<?xml version="1.0" encoding="UTF-8" standalone="no"?>
<!-- Created with Inkscape (http://www.inkscape.org/) -->

<svg
   xmlns:dc="http://purl.org/dc/elements/1.1/"
   xmlns:cc="http://creativecommons.org/ns#"
   xmlns:rdf="http://www.w3.org/1999/02/22-rdf-syntax-ns#"
   xmlns:svg="http://www.w3.org/2000/svg"
   xmlns="http://www.w3.org/2000/svg"
   xmlns:xlink="http://www.w3.org/1999/xlink"
   xmlns:sodipodi="http://sodipodi.sourceforge.net/DTD/sodipodi-0.dtd"
   xmlns:inkscape="http://www.inkscape.org/namespaces/inkscape"
   width="297mm"
   height="210mm"
   id="svg2985"
   version="1.1"
   inkscape:version="0.48.3.1 r9886"
   sodipodi:docname="IntroducingHydrogen.svg">
  <defs
     id="defs2987">
    <linearGradient
       inkscape:collect="always"
       xlink:href="#linearGradient3872-3"
       id="linearGradient3878-4"
       x1="360"
       y1="354.09448"
       x2="780"
       y2="354.09448"
       gradientUnits="userSpaceOnUse" />
    <linearGradient
       id="linearGradient3872-3">
      <stop
         style="stop-color:#00ffd2;stop-opacity:1;"
         offset="0"
         id="stop3874-6" />
      <stop
         style="stop-color:#00ffd2;stop-opacity:0;"
         offset="1"
         id="stop3876-2" />
    </linearGradient>
    <linearGradient
       inkscape:collect="always"
       xlink:href="#linearGradient3872-6"
       id="linearGradient3878-7"
       x1="360"
       y1="354.09448"
       x2="780"
       y2="354.09448"
       gradientUnits="userSpaceOnUse" />
    <linearGradient
       inkscape:collect="always"
       id="linearGradient3872-6">
      <stop
         style="stop-color:#00ffd2;stop-opacity:1;"
         offset="0"
         id="stop3874-3" />
      <stop
         style="stop-color:#00ffd2;stop-opacity:0;"
         offset="1"
         id="stop3876-6" />
    </linearGradient>
  </defs>
  <sodipodi:namedview
     inkscape:document-units="mm"
     pagecolor="#ffffff"
     bordercolor="#666666"
     borderopacity="1.0"
     inkscape:pageopacity="0.0"
     inkscape:pageshadow="2"
     inkscape:zoom="0.43415836"
     inkscape:cx="568.86252"
     inkscape:cy="306.07772"
     inkscape:current-layer="layer1"
     id="namedview2989"
     showgrid="true"
     inkscape:window-width="906"
     inkscape:window-height="608"
     inkscape:window-x="1024"
     inkscape:window-y="0"
     inkscape:window-maximized="0">
    <inkscape:grid
       type="xygrid"
       id="grid3013" />
  </sodipodi:namedview>
  <metadata
     id="metadata2991">
    <rdf:RDF>
      <cc:Work
         rdf:about="">
        <dc:format>image/svg+xml</dc:format>
        <dc:type
           rdf:resource="http://purl.org/dc/dcmitype/StillImage" />
        <dc:title></dc:title>
      </cc:Work>
    </rdf:RDF>
  </metadata>
  <g
     inkscape:label="Layer 1"
     inkscape:groupmode="layer"
     id="layer1">
    <rect
       style="fill:#cccccc;fill-opacity:0.98245616;stroke-width:67.32283783;stroke-miterlimit:4;stroke-dasharray:none"
       id="rect3838"
       width="1060"
       height="740"
       x="2"
       y="4.0944848" />
    <path
       style="fill:none;stroke:#000000;stroke-width:69.01533508;stroke-linecap:butt;stroke-linejoin:miter;stroke-miterlimit:4;stroke-opacity:1;stroke-dasharray:none"
       d="M 633.5555,429.38591 C 4,244.09448 4,244.09448 4,244.09448"
       id="path3806"
       inkscape:connector-curvature="0" />
    <path
       sodipodi:type="arc"
       style="fill:#ffffff;fill-opacity:0.96491232"
       id="path3015-4"
       sodipodi:cx="570"
       sodipodi:cy="354.09448"
       sodipodi:rx="210"
       sodipodi:ry="210"
       d="m 780,354.09448 a 210,210 0 1 1 -420,0 210,210 0 1 1 420,0 z"
       transform="matrix(0.76190476,0,0,0.73809524,299.71429,177.73903)" />
    <path
       sodipodi:type="arc"
       style="fill:#ac9393;fill-opacity:0.66666669;stroke:#000000;stroke-opacity:0.97619045000000004;stroke-width:6.19920619999999989;stroke-miterlimit:4;stroke-dasharray:none"
       id="path3015"
       sodipodi:cx="570"
       sodipodi:cy="354.09448"
       sodipodi:rx="210"
       sodipodi:ry="210"
       d="m 780,354.09448 a 210,210 0 1 1 -420,0 210,210 0 1 1 420,0 z"
       transform="matrix(0.76190476,0,0,0.73809524,299.71429,177.73903)" />
    <text
       xml:space="preserve"
       style="font-size:226.21524048px;font-style:normal;font-variant:normal;font-weight:normal;font-stretch:normal;line-height:125%;letter-spacing:0px;word-spacing:0px;fill:#000000;fill-opacity:1;stroke:none;font-family:BPmolecules;-inkscape-font-specification:BPmolecules"
       x="733.94629"
       y="480.25754"
       id="text3785"
       sodipodi:linespacing="125%"
       transform="scale(0.91287319,1.0954424)"><tspan
         sodipodi:role="line"
         id="tspan3787"
         x="733.94629"
         y="480.25754"
         style="font-size:210px;font-style:normal;font-variant:normal;font-weight:normal;font-stretch:normal;font-family:Liberation Sans;-inkscape-font-specification:Liberation Sans">H</tspan></text>
    <text
       xml:space="preserve"
       style="font-size:56px;font-style:normal;font-variant:normal;font-weight:normal;font-stretch:normal;line-height:125%;letter-spacing:0px;word-spacing:0px;fill:#000000;fill-opacity:1;stroke:none;font-family:cmex10;-inkscape-font-specification:cmex10"
       x="379.8381"
       y="626.62579"
       id="text3960"
       sodipodi:linespacing="125%"><tspan
         sodipodi:role="line"
         id="tspan3962"
         x="379.8381"
         y="626.62579"></tspan></text>
    <text
       xml:space="preserve"
       style="font-size:48px;font-style:normal;font-variant:normal;font-weight:normal;font-stretch:normal;line-height:125%;letter-spacing:0px;word-spacing:0px;fill:#000000;fill-opacity:1;stroke:none;font-family:BPmolecules;-inkscape-font-specification:BPmolecules"
       x="398.26456"
       y="645.05231"
       id="text3964"
       sodipodi:linespacing="125%"><tspan
         sodipodi:role="line"
         id="tspan3966"
         x="398.26456"
         y="645.05231" /></text>
    <text
       xml:space="preserve"
       style="font-size:100px;font-style:normal;font-variant:normal;font-weight:normal;font-stretch:normal;line-height:125%;letter-spacing:0px;word-spacing:0px;fill:#f2f2f2;fill-opacity:1;stroke:none;font-family:BPmolecules;-inkscape-font-specification:BPmolecules"
       x="544"
       y="864.09448"
       id="text3968"
       sodipodi:linespacing="125%"><tspan
         sodipodi:role="line"
         id="tspan3970"
         x="544"
         y="864.09448"
         style="font-style:normal;font-weight:normal;fill:#f2f2f2;-inkscape-font-specification:BPmolecules">Hydrogen</tspan></text>
    <path
       style="fill:none;stroke:#000000;stroke-width:1px;stroke-linecap:butt;stroke-linejoin:miter;stroke-opacity:1"
       d="m 880,484.09448 c 180,40 180,40 180,40"
       id="path4640"
       inkscape:connector-curvature="0" />
    <path
       style="fill:#cccccc;fill-opacity:0.98245616;stroke:#000000;stroke-width:10.70765781;stroke-miterlimit:4;stroke-opacity:0.97619042;stroke-dasharray:none"
       d="m 3.849188,511.6163 0,-230.22053 9.789055,2.89899 c 5.38398,1.59444 132.845197,39.10305 283.247157,83.35246 l 273.4581,80.45348 1.39223,10.39712 c 3.92313,29.29748 18.86823,62.10216 38.14634,83.73169 64.93146,72.85148 183.35355,72.79076 248.3444,-0.12738 9.74615,-10.93495 15.64312,-20.8636 31.61828,-53.23536 0.20568,-0.41685 38.81489,7.78905 85.79819,18.23534 l 85.42416,18.99328 0,107.87074 0,107.8707 -528.60895,0 -528.608962,0 0,-230.22053 z"
       id="path6164"
       inkscape:connector-curvature="0" />
    <path
       style="fill:#e6e6e6;fill-opacity:0.98245616;stroke:#000000;stroke-width:10.70765781;stroke-miterlimit:4;stroke-opacity:0.97619042;stroke-dasharray:none"
       d="m 1004.6361,507.10502 c -26.60321,-6.00604 -62.66636,-13.92688 -80.14038,-17.60187 l -31.77092,-6.6818 1.82793,-12.72147 c 1.00537,-6.9968 1.67411,-23.60459 1.48612,-36.90619 -0.2705,-19.13783 -1.53481,-27.64063 -6.05855,-40.74545 -17.35254,-50.26839 -54.45912,-87.0997 -104.6696,-103.89315 -16.00948,-5.35455 -21.46797,-5.99196 -51.31319,-5.99196 -29.84521,0 -35.3037,0.63741 -51.31318,5.99196 -37.86538,12.6645 -73.19316,40.94289 -90.6554,72.56585 l -8.92182,16.15675 -284.2967,-83.71024 C 142.44721,247.52681 13.96036,210.41051 13.284076,211.08679 c -0.676283,0.67628 -2.969463,6.61713 -5.0959544,13.20188 -3.7329897,11.55931 -3.8744982,7.98012 -4.1026408,-103.76891 L 3.849188,4.7785867 l 528.608962,0 528.60895,0 0,256.8187333 c 0,243.1282 -0.2149,256.80832 -4.0308,256.62325 -2.2169,-0.10756 -25.797,-5.10952 -52.4002,-11.11555 z"
       id="path6174"
       inkscape:connector-curvature="0" />
    <text
       xml:space="preserve"
       style="font-size:100px;font-style:normal;font-variant:normal;font-weight:normal;font-stretch:normal;line-height:125%;letter-spacing:0px;word-spacing:0px;fill:#000000;fill-opacity:1;stroke:none;font-family:BPmolecules;-inkscape-font-specification:BPmolecules"
       x="22"
       y="692.09448"
       id="text6176"
       sodipodi:linespacing="125%"><tspan
         sodipodi:role="line"
         id="tspan6178"
         x="22"
         y="692.09448"
         style="font-size:140px;font-style:normal;font-variant:normal;font-weight:normal;font-stretch:normal;font-family:Liberation Sans;-inkscape-font-specification:Liberation Sans">Hydrogen</tspan></text>
  </g>
</svg>
