<?xml version="1.0" encoding="UTF-8" standalone="no"?>
<!-- Created with Inkscape (http://www.inkscape.org/) -->

<svg
   xmlns:dc="http://purl.org/dc/elements/1.1/"
   xmlns:cc="http://creativecommons.org/ns#"
   xmlns:rdf="http://www.w3.org/1999/02/22-rdf-syntax-ns#"
   xmlns:svg="http://www.w3.org/2000/svg"
   xmlns="http://www.w3.org/2000/svg"
   xmlns:sodipodi="http://sodipodi.sourceforge.net/DTD/sodipodi-0.dtd"
   xmlns:inkscape="http://www.inkscape.org/namespaces/inkscape"
   width="297mm"
   height="210mm"
   id="svg6190"
   version="1.1"
   inkscape:version="0.48.3.1 r9886"
   sodipodi:docname="IntroducingNitrogen.svg">
  <defs
     id="defs6192" />
  <sodipodi:namedview
     inkscape:document-units="mm"
     pagecolor="#ffffff"
     bordercolor="#666666"
     borderopacity="1.0"
     inkscape:pageopacity="0.0"
     inkscape:pageshadow="2"
     inkscape:zoom="0.43415836"
     inkscape:cx="1010.4265"
     inkscape:cy="207.53175"
     inkscape:current-layer="layer1"
     id="namedview6194"
     showgrid="false"
     inkscape:window-width="1024"
     inkscape:window-height="709"
     inkscape:window-x="0"
     inkscape:window-y="283"
     inkscape:window-maximized="1" />
  <metadata
     id="metadata6196">
    <rdf:RDF>
      <cc:Work
         rdf:about="">
        <dc:format>image/svg+xml</dc:format>
        <dc:type
           rdf:resource="http://purl.org/dc/dcmitype/StillImage" />
      </cc:Work>
    </rdf:RDF>
  </metadata>
  <g
     inkscape:label="Layer 1"
     inkscape:groupmode="layer"
     id="layer1">
    <text
       xml:space="preserve"
       style="font-size:125px;font-style:normal;font-variant:normal;font-weight:normal;font-stretch:normal;line-height:125%;letter-spacing:0px;word-spacing:0px;fill:#000000;fill-opacity:1;stroke:none;font-family:BPmolecules;-inkscape-font-specification:BPmolecules"
       x="514.66412"
       y="376.0119"
       id="text6794"
       sodipodi:linespacing="125%"><tspan
         sodipodi:role="line"
         id="tspan6796"
         x="514.66412"
         y="376.0119" /></text>
    <rect
       style="fill:#ececec;fill-opacity:0.98095236;stroke:#000000;stroke-width:4.34823751;stroke-miterlimit:4;stroke-opacity:0.97619042;stroke-dasharray:none"
       id="rect6806"
       width="1050.043"
       height="741.33105"
       x="1.5165339"
       y="3.7965038" />
    <path
       style="fill:none;stroke:#000000;stroke-width:51.0421257;stroke-linecap:butt;stroke-linejoin:miter;stroke-miterlimit:4;stroke-opacity:1;stroke-dasharray:none"
       d="M 412.51459,496.66142 C -10.216272,284.52277 -10.216272,284.52277 -10.216272,284.52277"
       id="path3806"
       inkscape:connector-curvature="0" />
    <path
       style="fill:none;stroke:#000000;stroke-width:49.27684784;stroke-linecap:butt;stroke-linejoin:miter;stroke-miterlimit:4;stroke-opacity:1;stroke-dasharray:none"
       d="M 545.24058,1049.7604 C 546.1068,589.85601 546.1068,589.85601 546.1068,589.85601"
       id="path3806-0"
       inkscape:connector-curvature="0" />
    <path
       style="fill:none;stroke:#000000;stroke-width:48.99839401;stroke-linecap:butt;stroke-linejoin:miter;stroke-miterlimit:4;stroke-opacity:1;stroke-dasharray:none"
       d="M 1077.6693,290.87766 C 645.60754,511.59516 645.60754,511.59516 645.60754,511.59516"
       id="path3806-3"
       inkscape:connector-curvature="0" />
    <path
       sodipodi:type="arc"
       style="fill:#0051ff;fill-opacity:0.98095236;stroke:#000000;stroke-width:6.19920635;stroke-miterlimit:4;stroke-opacity:0.97619042;stroke-dasharray:none"
       id="path3015"
       sodipodi:cx="570"
       sodipodi:cy="354.09448"
       sodipodi:rx="210"
       sodipodi:ry="210"
       d="m 780,354.09448 a 210,210 0 1 1 -420,0 210,210 0 1 1 420,0 z"
       transform="matrix(0.76190476,0,0,0.73809524,111.38797,275.06174)" />
    <text
       xml:space="preserve"
       style="font-size:140.71002197px;font-style:normal;font-variant:normal;font-weight:normal;font-stretch:normal;line-height:125%;letter-spacing:0px;word-spacing:0px;fill:#000000;fill-opacity:1;stroke:none;font-family:BPmolecules;-inkscape-font-specification:BPmolecules"
       x="483.91711"
       y="358.01434"
       id="text6790"
       sodipodi:linespacing="125%"><tspan
         sodipodi:role="line"
         id="tspan6792"
         x="483.91711"
         y="358.01434">. .</tspan></text>
    <path
       style="fill:#f9f9f9;fill-opacity:0.98095236;stroke:#000000;stroke-width:10.60972214;stroke-miterlimit:4;stroke-opacity:0.97619042;stroke-dasharray:none"
       d="m 201.62029,360.92129 -197.5085793,-98.9181 0,-127.83087 0,-127.8308691 521.6990393,0 521.69905,0 0,135.4646491 0,135.46465 -177.7437,90.83527 c -97.75903,49.95939 -178.34598,91.06548 -179.08212,91.34683 -0.73614,0.28137 -4.82764,-4.63018 -9.09224,-10.91459 -10.42654,-15.36474 -35.8445,-39.01245 -51.65744,-48.0597 -75.40711,-43.14357 -174.78535,-20.74193 -221.56332,49.94438 -3.51962,5.31849 -7.03893,9.61294 -7.82072,9.54322 -0.78177,-0.0697 -90.30025,-44.63991 -198.92997,-99.04487 z M 515.44587,349.5342 c 0,-9.21323 0,-9.21323 -9.21323,-9.21323 -9.21323,0 -9.21323,0 -9.21323,9.21323 0,9.21323 0,9.21323 9.21323,9.21323 9.21323,0 9.21323,0 9.21323,-9.21323 z m 89.82897,0 c 0,-9.21323 0,-9.21323 -9.21322,-9.21323 -9.21323,0 -9.21323,0 -9.21323,9.21323 0,9.21323 0,9.21323 9.21323,9.21323 9.21322,0 9.21322,0 9.21322,-9.21323 z"
       id="path6884"
       inkscape:connector-curvature="0" />
    <path
       style="fill:#f9f9f9;fill-opacity:0.98095236;stroke:#000000;stroke-width:10.60972214;stroke-miterlimit:4;stroke-opacity:0.97619042;stroke-dasharray:none"
       d="m 4.1117107,531.45759 0,-209.6388 189.2254093,95.04928 189.22542,95.04927 0.44923,26.48803 c 0.76408,45.05273 13.9442,75.42163 47.05357,108.41807 22.26287,22.18697 44.8751,35.30267 73.63834,42.71227 l 16.3488,4.21155 0,23.67457 0,23.67456 -257.97038,0 -257.9703893,0 0,-209.6388 z"
       id="path6886"
       inkscape:connector-curvature="0" />
    <path
       style="fill:#e6e6e6;fill-opacity:0.98095235999999997;stroke:#000000;stroke-width:10.60972214000000058;stroke-miterlimit:4;stroke-opacity:0.97619042000000000;stroke-dasharray:none"
       d="m 570.72524,717.42183 0,-23.67457 16.34879,-4.21155 C 661.42496,670.38245 711.5416,604.55013 708.45663,530.08969 L 707.58724,509.10582 814.7834,454.2877 c 58.95789,-30.14996 135.44046,-69.2515 169.96128,-86.89231 l 62.76512,-32.0742 0,202.8876 0,202.8876 -238.39228,0 -238.39228,0 0,-23.67456 z"
       id="path6888"
       inkscape:connector-curvature="0" />
    <path
       style="fill:#e6e6e6;fill-opacity:0.98095236;stroke:#000000;stroke-width:10.60972214;stroke-miterlimit:4;stroke-opacity:0.97619042;stroke-dasharray:none"
       d="m 11.021632,533.60682 c 0,-110.31881 0.777366,-200.23416 1.72748,-199.81189 0.950114,0.42228 83.342164,41.70905 183.093448,91.7484 l 181.36596,90.98063 0.0594,20.72976 c 0.0327,11.40137 1.58276,27.98518 3.44457,36.85291 11.04286,52.59699 59.2666,102.77229 115.15522,119.81552 l 16.12315,4.91676 0.6727,17.67378 0.67275,17.67378 -251.15737,0 -251.157338,0 0,-200.57965 z"
       id="path6890"
       inkscape:connector-curvature="0" />
    <text
       xml:space="preserve"
       style="font-size:100px;font-style:normal;font-variant:normal;font-weight:normal;font-stretch:normal;line-height:125%;letter-spacing:0px;word-spacing:0px;fill:#000000;fill-opacity:1;stroke:none;font-family:BPmolecules;-inkscape-font-specification:BPmolecules"
       x="215.1911"
       y="207.57104"
       id="text6802"
       sodipodi:linespacing="125%"><tspan
         sodipodi:role="line"
         id="tspan6804"
         x="215.1911"
         y="207.57104"
         style="font-size:140px;font-style:normal;font-variant:normal;font-weight:normal;font-stretch:normal;font-family:Liberation Mono;-inkscape-font-specification:Liberation Mono">Nitrogen</tspan></text>
    <text
       xml:space="preserve"
       style="font-size:100px;font-style:normal;font-variant:normal;font-weight:normal;font-stretch:normal;line-height:125%;letter-spacing:0px;word-spacing:0px;fill:#000000;fill-opacity:1;stroke:none;font-family:Nimbus Mono L;-inkscape-font-specification:Nimbus Mono L"
       x="479.69446"
       y="611.41266"
       id="text6982"
       sodipodi:linespacing="125%"><tspan
         sodipodi:role="line"
         id="tspan6984"
         x="479.69446"
         y="611.41266"
         style="font-size:220px;font-style:normal;font-variant:normal;font-weight:normal;font-stretch:normal;font-family:Liberation Mono;-inkscape-font-specification:Liberation Mono">N</tspan></text>
    <path
       style="fill:#cccccc;fill-opacity:0.98095236;stroke:#000000;stroke-width:10.60972214;stroke-miterlimit:4;stroke-opacity:0.97619042;stroke-dasharray:none"
       d="m 17.147909,538.29747 c 0.507465,-104.44521 1.554484,-190.53221 2.326711,-191.30444 0.772226,-0.77223 80.291414,38.04233 176.7093,86.25457 l 175.30526,87.65862 0.0138,17.84764 c 0.035,46.72445 14.68022,81.55278 48.56666,115.49756 19.05431,19.08711 44.4031,35.29053 68.88866,44.03488 8.23433,2.94065 15.11343,5.43221 15.28689,5.53676 0.17344,0.10457 1.0481,5.63165 1.94362,12.28245 l 1.62823,12.09236 -245.79568,0 -245.79565,0 0.922663,-189.9004 -4.84e-4,0 z"
       id="path6990"
       inkscape:connector-curvature="0" />
    <path
       style="fill:#cccccc;fill-opacity:0.98095236;stroke:#000000;stroke-width:10.60972214;stroke-miterlimit:4;stroke-opacity:0.97619042;stroke-dasharray:none"
       d="m 576.48351,717.02319 0,-18.0846 15.02404,-4.06681 c 48.98436,-13.25944 91.12265,-49.60586 110.28026,-95.12232 9.01294,-21.41379 12.82132,-40.6606 12.86741,-65.02938 l 0.0414,-21.88141 82.33589,-42.0262 c 45.28472,-23.11441 118.87209,-60.70371 163.52745,-83.53178 l 81.19154,-41.50559 0,194.66635 0,194.66634 -232.63397,0 -232.63401,0 0,-18.0846 z"
       id="path6992"
       inkscape:connector-curvature="0" />
  </g>
</svg>
