<?xml version="1.0" encoding="UTF-8" standalone="no"?>
<!-- Created with Inkscape (http://www.inkscape.org/) -->

<svg
   xmlns:dc="http://purl.org/dc/elements/1.1/"
   xmlns:cc="http://creativecommons.org/ns#"
   xmlns:rdf="http://www.w3.org/1999/02/22-rdf-syntax-ns#"
   xmlns:svg="http://www.w3.org/2000/svg"
   xmlns="http://www.w3.org/2000/svg"
   xmlns:xlink="http://www.w3.org/1999/xlink"
   xmlns:sodipodi="http://sodipodi.sourceforge.net/DTD/sodipodi-0.dtd"
   xmlns:inkscape="http://www.inkscape.org/namespaces/inkscape"
   width="297mm"
   height="210mm"
   id="svg2985"
   version="1.1"
   inkscape:version="0.48.3.1 r9886"
   sodipodi:docname="IntroducingOxygen.svg">
  <defs
     id="defs2987">
    <pattern
       inkscape:collect="always"
       xlink:href="#Wavy"
       id="pattern6124"
       patternTransform="matrix(0.99018522,0,0,0.87955206,10.470816,43.381645)" />
    <pattern
       inkscape:collect="always"
       xlink:href="#Wavy"
       id="pattern6122"
       patternTransform="matrix(0.99018522,0,0,0.87955206,19.381572,20.296642)" />
    <pattern
       inkscape:stockid="Wavy"
       id="Wavy"
       height="5.1805778"
       width="30.066020"
       patternUnits="userSpaceOnUse"
       inkscape:collect="always">
      <path
         id="path6023"
         d="M 7.597,0.061 C 5.079,-0.187 2.656,0.302 -0.01,1.788 L -0.01,3.061 C 2.773,1.431 5.173,1.052 7.472,1.280 C 9.770,1.508 11.969,2.361 14.253,3.218 C 18.820,4.931 23.804,6.676 30.066,3.061 L 30.062,1.788 C 23.622,5.497 19.246,3.770 14.691,2.061 C 12.413,1.207 10.115,0.311 7.597,0.061 z "
         style="fill:black;stroke:none;" />
    </pattern>
    <linearGradient
       inkscape:collect="always"
       xlink:href="#linearGradient3872-3"
       id="linearGradient3878-4"
       x1="360"
       y1="354.09448"
       x2="780"
       y2="354.09448"
       gradientUnits="userSpaceOnUse" />
    <linearGradient
       id="linearGradient3872-3">
      <stop
         style="stop-color:#00ffd2;stop-opacity:1;"
         offset="0"
         id="stop3874-6" />
      <stop
         style="stop-color:#00ffd2;stop-opacity:0;"
         offset="1"
         id="stop3876-2" />
    </linearGradient>
    <linearGradient
       inkscape:collect="always"
       xlink:href="#linearGradient3872-6"
       id="linearGradient3878-7"
       x1="360"
       y1="354.09448"
       x2="780"
       y2="354.09448"
       gradientUnits="userSpaceOnUse" />
    <linearGradient
       inkscape:collect="always"
       id="linearGradient3872-6">
      <stop
         style="stop-color:#00ffd2;stop-opacity:1;"
         offset="0"
         id="stop3874-3" />
      <stop
         style="stop-color:#00ffd2;stop-opacity:0;"
         offset="1"
         id="stop3876-6" />
    </linearGradient>
  </defs>
  <sodipodi:namedview
     inkscape:document-units="mm"
     pagecolor="#ffffff"
     bordercolor="#666666"
     borderopacity="1.0"
     inkscape:pageopacity="0.0"
     inkscape:pageshadow="2"
     inkscape:zoom="0.43415836"
     inkscape:cx="442.86591"
     inkscape:cy="291.96173"
     inkscape:current-layer="layer1"
     id="namedview2989"
     showgrid="true"
     inkscape:window-width="745"
     inkscape:window-height="582"
     inkscape:window-x="1075"
     inkscape:window-y="132"
     inkscape:window-maximized="0">
    <inkscape:grid
       type="xygrid"
       id="grid3013" />
  </sodipodi:namedview>
  <metadata
     id="metadata2991">
    <rdf:RDF>
      <cc:Work
         rdf:about="">
        <dc:format>image/svg+xml</dc:format>
        <dc:type
           rdf:resource="http://purl.org/dc/dcmitype/StillImage" />
        <dc:title />
      </cc:Work>
    </rdf:RDF>
  </metadata>
  <g
     inkscape:label="Layer 1"
     inkscape:groupmode="layer"
     id="layer1">
    <rect
       style="fill:#cccccc;fill-opacity:0.98245615;stroke-width:67.32283783000001165;stroke-miterlimit:4;stroke-dasharray:none"
       id="rect3838"
       width="1060"
       height="740"
       x="0"
       y="4.0944824" />
    <path
       style="fill:none;stroke:#000000;stroke-width:49.27684784;stroke-linecap:butt;stroke-linejoin:miter;stroke-miterlimit:4;stroke-opacity:1;stroke-dasharray:none"
       d="M 419.5555,429.38591 C -20.000003,294.09448 -20.000003,294.09448 -20.000003,294.09448"
       id="path3806"
       inkscape:connector-curvature="0" />
    <path
       style="fill:none;stroke:#000000;stroke-width:50.25416565;stroke-linecap:butt;stroke-linejoin:miter;stroke-miterlimit:4;stroke-opacity:1;stroke-dasharray:none"
       d="M 453.03354,464.38818 C 1060,294.09448 1060,294.09448 1060,294.09448"
       id="path3810"
       inkscape:connector-curvature="0" />
    <path
       sodipodi:type="arc"
       style="fill:#ffffff;fill-opacity:0.96491232"
       id="path3015-4"
       sodipodi:cx="570"
       sodipodi:cy="354.09448"
       sodipodi:rx="210"
       sodipodi:ry="210"
       d="m 780,354.09448 a 210,210 0 1 1 -420,0 210,210 0 1 1 420,0 z"
       transform="matrix(0.76190476,0,0,0.73809524,85.714287,177.73903)" />
    <path
       sodipodi:type="arc"
       style="fill:#ff0000;fill-opacity:1;stroke:#000000;stroke-opacity:0.97619045000000004;stroke-width:6.23700623;stroke-miterlimit:4;stroke-dasharray:none"
       id="path3015"
       sodipodi:cx="570"
       sodipodi:cy="354.09448"
       sodipodi:rx="210"
       sodipodi:ry="210"
       d="m 780,354.09448 a 210,210 0 1 1 -420,0 210,210 0 1 1 420,0 z"
       transform="matrix(0.76190476,0,0,0.73809524,85.714287,177.73903)" />
    <text
       xml:space="preserve"
       style="font-size:226.21524048px;font-style:normal;font-variant:normal;font-weight:normal;font-stretch:normal;line-height:125%;letter-spacing:0px;word-spacing:0px;fill:#000000;fill-opacity:1;stroke:none;font-family:BPmolecules;-inkscape-font-specification:BPmolecules"
       x="486.37643"
       y="467.47736"
       id="text3785"
       sodipodi:linespacing="125%"
       transform="scale(0.91287319,1.0954424)"><tspan
         sodipodi:role="line"
         id="tspan3787"
         x="486.37643"
         y="467.47736"
         style="font-style:normal;font-variant:normal;font-weight:normal;font-stretch:normal;font-family:Liberation Sans;-inkscape-font-specification:Liberation Sans">O</tspan></text>
    <text
       xml:space="preserve"
       style="font-size:56px;font-style:normal;font-variant:normal;font-weight:normal;font-stretch:normal;line-height:125%;letter-spacing:0px;word-spacing:0px;fill:#000000;fill-opacity:1;stroke:none;font-family:cmex10;-inkscape-font-specification:cmex10"
       x="165.8381"
       y="626.62579"
       id="text3960"
       sodipodi:linespacing="125%"><tspan
         sodipodi:role="line"
         id="tspan3962" /></text>
    <text
       xml:space="preserve"
       style="font-size:48px;font-style:normal;font-variant:normal;font-weight:normal;font-stretch:normal;line-height:125%;letter-spacing:0px;word-spacing:0px;fill:#000000;fill-opacity:1;stroke:none;font-family:BPmolecules;-inkscape-font-specification:BPmolecules"
       x="184.26456"
       y="645.05231"
       id="text3964"
       sodipodi:linespacing="125%"><tspan
         sodipodi:role="line"
         id="tspan3966"
         x="184.26456"
         y="645.05231" /></text>
    <path
       style="fill:#f2f2f2;fill-opacity:0.98245616;stroke:#000000;stroke-width:7.61762476;stroke-miterlimit:4;stroke-opacity:0.97619042;stroke-dasharray:none"
       d="M 195.63682,333.83033 C 102.92398,305.2002 21.021534,279.92787 13.63138,277.66962 l -13.436643,-4.10593 0,-134.31407 0,-134.3140815 529.322303,0 529.32226,0 -0.1695,139.6596515 c -0.1523,125.36072 -0.4142,138.8601 -2.5584,131.85026 -1.8484,-6.04295 -3.0074,-7.61403 -5.1236,-6.94565 -4.6115,1.4564 -380.22838,106.77569 -380.81119,106.77569 -0.30021,0 -2.67606,-4.21422 -5.27966,-9.36493 -23.55476,-46.59873 -75.06839,-80.4396 -128.92574,-84.69526 -41.6442,-3.29063 -77.19969,5.74236 -110.47225,28.06584 -21.65126,14.52641 -46.31072,44.06627 -55.70338,66.72772 -2.06048,4.9713 -4.16115,9.00217 -4.66815,8.9575 -0.50701,-0.0447 -76.77777,-23.5059 -169.49061,-52.13603 z"
       id="path6132"
       inkscape:connector-curvature="0" />
    <path
       style="fill:#cccccc;fill-opacity:0.98245616;stroke:#000000;stroke-width:15.23524952;stroke-miterlimit:4;stroke-opacity:0.97619042;stroke-dasharray:none"
       d="m 2.6777547,534.69069 c 0,-113.86931 1.0993617,-206.39909 2.4430261,-205.62173 1.3436643,0.77736 80.1312532,25.24954 175.0835292,54.38261 94.95228,29.13308 173.71743,54.60179 175.03366,56.59714 1.31624,1.99535 2.4156,8.89524 2.44303,15.3331 0.11889,27.93105 19.60616,68.11241 45.67693,94.18318 33.25288,33.25288 68.3018,46.96765 118.87003,46.51429 48.43054,-0.4342 85.995,-16.361 118.64585,-50.30414 24.67948,-25.6563 42.56504,-68.30132 42.62305,-101.62729 l 0.0292,-16.75807 187.26951,-52.40154 187.26953,-52.40155 0,209.56956 0,209.56955 -527.69367,0 -527.6936253,0 0,-207.03511 z"
       id="path6180"
       inkscape:connector-curvature="0" />
    <path
       style="fill:#e6e6e6;fill-opacity:0.98245616;stroke:#000000;stroke-width:15.23524952;stroke-miterlimit:4;stroke-opacity:0.97619042;stroke-dasharray:none"
       d="M 204.63457,331.06866 C 124.91049,306.23064 47.588716,282.1485 32.808409,277.5528 l -26.8732862,-8.35584 0,-130.18948 0,-130.189491 524.4362572,0 524.43622,0 -0.4506,74.105123 c -0.2479,40.757818 -1.3472,98.182068 -2.443,127.609438 l -1.9924,53.50432 -89.57764,25.10082 c -49.2677,13.80545 -133.90656,37.51454 -188.08633,52.68686 l -98.50874,27.58607 -10.08064,-15.70934 c -57.68581,-89.89551 -189.2754,-103.64869 -264.29092,-27.62255 -9.0192,9.14073 -20.75344,24.31501 -26.07608,33.72066 -7.19881,12.72104 -11.47509,17.01513 -16.69567,16.76525 -3.85998,-0.18479 -72.24692,-20.65796 -151.97101,-45.49598 z"
       id="path6184"
       inkscape:connector-curvature="0" />
    <text
       xml:space="preserve"
       style="font-size:100px;font-style:normal;font-variant:normal;font-weight:normal;font-stretch:normal;line-height:125%;letter-spacing:0px;word-spacing:0px;fill:#000000;fill-opacity:1;stroke:none;font-family:BPmolecules;-inkscape-font-specification:BPmolecules"
       x="282"
       y="698.09448"
       id="text6186"
       sodipodi:linespacing="125%"><tspan
         sodipodi:role="line"
         id="tspan6188"
         x="282"
         y="698.09448"
         style="font-size:145px;font-style:normal;font-variant:normal;font-weight:normal;font-stretch:normal;font-family:Liberation Sans;-inkscape-font-specification:Liberation Sans">Oxygen</tspan></text>
  </g>
</svg>
