<?xml version="1.0" encoding="UTF-8" standalone="no"?>
<!-- Created with Inkscape (http://www.inkscape.org/) -->

<svg
   xmlns:dc="http://purl.org/dc/elements/1.1/"
   xmlns:cc="http://creativecommons.org/ns#"
   xmlns:rdf="http://www.w3.org/1999/02/22-rdf-syntax-ns#"
   xmlns:svg="http://www.w3.org/2000/svg"
   xmlns="http://www.w3.org/2000/svg"
   xmlns:sodipodi="http://sodipodi.sourceforge.net/DTD/sodipodi-0.dtd"
   xmlns:inkscape="http://www.inkscape.org/namespaces/inkscape"
   width="297mm"
   height="210mm"
   id="svg5639"
   version="1.1"
   inkscape:version="0.48.3.1 r9886"
   sodipodi:docname="ValenceCO2.svg">
  <defs
     id="defs5641" />
  <sodipodi:namedview
     inkscape:document-units="mm"
     pagecolor="#ffffff"
     bordercolor="#666666"
     borderopacity="1.0"
     inkscape:pageopacity="0.0"
     inkscape:pageshadow="2"
     inkscape:zoom="0.53641228"
     inkscape:cx="499.69365"
     inkscape:cy="194.0214"
     inkscape:current-layer="layer1"
     id="namedview5643"
     showgrid="false"
     inkscape:window-width="1280"
     inkscape:window-height="992"
     inkscape:window-x="1024"
     inkscape:window-y="0"
     inkscape:window-maximized="1" />
  <metadata
     id="metadata5645">
    <rdf:RDF>
      <cc:Work
         rdf:about="">
        <dc:format>image/svg+xml</dc:format>
        <dc:type
           rdf:resource="http://purl.org/dc/dcmitype/StillImage" />
        <dc:title />
      </cc:Work>
    </rdf:RDF>
  </metadata>
  <g
     inkscape:label="Layer 1"
     inkscape:groupmode="layer"
     id="layer1">
    <text
       xml:space="preserve"
       style="font-size:138.91500854px;font-style:normal;font-variant:normal;font-weight:normal;font-stretch:normal;line-height:125%;letter-spacing:0px;word-spacing:0px;fill:#000000;fill-opacity:1;stroke:none;font-family:Liberation Mono;-inkscape-font-specification:Liberation Mono"
       x="385.70908"
       y="465.30392"
       id="text5648"
       sodipodi:linespacing="125%"><tspan
         sodipodi:role="line"
         id="tspan5650"
         x="385.70908"
         y="465.30392"
         style="font-size:393.59249878px">C</tspan></text>
    <text
       xml:space="preserve"
       style="font-size:138.91500854px;font-style:normal;font-variant:normal;font-weight:normal;font-stretch:normal;line-height:125%;letter-spacing:0px;word-spacing:0px;fill:#ff0000;fill-opacity:1;stroke:none;font-family:Liberation Mono;-inkscape-font-specification:Liberation Mono"
       x="59.803493"
       y="461.70972"
       id="text5648-3"
       sodipodi:linespacing="125%"><tspan
         sodipodi:role="line"
         id="tspan5650-4"
         x="59.803493"
         y="461.70972"
         style="font-size:393.59249878px;fill:#ff0000">O</tspan></text>
    <text
       xml:space="preserve"
       style="font-size:138.91500854px;font-style:normal;font-variant:normal;font-weight:normal;font-stretch:normal;line-height:125%;letter-spacing:0px;word-spacing:0px;fill:#ff0000;fill-opacity:1;stroke:none;font-family:Liberation Mono;-inkscape-font-specification:Liberation Mono"
       x="739.65491"
       y="459.0434"
       id="text5648-3-8"
       sodipodi:linespacing="125%"><tspan
         sodipodi:role="line"
         id="tspan5650-4-1"
         x="739.65491"
         y="459.0434"
         style="font-size:393.59249878px;fill:#ff0000">O</tspan></text>
    <flowRoot
       xml:space="preserve"
       id="flowRoot5694"
       style="font-size:120px;font-style:normal;font-variant:normal;font-weight:normal;font-stretch:normal;line-height:125%;letter-spacing:0px;word-spacing:0px;fill:#000000;fill-opacity:1;stroke:none;font-family:Liberation Mono;-inkscape-font-specification:Liberation Mono"
       transform="translate(-4,-32)"><flowRegion
         id="flowRegion5696"><rect
           id="rect5698"
           width="785.42767"
           height="545.88379"
           x="-276.39685"
           y="-158.80186" /></flowRegion><flowPara
         id="flowPara5700" /></flowRoot>    <path
       sodipodi:type="arc"
       style="fill:#ff0000;fill-opacity:1;stroke:#000000;stroke-width:0.6448819;stroke-linejoin:miter;stroke-miterlimit:4;stroke-opacity:1;stroke-dasharray:none"
       id="path5702"
       sodipodi:cx="375.43906"
       sodipodi:cy="253.49008"
       sodipodi:rx="34.549606"
       sodipodi:ry="34.549606"
       d="m 409.98866,253.49008 a 34.549606,34.549606 0 1 1 -69.09921,0 34.549606,34.549606 0 1 1 69.09921,0 z"
       transform="matrix(0.71971831,0,0,0.73150342,82.498828,51.126547)" />
    <path
       sodipodi:type="arc"
       style="fill:#ff0000;fill-opacity:1;stroke:#000000;stroke-width:0.6448819;stroke-linejoin:miter;stroke-miterlimit:4;stroke-opacity:1;stroke-dasharray:none"
       id="path5702-4"
       sodipodi:cx="375.43906"
       sodipodi:cy="253.49008"
       sodipodi:rx="34.549606"
       sodipodi:ry="34.549606"
       d="m 409.98866,253.49008 a 34.549606,34.549606 0 1 1 -69.09921,0 34.549606,34.549606 0 1 1 69.09921,0 z"
       transform="matrix(0.71971831,0,0,0.73150342,81.657095,169.98382)" />
    <path
       sodipodi:type="arc"
       style="fill:#ff0000;fill-opacity:1;stroke:#000000;stroke-width:0.6448819;stroke-linejoin:miter;stroke-miterlimit:4;stroke-opacity:1;stroke-dasharray:none"
       id="path5702-2"
       sodipodi:cx="375.43906"
       sodipodi:cy="253.49008"
       sodipodi:rx="34.549606"
       sodipodi:ry="34.549606"
       d="m 409.98866,253.49008 a 34.549606,34.549606 0 1 1 -69.09921,0 34.549606,34.549606 0 1 1 69.09921,0 z"
       transform="matrix(0.71971831,0,0,0.73150342,395.17877,58.418966)" />
    <path
       sodipodi:type="arc"
       style="fill:#ff0000;fill-opacity:1;stroke:#000000;stroke-width:0.6448819;stroke-linejoin:miter;stroke-miterlimit:4;stroke-opacity:1;stroke-dasharray:none"
       id="path5702-6"
       sodipodi:cx="375.43906"
       sodipodi:cy="253.49008"
       sodipodi:rx="34.549606"
       sodipodi:ry="34.549606"
       d="m 409.98866,253.49008 a 34.549606,34.549606 0 1 1 -69.09921,0 34.549606,34.549606 0 1 1 69.09921,0 z"
       transform="matrix(0.71971831,0,0,0.73150342,394.36443,174.05553)" />
    <path
       sodipodi:type="arc"
       style="fill:#000000;fill-opacity:1;stroke:#000000;stroke-width:0.6448819;stroke-linejoin:miter;stroke-miterlimit:4;stroke-opacity:1;stroke-dasharray:none"
       id="path5702-3"
       sodipodi:cx="375.43906"
       sodipodi:cy="253.49008"
       sodipodi:rx="34.549606"
       sodipodi:ry="34.549606"
       d="m 409.98866,253.49008 a 34.549606,34.549606 0 1 1 -69.09921,0 34.549606,34.549606 0 1 1 69.09921,0 z"
       transform="matrix(0.71971831,0,0,0.73150342,82.462968,109.33367)" />
    <path
       sodipodi:type="arc"
       style="fill:#000000;fill-opacity:1;stroke:#000000;stroke-width:0.6448819;stroke-linejoin:miter;stroke-miterlimit:4;stroke-opacity:1;stroke-dasharray:none"
       id="path5702-4-6"
       sodipodi:cx="375.43906"
       sodipodi:cy="253.49008"
       sodipodi:rx="34.549606"
       sodipodi:ry="34.549606"
       d="m 409.98866,253.49008 a 34.549606,34.549606 0 1 1 -69.09921,0 34.549606,34.549606 0 1 1 69.09921,0 z"
       transform="matrix(0.71971831,0,0,0.73150342,81.621238,228.19095)" />
    <path
       sodipodi:type="arc"
       style="fill:#000000;fill-opacity:1;stroke:#000000;stroke-width:0.6448819;stroke-linejoin:miter;stroke-miterlimit:4;stroke-opacity:1;stroke-dasharray:none"
       id="path5702-2-3"
       sodipodi:cx="375.43906"
       sodipodi:cy="253.49008"
       sodipodi:rx="34.549606"
       sodipodi:ry="34.549606"
       d="m 409.98866,253.49008 a 34.549606,34.549606 0 1 1 -69.09921,0 34.549606,34.549606 0 1 1 69.09921,0 z"
       transform="matrix(0.71971831,0,0,0.73150342,395.14291,116.62609)" />
    <path
       sodipodi:type="arc"
       style="fill:#000000;fill-opacity:1;stroke:#000000;stroke-width:0.6448819;stroke-linejoin:miter;stroke-miterlimit:4;stroke-opacity:1;stroke-dasharray:none"
       id="path5702-6-8"
       sodipodi:cx="375.43906"
       sodipodi:cy="253.49008"
       sodipodi:rx="34.549606"
       sodipodi:ry="34.549606"
       d="m 409.98866,253.49008 a 34.549606,34.549606 0 1 1 -69.09921,0 34.549606,34.549606 0 1 1 69.09921,0 z"
       transform="matrix(0.71971831,0,0,0.73150342,394.32857,232.26266)" />
    <path
       sodipodi:type="arc"
       style="fill:#ff0000;fill-opacity:1;stroke:#000000;stroke-width:0.6448819;stroke-linejoin:miter;stroke-miterlimit:4;stroke-opacity:1;stroke-dasharray:none"
       id="path5702-1"
       sodipodi:cx="375.43906"
       sodipodi:cy="253.49008"
       sodipodi:rx="34.549606"
       sodipodi:ry="34.549606"
       d="m 409.98866,253.49008 a 34.549606,34.549606 0 1 1 -69.09921,0 34.549606,34.549606 0 1 1 69.09921,0 z"
       transform="matrix(0.71971831,0,0,0.73150342,-126.39359,-27.882961)" />
    <path
       sodipodi:type="arc"
       style="fill:#ff0000;fill-opacity:1;stroke:#000000;stroke-width:0.6448819;stroke-linejoin:miter;stroke-miterlimit:4;stroke-opacity:1;stroke-dasharray:none"
       id="path5702-4-0"
       sodipodi:cx="375.43906"
       sodipodi:cy="253.49008"
       sodipodi:rx="34.549606"
       sodipodi:ry="34.549606"
       d="m 409.98866,253.49008 a 34.549606,34.549606 0 1 1 -69.09921,0 34.549606,34.549606 0 1 1 69.09921,0 z"
       transform="matrix(0.71971831,0,0,0.73150342,-191.56834,2.211038)" />
    <path
       sodipodi:type="arc"
       style="fill:#ff0000;fill-opacity:1;stroke:#000000;stroke-width:0.6448819;stroke-linejoin:miter;stroke-miterlimit:4;stroke-opacity:1;stroke-dasharray:none"
       id="path5702-1-8"
       sodipodi:cx="375.43906"
       sodipodi:cy="253.49008"
       sodipodi:rx="34.549606"
       sodipodi:ry="34.549606"
       d="m 409.98866,253.49008 a 34.549606,34.549606 0 1 1 -69.09921,0 34.549606,34.549606 0 1 1 69.09921,0 z"
       transform="matrix(0.71971831,0,0,0.73150342,-129.24379,327.57733)" />
    <path
       sodipodi:type="arc"
       style="fill:#ff0000;fill-opacity:1;stroke:#000000;stroke-width:0.6448819;stroke-linejoin:miter;stroke-miterlimit:4;stroke-opacity:1;stroke-dasharray:none"
       id="path5702-4-0-2"
       sodipodi:cx="375.43906"
       sodipodi:cy="253.49008"
       sodipodi:rx="34.549606"
       sodipodi:ry="34.549606"
       d="m 409.98866,253.49008 a 34.549606,34.549606 0 1 1 -69.09921,0 34.549606,34.549606 0 1 1 69.09921,0 z"
       transform="matrix(0.71971831,0,0,0.73150342,-202.56196,284.38054)" />
    <path
       sodipodi:type="arc"
       style="fill:#ff0000;fill-opacity:1;stroke:#000000;stroke-width:0.6448819;stroke-linejoin:miter;stroke-miterlimit:4;stroke-opacity:1;stroke-dasharray:none"
       id="path5702-1-9"
       sodipodi:cx="375.43906"
       sodipodi:cy="253.49008"
       sodipodi:rx="34.549606"
       sodipodi:ry="34.549606"
       d="m 409.98866,253.49008 a 34.549606,34.549606 0 1 1 -69.09921,0 34.549606,34.549606 0 1 1 69.09921,0 z"
       transform="matrix(0.71971831,0,0,0.73150342,700.74917,-7.571579)" />
    <path
       sodipodi:type="arc"
       style="fill:#ff0000;fill-opacity:1;stroke:#000000;stroke-width:0.6448819;stroke-linejoin:miter;stroke-miterlimit:4;stroke-opacity:1;stroke-dasharray:none"
       id="path5702-4-0-6"
       sodipodi:cx="375.43906"
       sodipodi:cy="253.49008"
       sodipodi:rx="34.549606"
       sodipodi:ry="34.549606"
       d="m 409.98866,253.49008 a 34.549606,34.549606 0 1 1 -69.09921,0 34.549606,34.549606 0 1 1 69.09921,0 z"
       transform="matrix(0.71971831,0,0,0.73150342,627.18535,-36.201067)" />
    <path
       sodipodi:type="arc"
       style="fill:#ff0000;fill-opacity:1;stroke:#000000;stroke-width:0.6448819;stroke-linejoin:miter;stroke-miterlimit:4;stroke-opacity:1;stroke-dasharray:none"
       id="path5702-1-9-8"
       sodipodi:cx="375.43906"
       sodipodi:cy="253.49008"
       sodipodi:rx="34.549606"
       sodipodi:ry="34.549606"
       d="m 409.98866,253.49008 a 34.549606,34.549606 0 1 1 -69.09921,0 34.549606,34.549606 0 1 1 69.09921,0 z"
       transform="matrix(0.71971831,0,0,0.73150342,692.82616,289.30828)" />
    <path
       sodipodi:type="arc"
       style="fill:#ff0000;fill-opacity:1;stroke:#000000;stroke-width:0.6448819;stroke-linejoin:miter;stroke-miterlimit:4;stroke-opacity:1;stroke-dasharray:none"
       id="path5702-4-0-6-2"
       sodipodi:cx="375.43906"
       sodipodi:cy="253.49008"
       sodipodi:rx="34.549606"
       sodipodi:ry="34.549606"
       d="m 409.98866,253.49008 a 34.549606,34.549606 0 1 1 -69.09921,0 34.549606,34.549606 0 1 1 69.09921,0 z"
       transform="matrix(0.71971831,0,0,0.73150342,626.7193,327.79134)" />
    <text
       xml:space="preserve"
       style="font-size:120px;font-style:normal;font-variant:normal;font-weight:normal;font-stretch:normal;line-height:125%;letter-spacing:0px;word-spacing:0px;fill:#000000;fill-opacity:1;stroke:none;font-family:Liberation Mono;-inkscape-font-specification:Liberation Mono"
       x="23.692039"
       y="704.9455"
       id="text3008"
       sodipodi:linespacing="125%"><tspan
         sodipodi:role="line"
         id="tspan3010"
         x="23.692039"
         y="704.9455">carbon dioxide</tspan></text>
  </g>
</svg>
