<?xml version="1.0"?>
<svg xmlns="http://www.w3.org/2000/svg"
xmlns:xlink="http://www.w3.org/1999/xlink" xmlns:cml="http://www.xml-cml.org/schema" width="628.64" height="583.637" x="0" y="0" font-family="sans-serif" stroke="rgb(0,0,0)" stroke-width="1"  stroke-linecap="round">
<rect x="0%" y="0%" width="100%" height="100%" stroke-width="0" fill="rgb(255,255,255)"  />
<line x1="303.4" y1="473.7" x2="298.7" y2="446.5" stroke="rgb(0,0,0)"  stroke-width="1.0"/>
<line x1="297.7" y1="449.3" x2="271.8" y2="439.8" stroke="rgb(0,0,0)"  stroke-width="1.0"/>
<line x1="299.8" y1="443.7" x2="273.9" y2="434.1" stroke="rgb(0,0,0)"  stroke-width="1.0"/>
<line x1="298.7" y1="446.5" x2="330.0" y2="420.5" stroke="rgb(0,0,0)"  stroke-width="1.0"/>
<polygon points="323.079252 380.521470 333.899051 419.850676 326.014707 421.206081 " stroke-width="1.000000" fill="rgb(0,0,0)"  stroke="rgb(0,0,0)" />
<line x1="323.1" y1="380.5" x2="295.5" y2="379.7" stroke="rgb(0,0,0)"  stroke-width="1.0"/>
<polygon points="310.030184 342.080450 288.631432 324.823655 294.506081 319.393323 " stroke-width="1.000000" fill="rgb(0,0,0)"  stroke="rgb(0,0,0)" />
<line x1="310.0" y1="342.1" x2="270.4" y2="351.0" stroke="rgb(0,0,0)"  stroke-width="1.0"/>
<line x1="270.4" y1="351.0" x2="242.9" y2="321.2" stroke="rgb(0,0,0)"  stroke-width="1.0"/>
<line x1="242.9" y1="321.2" x2="254.9" y2="282.5" stroke="rgb(0,0,0)"  stroke-width="1.0"/>
<line x1="254.9" y1="282.5" x2="281.8" y2="276.4" stroke="rgb(0,0,0)"  stroke-width="1.0"/>
<line x1="252.7" y1="284.5" x2="234.0" y2="264.2" stroke="rgb(0,0,0)"  stroke-width="1.0"/>
<line x1="257.1" y1="280.4" x2="238.4" y2="260.2" stroke="rgb(0,0,0)"  stroke-width="1.0"/>
<line x1="384.4" y1="390.2" x2="377.2" y2="416.8" stroke="rgb(0,0,0)"  stroke-width="1.0"/>
<polygon points="426.967381 403.009730 416.830808 428.566992 409.902590 424.567018 " stroke-width="1.000000" fill="rgb(0,0,0)"  stroke="rgb(0,0,0)" />
<line x1="427.0" y1="403.0" x2="447.3" y2="438.2" stroke="rgb(0,0,0)"  stroke-width="1.0"/>
<line x1="447.3" y1="438.2" x2="427.0" y2="473.3" stroke="rgb(0,0,0)"  stroke-width="1.0"/>
<line x1="427.0" y1="473.3" x2="447.3" y2="508.5" stroke="rgb(0,0,0)"  stroke-width="1.0"/>
<line x1="447.3" y1="508.5" x2="433.5" y2="532.4" stroke="rgb(0,0,0)"  stroke-width="1.0"/>
<line x1="447.3" y1="505.5" x2="474.9" y2="505.5" stroke="rgb(0,0,0)"  stroke-width="1.0"/>
<line x1="447.3" y1="511.5" x2="474.9" y2="511.5" stroke="rgb(0,0,0)"  stroke-width="1.0"/>
<line x1="450.0" y1="396.0" x2="448.6" y2="396.8" stroke="rgb(0,0,0)"  stroke-width="1.0"/>
<line x1="452.7" y1="399.5" x2="450.2" y2="400.9" stroke="rgb(0,0,0)"  stroke-width="1.0"/>
<line x1="455.4" y1="402.9" x2="451.8" y2="405.0" stroke="rgb(0,0,0)"  stroke-width="1.0"/>
<line x1="458.2" y1="406.4" x2="453.4" y2="409.1" stroke="rgb(0,0,0)"  stroke-width="1.0"/>
<line x1="460.9" y1="409.8" x2="455.1" y2="413.2" stroke="rgb(0,0,0)"  stroke-width="1.0"/>
<line x1="463.6" y1="413.3" x2="456.7" y2="417.3" stroke="rgb(0,0,0)"  stroke-width="1.0"/>
<line x1="446.6" y1="391.7" x2="527.8" y2="391.7" stroke="rgb(0,0,0)"  stroke-width="1.0"/>
<line x1="527.8" y1="391.7" x2="548.0" y2="356.5" stroke="rgb(0,0,0)"  stroke-width="1.0"/>
<line x1="548.0" y1="356.5" x2="575.6" y2="356.5" stroke="rgb(0,0,0)"  stroke-width="1.0"/>
<line x1="545.4" y1="358.0" x2="531.7" y2="334.1" stroke="rgb(0,0,0)"  stroke-width="1.0"/>
<line x1="550.6" y1="355.0" x2="536.8" y2="331.1" stroke="rgb(0,0,0)"  stroke-width="1.0"/>
<line x1="447.9" y1="363.7" x2="449.4" y2="364.4" stroke="rgb(0,0,0)"  stroke-width="1.0"/>
<line x1="449.0" y1="359.5" x2="451.7" y2="360.6" stroke="rgb(0,0,0)"  stroke-width="1.0"/>
<line x1="450.1" y1="355.2" x2="453.9" y2="356.8" stroke="rgb(0,0,0)"  stroke-width="1.0"/>
<line x1="451.2" y1="351.0" x2="456.2" y2="353.0" stroke="rgb(0,0,0)"  stroke-width="1.0"/>
<line x1="452.2" y1="346.7" x2="458.4" y2="349.3" stroke="rgb(0,0,0)"  stroke-width="1.0"/>
<line x1="453.3" y1="342.4" x2="460.7" y2="345.5" stroke="rgb(0,0,0)"  stroke-width="1.0"/>
<line x1="435.7" y1="395.5" x2="463.3" y2="443.3" stroke="rgb(0,0,0)"  stroke-width="1.0"/>
<line x1="482.8" y1="454.6" x2="510.4" y2="454.6" stroke="rgb(0,0,0)"  stroke-width="1.0"/>
<line x1="510.4" y1="454.6" x2="538.0" y2="454.6" stroke="rgb(0,0,0)"  stroke-width="1.0"/>
<line x1="510.4" y1="450.4" x2="538.0" y2="450.4" stroke="rgb(0,0,0)"  stroke-width="1.0"/>
<line x1="510.4" y1="458.8" x2="538.0" y2="458.8" stroke="rgb(0,0,0)"  stroke-width="1.0"/>
<line x1="462.1" y1="349.5" x2="461.6" y2="351.0" stroke="rgb(0,0,0)"  stroke-width="1.0"/>
<line x1="466.4" y1="350.4" x2="465.4" y2="353.1" stroke="rgb(0,0,0)"  stroke-width="1.0"/>
<line x1="470.7" y1="351.4" x2="469.3" y2="355.3" stroke="rgb(0,0,0)"  stroke-width="1.0"/>
<line x1="475.0" y1="352.3" x2="473.2" y2="357.4" stroke="rgb(0,0,0)"  stroke-width="1.0"/>
<line x1="479.3" y1="353.2" x2="477.0" y2="359.5" stroke="rgb(0,0,0)"  stroke-width="1.0"/>
<line x1="483.7" y1="354.1" x2="480.9" y2="361.6" stroke="rgb(0,0,0)"  stroke-width="1.0"/>
<line x1="435.6" y1="286.2" x2="452.4" y2="264.3" stroke="rgb(0,0,0)"  stroke-width="1.0"/>
<line x1="383.9" y1="299.8" x2="362.0" y2="316.6" stroke="rgb(0,0,0)"  stroke-width="1.0"/>
<line x1="383.9" y1="299.8" x2="392.8" y2="367.5" stroke="rgb(0,0,0)"  stroke-width="1.0"/>
<line x1="407.8" y1="302.2" x2="406.2" y2="302.4" stroke="rgb(0,0,0)"  stroke-width="1.0"/>
<line x1="409.0" y1="306.4" x2="406.2" y2="306.8" stroke="rgb(0,0,0)"  stroke-width="1.0"/>
<line x1="410.2" y1="310.6" x2="406.1" y2="311.2" stroke="rgb(0,0,0)"  stroke-width="1.0"/>
<line x1="411.4" y1="314.9" x2="406.0" y2="315.6" stroke="rgb(0,0,0)"  stroke-width="1.0"/>
<line x1="412.6" y1="319.1" x2="406.0" y2="320.0" stroke="rgb(0,0,0)"  stroke-width="1.0"/>
<line x1="413.8" y1="323.3" x2="405.9" y2="324.4" stroke="rgb(0,0,0)"  stroke-width="1.0"/>
<line x1="406.3" y1="296.9" x2="443.8" y2="312.4" stroke="rgb(0,0,0)"  stroke-width="1.0"/>
<line x1="443.8" y1="312.4" x2="476.0" y2="287.7" stroke="rgb(0,0,0)"  stroke-width="1.0"/>
<line x1="476.0" y1="287.7" x2="513.5" y2="303.2" stroke="rgb(0,0,0)"  stroke-width="1.0"/>
<line x1="513.5" y1="303.2" x2="535.4" y2="286.5" stroke="rgb(0,0,0)"  stroke-width="1.0"/>
<line x1="516.5" y1="302.9" x2="520.1" y2="330.2" stroke="rgb(0,0,0)"  stroke-width="1.0"/>
<line x1="510.5" y1="303.6" x2="514.1" y2="331.0" stroke="rgb(0,0,0)"  stroke-width="1.0"/>
<line x1="425.6" y1="309.2" x2="426.9" y2="308.2" stroke="rgb(0,0,0)"  stroke-width="1.0"/>
<line x1="419.8" y1="302.6" x2="422.1" y2="300.9" stroke="rgb(0,0,0)"  stroke-width="1.0"/>
<line x1="414.0" y1="296.1" x2="417.3" y2="293.6" stroke="rgb(0,0,0)"  stroke-width="1.0"/>
<line x1="408.2" y1="289.6" x2="412.5" y2="286.3" stroke="rgb(0,0,0)"  stroke-width="1.0"/>
<line x1="402.4" y1="283.1" x2="407.8" y2="279.0" stroke="rgb(0,0,0)"  stroke-width="1.0"/>
<line x1="396.6" y1="276.6" x2="403.0" y2="271.7" stroke="rgb(0,0,0)"  stroke-width="1.0"/>
<line x1="432.9" y1="317.3" x2="392.7" y2="322.6" stroke="rgb(0,0,0)"  stroke-width="1.0"/>
<line x1="392.7" y1="322.6" x2="343.2" y2="258.2" stroke="rgb(0,0,0)"  stroke-width="1.0"/>
<line x1="343.2" y1="258.2" x2="358.8" y2="220.7" stroke="rgb(0,0,0)"  stroke-width="1.0"/>
<line x1="358.4" y1="217.7" x2="385.7" y2="214.1" stroke="rgb(0,0,0)"  stroke-width="1.0"/>
<line x1="359.2" y1="223.7" x2="386.5" y2="220.1" stroke="rgb(0,0,0)"  stroke-width="1.0"/>
<line x1="358.8" y1="220.7" x2="342.0" y2="198.8" stroke="rgb(0,0,0)"  stroke-width="1.0"/>
<line x1="339.0" y1="176.5" x2="349.6" y2="151.0" stroke="rgb(0,0,0)"  stroke-width="1.0"/>
<line x1="349.6" y1="151.0" x2="324.9" y2="118.8" stroke="rgb(0,0,0)"  stroke-width="1.0"/>
<line x1="324.9" y1="118.8" x2="335.4" y2="93.3" stroke="rgb(0,0,0)"  stroke-width="1.0"/>
<line x1="324.9" y1="118.8" x2="297.5" y2="122.4" stroke="rgb(0,0,0)"  stroke-width="1.0"/>
<line x1="276.7" y1="113.8" x2="267.8" y2="102.2" stroke="rgb(0,0,0)"  stroke-width="1.0"/>
<line x1="270.2" y1="83.9" x2="281.8" y2="75.1" stroke="rgb(0,0,0)"  stroke-width="1.0"/>
<line x1="249.6" y1="83.4" x2="240.7" y2="71.8" stroke="rgb(0,0,0)"  stroke-width="1.0"/>
<line x1="254.4" y1="79.7" x2="245.5" y2="68.1" stroke="rgb(0,0,0)"  stroke-width="1.0"/>
<line x1="249.6" y1="99.8" x2="238.0" y2="108.7" stroke="rgb(0,0,0)"  stroke-width="1.0"/>
<line x1="215.7" y1="111.6" x2="190.2" y2="101.0" stroke="rgb(0,0,0)"  stroke-width="1.0"/>
<line x1="190.5" y1="95.5" x2="192.0" y2="95.9" stroke="rgb(0,0,0)"  stroke-width="1.0"/>
<line x1="190.7" y1="91.2" x2="193.5" y2="91.7" stroke="rgb(0,0,0)"  stroke-width="1.0"/>
<line x1="190.9" y1="86.8" x2="195.0" y2="87.6" stroke="rgb(0,0,0)"  stroke-width="1.0"/>
<line x1="191.1" y1="82.4" x2="196.4" y2="83.4" stroke="rgb(0,0,0)"  stroke-width="1.0"/>
<line x1="191.3" y1="78.0" x2="197.9" y2="79.3" stroke="rgb(0,0,0)"  stroke-width="1.0"/>
<line x1="191.5" y1="73.6" x2="199.3" y2="75.1" stroke="rgb(0,0,0)"  stroke-width="1.0"/>
<polygon points="155.590621 79.827073 136.889044 59.678641 143.482010 55.147327 " stroke-width="1.000000" fill="rgb(0,0,0)"  stroke="rgb(0,0,0)" />
<line x1="155.6" y1="79.8" x2="173.1" y2="43.2" stroke="rgb(0,0,0)"  stroke-width="1.0"/>
<line x1="173.1" y1="43.2" x2="200.6" y2="41.0" stroke="rgb(0,0,0)"  stroke-width="1.0"/>
<line x1="140.9" y1="149.2" x2="139.3" y2="149.1" stroke="rgb(0,0,0)"  stroke-width="1.0"/>
<line x1="141.4" y1="153.5" x2="138.6" y2="153.4" stroke="rgb(0,0,0)"  stroke-width="1.0"/>
<line x1="142.0" y1="157.9" x2="137.8" y2="157.8" stroke="rgb(0,0,0)"  stroke-width="1.0"/>
<line x1="142.5" y1="162.3" x2="137.1" y2="162.1" stroke="rgb(0,0,0)"  stroke-width="1.0"/>
<line x1="143.0" y1="166.6" x2="136.3" y2="166.5" stroke="rgb(0,0,0)"  stroke-width="1.0"/>
<line x1="143.5" y1="171.0" x2="135.5" y2="170.8" stroke="rgb(0,0,0)"  stroke-width="1.0"/>
<line x1="140.3" y1="143.7" x2="116.0" y2="156.9" stroke="rgb(0,0,0)"  stroke-width="1.0"/>
<line x1="72.2" y1="279.8" x2="63.0" y2="305.9" stroke="rgb(0,0,0)"  stroke-width="1.0"/>
<line x1="112.1" y1="272.5" x2="130.0" y2="293.4" stroke="rgb(0,0,0)"  stroke-width="1.0"/>
<line x1="186.1" y1="141.6" x2="185.6" y2="143.1" stroke="rgb(0,0,0)"  stroke-width="1.0"/>
<line x1="190.4" y1="142.4" x2="189.5" y2="145.1" stroke="rgb(0,0,0)"  stroke-width="1.0"/>
<line x1="194.8" y1="143.3" x2="193.4" y2="147.2" stroke="rgb(0,0,0)"  stroke-width="1.0"/>
<line x1="199.1" y1="144.1" x2="197.3" y2="149.2" stroke="rgb(0,0,0)"  stroke-width="1.0"/>
<line x1="203.4" y1="145.0" x2="201.1" y2="151.3" stroke="rgb(0,0,0)"  stroke-width="1.0"/>
<line x1="207.7" y1="145.8" x2="205.0" y2="153.4" stroke="rgb(0,0,0)"  stroke-width="1.0"/>
<line x1="180.7" y1="140.5" x2="185.8" y2="167.6" stroke="rgb(0,0,0)"  stroke-width="1.0"/>
<polygon points="435.858293 339.733811 409.414117 347.249641 408.369945 339.318077 " stroke-width="1.000000" fill="rgb(0,0,0)"  stroke="rgb(0,0,0)" />
<line x1="435.9" y1="339.7" x2="373.7" y2="489.8" stroke="rgb(0,0,0)"  stroke-width="1.0"/>
<line x1="373.7" y1="489.8" x2="333.5" y2="495.1" stroke="rgb(0,0,0)"  stroke-width="1.0"/>
<line x1="333.5" y1="495.1" x2="316.7" y2="473.2" stroke="rgb(0,0,0)"  stroke-width="1.0"/>
<line x1="336.2" y1="496.2" x2="325.7" y2="521.7" stroke="rgb(0,0,0)"  stroke-width="1.0"/>
<line x1="330.7" y1="493.9" x2="320.1" y2="519.4" stroke="rgb(0,0,0)"  stroke-width="1.0"/>
<line x1="323.1" y1="380.5" x2="310.0" y2="342.1" stroke="rgb(0,0,0)"  stroke-width="1.0"/>
<line x1="310.0" y1="342.1" x2="342.6" y2="317.8" stroke="rgb(0,0,0)"  stroke-width="1.0"/>
<line x1="342.6" y1="317.8" x2="365.1" y2="333.7" stroke="rgb(0,0,0)"  stroke-width="1.0"/>
<line x1="371.7" y1="354.0" x2="363.7" y2="380.0" stroke="rgb(0,0,0)"  stroke-width="1.0"/>
<line x1="364.3" y1="353.7" x2="358.6" y2="372.1" stroke="rgb(0,0,0)"  stroke-width="1.0"/>
<line x1="363.7" y1="380.0" x2="323.1" y2="380.5" stroke="rgb(0,0,0)"  stroke-width="1.0"/>
<line x1="407.4" y1="391.7" x2="427.0" y2="403.0" stroke="rgb(0,0,0)"  stroke-width="1.0"/>
<line x1="427.0" y1="403.0" x2="446.6" y2="391.7" stroke="rgb(0,0,0)"  stroke-width="1.0"/>
<line x1="446.6" y1="391.7" x2="446.6" y2="369.1" stroke="rgb(0,0,0)"  stroke-width="1.0"/>
<line x1="446.6" y1="369.1" x2="439.0" y2="375.7" stroke="rgb(0,0,0)"  stroke-width="1.0"/>
<line x1="416.9" y1="388.5" x2="407.4" y2="391.7" stroke="rgb(0,0,0)"  stroke-width="1.0"/>
<line x1="456.8" y1="348.4" x2="457.4" y2="338.3" stroke="rgb(0,0,0)"  stroke-width="1.0"/>
<line x1="455.8" y1="318.2" x2="450.9" y2="303.5" stroke="rgb(0,0,0)"  stroke-width="1.0"/>
<line x1="447.8" y1="317.0" x2="446.0" y2="311.5" stroke="rgb(0,0,0)"  stroke-width="1.0"/>
<line x1="450.9" y1="303.5" x2="432.9" y2="317.3" stroke="rgb(0,0,0)"  stroke-width="1.0"/>
<line x1="432.9" y1="317.3" x2="435.9" y2="339.7" stroke="rgb(0,0,0)"  stroke-width="1.0"/>
<line x1="435.9" y1="339.7" x2="456.8" y2="348.4" stroke="rgb(0,0,0)"  stroke-width="1.0"/>
<line x1="404.9" y1="275.3" x2="415.0" y2="276.0" stroke="rgb(0,0,0)"  stroke-width="1.0"/>
<line x1="415.0" y1="276.0" x2="406.3" y2="296.9" stroke="rgb(0,0,0)"  stroke-width="1.0"/>
<line x1="406.3" y1="296.9" x2="383.9" y2="299.8" stroke="rgb(0,0,0)"  stroke-width="1.0"/>
<line x1="383.9" y1="299.8" x2="370.1" y2="281.9" stroke="rgb(0,0,0)"  stroke-width="1.0"/>
<line x1="370.1" y1="281.9" x2="384.7" y2="276.9" stroke="rgb(0,0,0)"  stroke-width="1.0"/>
<line x1="378.1" y1="286.8" x2="383.6" y2="284.9" stroke="rgb(0,0,0)"  stroke-width="1.0"/>
<line x1="190.2" y1="101.0" x2="155.6" y2="79.8" stroke="rgb(0,0,0)"  stroke-width="1.0"/>
<line x1="155.6" y1="79.8" x2="134.6" y2="97.7" stroke="rgb(0,0,0)"  stroke-width="1.0"/>
<line x1="129.7" y1="118.2" x2="140.3" y2="143.7" stroke="rgb(0,0,0)"  stroke-width="1.0"/>
<line x1="140.3" y1="143.7" x2="180.7" y2="140.5" stroke="rgb(0,0,0)"  stroke-width="1.0"/>
<line x1="180.7" y1="140.5" x2="190.2" y2="101.0" stroke="rgb(0,0,0)"  stroke-width="1.0"/>
<line x1="92.8" y1="157.5" x2="67.9" y2="145.6" stroke="rgb(0,0,0)"  stroke-width="1.0"/>
<line x1="67.9" y1="145.6" x2="49.2" y2="165.3" stroke="rgb(0,0,0)"  stroke-width="1.0"/>
<line x1="69.0" y1="154.9" x2="55.8" y2="168.9" stroke="rgb(0,0,0)"  stroke-width="1.0"/>
<line x1="46.2" y1="186.5" x2="59.4" y2="210.7" stroke="rgb(0,0,0)"  stroke-width="1.0"/>
<line x1="59.4" y1="210.7" x2="99.3" y2="203.3" stroke="rgb(0,0,0)"  stroke-width="1.0"/>
<line x1="99.3" y1="203.3" x2="102.9" y2="176.0" stroke="rgb(0,0,0)"  stroke-width="1.0"/>
<line x1="45.8" y1="249.0" x2="72.2" y2="279.8" stroke="rgb(0,0,0)"  stroke-width="1.0"/>
<line x1="72.2" y1="279.8" x2="112.1" y2="272.5" stroke="rgb(0,0,0)"  stroke-width="1.0"/>
<line x1="76.8" y1="271.7" x2="104.9" y2="266.5" stroke="rgb(0,0,0)"  stroke-width="1.0"/>
<line x1="112.1" y1="272.5" x2="125.7" y2="234.2" stroke="rgb(0,0,0)"  stroke-width="1.0"/>
<line x1="125.7" y1="234.2" x2="99.3" y2="203.3" stroke="rgb(0,0,0)"  stroke-width="1.0"/>
<line x1="116.3" y1="234.3" x2="97.7" y2="212.6" stroke="rgb(0,0,0)"  stroke-width="1.0"/>
<line x1="59.4" y1="210.7" x2="45.8" y2="249.0" stroke="rgb(0,0,0)"  stroke-width="1.0"/>
<line x1="64.2" y1="218.8" x2="54.6" y2="245.7" stroke="rgb(0,0,0)"  stroke-width="1.0"/>
<line x1="450.9" y1="303.5" x2="435.6" y2="286.2" stroke="rgb(0,0,0)"  stroke-width="1.0"/>
<line x1="435.6" y1="286.2" x2="415.0" y2="276.0" stroke="rgb(0,0,0)"  stroke-width="1.0"/>
<line x1="427.1" y1="290.0" x2="417.2" y2="285.1" stroke="rgb(0,0,0)"  stroke-width="1.0"/>
<line x1="370.1" y1="281.9" x2="352.8" y2="297.1" stroke="rgb(0,0,0)"  stroke-width="1.0"/>
<line x1="352.8" y1="297.1" x2="342.6" y2="317.8" stroke="rgb(0,0,0)"  stroke-width="1.0"/>
<line x1="356.6" y1="305.7" x2="351.7" y2="315.6" stroke="rgb(0,0,0)"  stroke-width="1.0"/>
<line x1="363.7" y1="380.0" x2="384.4" y2="390.2" stroke="rgb(0,0,0)"  stroke-width="1.0"/>
<line x1="384.4" y1="390.2" x2="407.4" y2="391.7" stroke="rgb(0,0,0)"  stroke-width="1.0"/>
<line x1="390.8" y1="383.4" x2="401.9" y2="384.1" stroke="rgb(0,0,0)"  stroke-width="1.0"/>
<line x1="446.6" y1="369.1" x2="456.8" y2="348.4" stroke="rgb(0,0,0)"  stroke-width="1.0"/>
<text x="301.617625" y="494.497451" fill="rgb(12,12,255)"  stroke="rgb(12,12,255)" stroke-width="1" font-size="16" >NH</text>
<text x="325.617625" y="498.177451" fill="rgb(12,12,255)"  stroke="rgb(12,12,255)" stroke-width="1" font-size="13" >2</text>
<text x="254.658650" y="440.437024" fill="rgb(255,12,12)"  stroke="rgb(255,12,12)" stroke-width="1" font-size="16" >O</text>
<text x="256.502132" y="387.297709" fill="rgb(102,102,102)"  stroke="rgb(102,102,102)" stroke-width="1" font-size="16" >H</text>
<text x="268.502132" y="390.977709" fill="rgb(102,102,102)"  stroke="rgb(102,102,102)" stroke-width="1" font-size="13" >3</text>
<text x="275.002132" y="387.297709" fill="rgb(102,102,102)"  stroke="rgb(102,102,102)" stroke-width="1" font-size="16" >C</text>
<text x="276.475815" y="320.271553" fill="rgb(191,191,191)"  stroke="rgb(191,191,191)" stroke-width="1" font-size="16" >H</text>
<text x="290.516048" y="281.501565" fill="rgb(12,12,255)"  stroke="rgb(12,12,255)" stroke-width="1" font-size="16" >NH</text>
<text x="314.516048" y="285.181565" fill="rgb(12,12,255)"  stroke="rgb(12,12,255)" stroke-width="1" font-size="13" >2</text>
<text x="221.362691" y="260.649373" fill="rgb(255,12,12)"  stroke="rgb(255,12,12)" stroke-width="1" font-size="16" >O</text>
<text x="369.709763" y="349.220747" fill="rgb(12,12,255)"  stroke="rgb(12,12,255)" stroke-width="1" font-size="16" >N</text>
<text x="347.854383" y="437.401745" fill="rgb(102,102,102)"  stroke="rgb(102,102,102)" stroke-width="1" font-size="16" >H</text>
<text x="359.854383" y="441.081745" fill="rgb(102,102,102)"  stroke="rgb(102,102,102)" stroke-width="1" font-size="13" >3</text>
<text x="366.354383" y="437.401745" fill="rgb(102,102,102)"  stroke="rgb(102,102,102)" stroke-width="1" font-size="16" >C</text>
<text x="400.667856" y="446.169842" fill="rgb(191,191,191)"  stroke="rgb(191,191,191)" stroke-width="1" font-size="16" >H</text>
<text x="400.967381" y="551.637018" fill="rgb(12,12,255)"  stroke="rgb(12,12,255)" stroke-width="1" font-size="16" >H</text>
<text x="412.967381" y="555.317018" fill="rgb(12,12,255)"  stroke="rgb(12,12,255)" stroke-width="1" font-size="13" >2</text>
<text x="419.467381" y="551.637018" fill="rgb(12,12,255)"  stroke="rgb(12,12,255)" stroke-width="1" font-size="16" >N</text>
<text x="481.861572" y="516.481293" fill="rgb(255,12,12)"  stroke="rgb(255,12,12)" stroke-width="1" font-size="16" >O</text>
<text x="462.855861" y="434.857725" fill="rgb(102,102,102)"  stroke="rgb(102,102,102)" stroke-width="1" font-size="16" >CH</text>
<text x="486.855861" y="438.537725" fill="rgb(102,102,102)"  stroke="rgb(102,102,102)" stroke-width="1" font-size="13" >3</text>
<text x="584.639856" y="364.541888" fill="rgb(12,12,255)"  stroke="rgb(12,12,255)" stroke-width="1" font-size="16" >NH</text>
<text x="608.639856" y="368.221888" fill="rgb(12,12,255)"  stroke="rgb(12,12,255)" stroke-width="1" font-size="13" >2</text>
<text x="521.750052" y="329.386163" fill="rgb(255,12,12)"  stroke="rgb(255,12,12)" stroke-width="1" font-size="16" >O</text>
<text x="458.166969" y="339.601719" fill="rgb(102,102,102)"  stroke="rgb(102,102,102)" stroke-width="1" font-size="16" >CH</text>
<text x="482.166969" y="343.281719" fill="rgb(102,102,102)"  stroke="rgb(102,102,102)" stroke-width="1" font-size="13" >3</text>
<text x="423.217523" y="392.284866" fill="rgb(12,12,255)"  stroke="rgb(12,12,255)" stroke-width="1" font-size="16" >N</text>
<text x="474.612188" y="450.568703" fill="rgb(239,142,160)"  stroke="rgb(239,142,160)" stroke-width="1" font-size="16" >+</text>
<text x="457.812188" y="462.600703" fill="rgb(239,142,160)"  stroke="rgb(239,142,160)" stroke-width="1" font-size="16" >Co</text>
<text x="545.001518" y="462.600703" fill="rgb(12,12,255)"  stroke="rgb(12,12,255)" stroke-width="1" font-size="16" >N</text>
<text x="488.818151" y="370.520335" fill="rgb(191,191,191)"  stroke="rgb(191,191,191)" stroke-width="1" font-size="16" >H</text>
<text x="452.267600" y="333.377643" fill="rgb(12,12,255)"  stroke="rgb(12,12,255)" stroke-width="1" font-size="16" >N</text>
<text x="456.359838" y="261.987176" fill="rgb(102,102,102)"  stroke="rgb(102,102,102)" stroke-width="1" font-size="16" >CH</text>
<text x="480.359838" y="265.667176" fill="rgb(102,102,102)"  stroke="rgb(102,102,102)" stroke-width="1" font-size="13" >3</text>
<text x="385.943243" y="282.484083" fill="rgb(12,12,255)"  stroke="rgb(12,12,255)" stroke-width="1" font-size="16" >N</text>
<text x="325.668774" y="332.557415" fill="rgb(102,102,102)"  stroke="rgb(102,102,102)" stroke-width="1" font-size="16" >H</text>
<text x="337.668774" y="336.237415" fill="rgb(102,102,102)"  stroke="rgb(102,102,102)" stroke-width="1" font-size="13" >3</text>
<text x="344.168774" y="332.557415" fill="rgb(102,102,102)"  stroke="rgb(102,102,102)" stroke-width="1" font-size="16" >C</text>
<text x="390.469718" y="388.341634" fill="rgb(102,102,102)"  stroke="rgb(102,102,102)" stroke-width="1" font-size="16" >CH</text>
<text x="414.469718" y="392.021634" fill="rgb(102,102,102)"  stroke="rgb(102,102,102)" stroke-width="1" font-size="13" >3</text>
<text x="405.602377" y="345.141542" fill="rgb(191,191,191)"  stroke="rgb(191,191,191)" stroke-width="1" font-size="16" >H</text>
<text x="541.724869" y="286.536970" fill="rgb(12,12,255)"  stroke="rgb(12,12,255)" stroke-width="1" font-size="16" >NH</text>
<text x="565.724869" y="290.216970" fill="rgb(12,12,255)"  stroke="rgb(12,12,255)" stroke-width="1" font-size="13" >2</text>
<text x="512.819664" y="351.497206" fill="rgb(255,12,12)"  stroke="rgb(255,12,12)" stroke-width="1" font-size="16" >O</text>
<text x="357.482183" y="260.895002" fill="rgb(102,102,102)"  stroke="rgb(102,102,102)" stroke-width="1" font-size="16" >H</text>
<text x="369.482183" y="264.575002" fill="rgb(102,102,102)"  stroke="rgb(102,102,102)" stroke-width="1" font-size="13" >3</text>
<text x="375.982183" y="260.895002" fill="rgb(102,102,102)"  stroke="rgb(102,102,102)" stroke-width="1" font-size="16" >C</text>
<text x="393.018251" y="223.388251" fill="rgb(255,12,12)"  stroke="rgb(255,12,12)" stroke-width="1" font-size="16" >O</text>
<text x="316.053628" y="196.478660" fill="rgb(12,12,255)"  stroke="rgb(12,12,255)" stroke-width="1" font-size="16" >HN</text>
<text x="336.413678" y="89.265760" fill="rgb(102,102,102)"  stroke="rgb(102,102,102)" stroke-width="1" font-size="16" >CH</text>
<text x="360.413678" y="92.945760" fill="rgb(102,102,102)"  stroke="rgb(102,102,102)" stroke-width="1" font-size="13" >3</text>
<text x="278.629459" y="132.066704" fill="rgb(255,12,12)"  stroke="rgb(255,12,12)" stroke-width="1" font-size="16" >O</text>
<text x="253.917375" y="99.862919" fill="rgb(255,127,0)"  stroke="rgb(255,127,0)" stroke-width="1" font-size="16" >P</text>
<text x="296.925546" y="53.034448" fill="rgb(255,12,12)"  stroke="rgb(255,12,12)" stroke-width="1" font-size="16" >_</text>
<text x="286.125546" y="75.146448" fill="rgb(255,12,12)"  stroke="rgb(255,12,12)" stroke-width="1" font-size="16" >O</text>
<text x="229.205290" y="67.654748" fill="rgb(255,12,12)"  stroke="rgb(255,12,12)" stroke-width="1" font-size="16" >O</text>
<text x="221.709204" y="124.575004" fill="rgb(255,12,12)"  stroke="rgb(255,12,12)" stroke-width="1" font-size="16" >O</text>
<text x="191.970487" y="69.194319" fill="rgb(191,191,191)"  stroke="rgb(191,191,191)" stroke-width="1" font-size="16" >H</text>
<text x="126.597944" y="54.373209" fill="rgb(191,191,191)"  stroke="rgb(191,191,191)" stroke-width="1" font-size="16" >H</text>
<text x="207.537258" y="48.000000" fill="rgb(255,12,12)"  stroke="rgb(255,12,12)" stroke-width="1" font-size="16" >OH</text>
<text x="118.724640" y="114.192770" fill="rgb(255,12,12)"  stroke="rgb(255,12,12)" stroke-width="1" font-size="16" >O</text>
<text x="133.194851" y="192.281027" fill="rgb(191,191,191)"  stroke="rgb(191,191,191)" stroke-width="1" font-size="16" >H</text>
<text x="98.583019" y="171.069163" fill="rgb(12,12,255)"  stroke="rgb(12,12,255)" stroke-width="1" font-size="16" >N</text>
<text x="34.000000" y="183.039216" fill="rgb(12,12,255)"  stroke="rgb(12,12,255)" stroke-width="1" font-size="16" >N</text>
<text x="32.632754" y="326.114027" fill="rgb(102,102,102)"  stroke="rgb(102,102,102)" stroke-width="1" font-size="16" >H</text>
<text x="44.632754" y="329.794027" fill="rgb(102,102,102)"  stroke="rgb(102,102,102)" stroke-width="1" font-size="13" >3</text>
<text x="51.132754" y="326.114027" fill="rgb(102,102,102)"  stroke="rgb(102,102,102)" stroke-width="1" font-size="16" >C</text>
<text x="134.462349" y="311.319234" fill="rgb(102,102,102)"  stroke="rgb(102,102,102)" stroke-width="1" font-size="16" >CH</text>
<text x="158.462349" y="314.999234" fill="rgb(102,102,102)"  stroke="rgb(102,102,102)" stroke-width="1" font-size="13" >3</text>
<text x="212.993742" y="162.064209" fill="rgb(191,191,191)"  stroke="rgb(191,191,191)" stroke-width="1" font-size="16" >H</text>
<text x="182.127761" y="188.429907" fill="rgb(255,12,12)"  stroke="rgb(255,12,12)" stroke-width="1" font-size="16" >OH</text>
<text x="389.610141" y="353.032391" fill="rgb(191,191,191)"  stroke="rgb(191,191,191)" stroke-width="1" font-size="16" >H</text>
<text x="282.758174" y="470.846837" fill="rgb(12,12,255)"  stroke="rgb(12,12,255)" stroke-width="1" font-size="16" >H</text>
<text x="294.758174" y="474.526837" fill="rgb(12,12,255)"  stroke="rgb(12,12,255)" stroke-width="1" font-size="13" >2</text>
<text x="301.258174" y="470.846837" fill="rgb(12,12,255)"  stroke="rgb(12,12,255)" stroke-width="1" font-size="16" >N</text>
<text x="311.934191" y="540.557372" fill="rgb(255,12,12)"  stroke="rgb(255,12,12)" stroke-width="1" font-size="16" >O</text>
<text font-size="18.000000" fill ="black" font-family="sans-serif"
x="10.000000" y="20.000000" >vitamin B-12</text>
<title>vitamin B-12 - OBDepict</title>
</svg>
