<?xml version="1.0"?>
<svg xmlns="http://www.w3.org/2000/svg"
xmlns:xlink="http://www.w3.org/1999/xlink" xmlns:cml="http://www.xml-cml.org/schema" width="351.455" height="392.743" x="0" y="0" font-family="sans-serif" stroke="rgb(0,0,0)" stroke-width="1"  stroke-linecap="round">
<rect x="0%" y="0%" width="100%" height="100%" stroke-width="0" fill="rgb(255,255,255)"  />
<line x1="232.6" y1="346.2" x2="210.1" y2="333.2" stroke="rgb(0,0,0)"  stroke-width="1.0"/>
<line x1="210.1" y1="333.2" x2="210.1" y2="294.2" stroke="rgb(0,0,0)"  stroke-width="1.0"/>
<line x1="210.1" y1="294.2" x2="243.9" y2="274.7" stroke="rgb(0,0,0)"  stroke-width="1.0"/>
<line x1="210.1" y1="294.2" x2="176.3" y2="274.7" stroke="rgb(0,0,0)"  stroke-width="1.0"/>
<line x1="240.9" y1="274.7" x2="246.9" y2="235.7" stroke="rgb(0,0,0)"  stroke-width="1.0"/>
<line x1="246.9" y1="274.7" x2="240.9" y2="235.7" stroke="rgb(0,0,0)"  stroke-width="1.0"/>
<line x1="243.9" y1="235.7" x2="277.7" y2="216.1" stroke="rgb(0,0,0)"  stroke-width="1.0"/>
<line x1="277.7" y1="216.1" x2="300.2" y2="229.1" stroke="rgb(0,0,0)"  stroke-width="1.0"/>
<line x1="277.7" y1="216.1" x2="277.6" y2="177.1" stroke="rgb(0,0,0)"  stroke-width="1.0"/>
<line x1="243.8" y1="157.6" x2="243.8" y2="184.6" stroke="rgb(0,0,0)"  stroke-width="1.0"/>
<line x1="142.3" y1="99.0" x2="142.3" y2="126.0" stroke="rgb(0,0,0)"  stroke-width="1.0"/>
<line x1="74.6" y1="60.0" x2="51.3" y2="46.5" stroke="rgb(0,0,0)"  stroke-width="1.0"/>
<line x1="176.3" y1="274.7" x2="176.3" y2="248.7" stroke="rgb(0,0,0)"  stroke-width="1.0"/>
<line x1="176.3" y1="274.7" x2="153.7" y2="287.7" stroke="rgb(0,0,0)"  stroke-width="1.0"/>
<line x1="277.6" y1="177.1" x2="311.4" y2="157.6" stroke="rgb(0,0,0)"  stroke-width="1.0"/>
<line x1="311.4" y1="157.6" x2="311.4" y2="118.5" stroke="rgb(0,0,0)"  stroke-width="1.0"/>
<line x1="311.4" y1="118.5" x2="243.8" y2="118.5" stroke="rgb(0,0,0)"  stroke-width="1.0"/>
<line x1="243.8" y1="118.5" x2="243.8" y2="157.6" stroke="rgb(0,0,0)"  stroke-width="1.0"/>
<line x1="243.8" y1="157.6" x2="277.6" y2="177.1" stroke="rgb(0,0,0)"  stroke-width="1.0"/>
<line x1="176.1" y1="118.6" x2="176.1" y2="157.6" stroke="rgb(0,0,0)"  stroke-width="1.0"/>
<line x1="176.1" y1="157.6" x2="210.0" y2="177.1" stroke="rgb(0,0,0)"  stroke-width="1.0"/>
<line x1="210.0" y1="177.1" x2="243.8" y2="157.6" stroke="rgb(0,0,0)"  stroke-width="1.0"/>
<line x1="243.8" y1="118.5" x2="209.9" y2="99.0" stroke="rgb(0,0,0)"  stroke-width="1.0"/>
<line x1="209.9" y1="99.0" x2="176.1" y2="118.6" stroke="rgb(0,0,0)"  stroke-width="1.0"/>
<line x1="142.3" y1="60.0" x2="142.3" y2="99.0" stroke="rgb(0,0,0)"  stroke-width="1.0"/>
<line x1="142.3" y1="99.0" x2="176.1" y2="118.6" stroke="rgb(0,0,0)"  stroke-width="1.0"/>
<line x1="209.9" y1="99.0" x2="209.9" y2="60.0" stroke="rgb(0,0,0)"  stroke-width="1.0"/>
<line x1="209.9" y1="60.0" x2="176.1" y2="40.4" stroke="rgb(0,0,0)"  stroke-width="1.0"/>
<line x1="176.1" y1="40.4" x2="142.3" y2="60.0" stroke="rgb(0,0,0)"  stroke-width="1.0"/>
<line x1="174.5" y1="49.7" x2="151.1" y2="63.2" stroke="rgb(0,0,0)"  stroke-width="1.0"/>
<line x1="74.6" y1="60.0" x2="108.5" y2="40.4" stroke="rgb(0,0,0)"  stroke-width="1.0"/>
<line x1="108.5" y1="40.4" x2="142.3" y2="60.0" stroke="rgb(0,0,0)"  stroke-width="1.0"/>
<line x1="142.3" y1="99.0" x2="108.5" y2="118.6" stroke="rgb(0,0,0)"  stroke-width="1.0"/>
<line x1="108.5" y1="118.6" x2="74.7" y2="99.1" stroke="rgb(0,0,0)"  stroke-width="1.0"/>
<line x1="74.7" y1="99.1" x2="74.6" y2="60.0" stroke="rgb(0,0,0)"  stroke-width="1.0"/>
<text x="239.891324" y="360.742963" fill="rgb(102,102,102)"  stroke="rgb(102,102,102)" stroke-width="1" font-size="16" >CH</text>
<text x="263.891324" y="364.422963" fill="rgb(102,102,102)"  stroke="rgb(102,102,102)" stroke-width="1" font-size="13" >3</text>
<text x="307.455100" y="243.643352" fill="rgb(102,102,102)"  stroke="rgb(102,102,102)" stroke-width="1" font-size="16" >CH</text>
<text x="331.455100" y="247.323352" fill="rgb(102,102,102)"  stroke="rgb(102,102,102)" stroke-width="1" font-size="13" >3</text>
<text x="22.000000" y="48.000000" fill="rgb(255,12,12)"  stroke="rgb(255,12,12)" stroke-width="1" font-size="16" >HO</text>
<text x="138.291661" y="147.039672" fill="rgb(102,102,102)"  stroke="rgb(102,102,102)" stroke-width="1" font-size="16" >CH</text>
<text x="162.291661" y="150.719672" fill="rgb(102,102,102)"  stroke="rgb(102,102,102)" stroke-width="1" font-size="13" >3</text>
<text x="239.811324" y="205.587478" fill="rgb(102,102,102)"  stroke="rgb(102,102,102)" stroke-width="1" font-size="16" >CH</text>
<text x="263.811324" y="209.267478" fill="rgb(102,102,102)"  stroke="rgb(102,102,102)" stroke-width="1" font-size="13" >3</text>
<text x="172.259548" y="243.683351" fill="rgb(102,102,102)"  stroke="rgb(102,102,102)" stroke-width="1" font-size="16" >CH</text>
<text x="196.259548" y="247.363351" fill="rgb(102,102,102)"  stroke="rgb(102,102,102)" stroke-width="1" font-size="13" >3</text>
<text x="116.479660" y="302.231157" fill="rgb(102,102,102)"  stroke="rgb(102,102,102)" stroke-width="1" font-size="16" >H</text>
<text x="128.479660" y="305.911157" fill="rgb(102,102,102)"  stroke="rgb(102,102,102)" stroke-width="1" font-size="13" >3</text>
<text x="134.979660" y="302.231157" fill="rgb(102,102,102)"  stroke="rgb(102,102,102)" stroke-width="1" font-size="16" >C</text>
<text font-size="18.000000" fill ="black" font-family="sans-serif"
x="10.000000" y="20.000000" >stigmasterol</text>
<title>stigmasterol - OBDepict</title>
</svg>
