<?xml version="1.0"?>
<svg xmlns="http://www.w3.org/2000/svg"
xmlns:xlink="http://www.w3.org/1999/xlink" xmlns:cml="http://www.xml-cml.org/schema" width="267.164" height="214.252" x="0" y="0" font-family="sans-serif" stroke="rgb(0,0,0)" stroke-width="1"  stroke-linecap="round">
<rect x="0%" y="0%" width="100%" height="100%" stroke-width="0" fill="rgb(255,255,255)"  />
<line x1="189.1" y1="52.4" x2="180.8" y2="91.5" stroke="rgb(0,0,0)"  stroke-width="1.0"/>
<line x1="189.1" y1="52.4" x2="214.8" y2="44.0" stroke="rgb(0,0,0)"  stroke-width="1.0"/>
<line x1="180.8" y1="91.5" x2="142.8" y2="103.8" stroke="rgb(0,0,0)"  stroke-width="1.0"/>
<line x1="180.8" y1="91.5" x2="200.9" y2="109.6" stroke="rgb(0,0,0)"  stroke-width="1.0"/>
<line x1="132.8" y1="140.1" x2="148.7" y2="162.0" stroke="rgb(0,0,0)"  stroke-width="1.0"/>
<line x1="128.0" y1="143.7" x2="143.8" y2="165.5" stroke="rgb(0,0,0)"  stroke-width="1.0"/>
<line x1="90.4" y1="141.9" x2="74.5" y2="163.7" stroke="rgb(0,0,0)"  stroke-width="1.0"/>
<line x1="78.0" y1="103.8" x2="52.4" y2="95.5" stroke="rgb(0,0,0)"  stroke-width="1.0"/>
<line x1="142.8" y1="103.8" x2="130.4" y2="141.9" stroke="rgb(0,0,0)"  stroke-width="1.0"/>
<line x1="130.4" y1="141.9" x2="90.4" y2="141.9" stroke="rgb(0,0,0)"  stroke-width="1.0"/>
<line x1="90.4" y1="141.9" x2="78.0" y2="103.8" stroke="rgb(0,0,0)"  stroke-width="1.0"/>
<line x1="95.4" y1="134.0" x2="86.7" y2="107.3" stroke="rgb(0,0,0)"  stroke-width="1.0"/>
<line x1="78.0" y1="103.8" x2="99.9" y2="88.0" stroke="rgb(0,0,0)"  stroke-width="1.0"/>
<line x1="120.9" y1="88.0" x2="142.8" y2="103.8" stroke="rgb(0,0,0)"  stroke-width="1.0"/>
<text x="147.915699" y="182.251645" fill="rgb(255,12,12)"  stroke="rgb(255,12,12)" stroke-width="1" font-size="16" >O</text>
<text x="104.403814" y="88.335893" fill="rgb(255,12,12)"  stroke="rgb(255,12,12)" stroke-width="1" font-size="16" >O</text>
<text x="22.000000" y="99.487864" fill="rgb(255,12,12)"  stroke="rgb(255,12,12)" stroke-width="1" font-size="16" >HO</text>
<text x="48.891929" y="182.251645" fill="rgb(255,12,12)"  stroke="rgb(255,12,12)" stroke-width="1" font-size="16" >HO</text>
<text x="204.531549" y="126.251793" fill="rgb(255,12,12)"  stroke="rgb(255,12,12)" stroke-width="1" font-size="16" >OH</text>
<text x="221.163505" y="48.000000" fill="rgb(255,12,12)"  stroke="rgb(255,12,12)" stroke-width="1" font-size="16" >OH</text>
<text font-size="18.000000" fill ="black" font-family="sans-serif"
x="10.000000" y="20.000000" >thiamine</text>
<title>thiamine - OBDepict</title>
</svg>
