<?xml version="1.0"?>
<svg xmlns="http://www.w3.org/2000/svg"
xmlns:xlink="http://www.w3.org/1999/xlink" xmlns:cml="http://www.xml-cml.org/schema" width="239.876" height="253.704" x="0" y="0" font-family="sans-serif" stroke="rgb(0,0,0)" stroke-width="1"  stroke-linecap="round">
<rect x="0%" y="0%" width="100%" height="100%" stroke-width="0" fill="rgb(255,255,255)"  />
<line x1="186.0" y1="123.0" x2="162.1" y2="129.4" stroke="rgb(0,0,0)"  stroke-width="1.0"/>
<line x1="162.2" y1="134.5" x2="160.6" y2="134.3" stroke="rgb(0,0,0)"  stroke-width="1.0"/>
<line x1="162.3" y1="138.6" x2="159.5" y2="138.2" stroke="rgb(0,0,0)"  stroke-width="1.0"/>
<line x1="162.4" y1="142.7" x2="158.3" y2="142.2" stroke="rgb(0,0,0)"  stroke-width="1.0"/>
<line x1="162.5" y1="146.8" x2="157.2" y2="146.1" stroke="rgb(0,0,0)"  stroke-width="1.0"/>
<line x1="162.7" y1="150.9" x2="156.0" y2="150.0" stroke="rgb(0,0,0)"  stroke-width="1.0"/>
<line x1="162.8" y1="155.0" x2="154.8" y2="154.0" stroke="rgb(0,0,0)"  stroke-width="1.0"/>
<line x1="127.5" y1="153.1" x2="126.2" y2="152.3" stroke="rgb(0,0,0)"  stroke-width="1.0"/>
<line x1="126.1" y1="156.9" x2="123.6" y2="155.4" stroke="rgb(0,0,0)"  stroke-width="1.0"/>
<line x1="124.6" y1="160.7" x2="121.0" y2="158.6" stroke="rgb(0,0,0)"  stroke-width="1.0"/>
<line x1="123.1" y1="164.5" x2="118.4" y2="161.8" stroke="rgb(0,0,0)"  stroke-width="1.0"/>
<line x1="121.7" y1="168.4" x2="115.8" y2="165.0" stroke="rgb(0,0,0)"  stroke-width="1.0"/>
<line x1="120.2" y1="172.2" x2="113.3" y2="168.2" stroke="rgb(0,0,0)"  stroke-width="1.0"/>
<line x1="129.4" y1="148.3" x2="160.7" y2="202.4" stroke="rgb(0,0,0)"  stroke-width="1.0"/>
<line x1="91.6" y1="130.2" x2="91.6" y2="128.6" stroke="rgb(0,0,0)"  stroke-width="1.0"/>
<line x1="87.6" y1="130.8" x2="87.6" y2="127.9" stroke="rgb(0,0,0)"  stroke-width="1.0"/>
<line x1="83.5" y1="131.5" x2="83.5" y2="127.3" stroke="rgb(0,0,0)"  stroke-width="1.0"/>
<line x1="79.5" y1="132.1" x2="79.5" y2="126.7" stroke="rgb(0,0,0)"  stroke-width="1.0"/>
<line x1="75.4" y1="132.7" x2="75.4" y2="126.0" stroke="rgb(0,0,0)"  stroke-width="1.0"/>
<line x1="71.4" y1="133.4" x2="71.4" y2="125.4" stroke="rgb(0,0,0)"  stroke-width="1.0"/>
<line x1="96.7" y1="129.4" x2="77.8" y2="162.1" stroke="rgb(0,0,0)"  stroke-width="1.0"/>
<polygon points="129.384090 72.716033 138.574934 48.796338 145.503191 52.796244 " stroke-width="1.000000" fill="rgb(0,0,0)"  stroke="rgb(0,0,0)" />
<line x1="129.4" y1="72.7" x2="117.0" y2="51.3" stroke="rgb(0,0,0)"  stroke-width="1.0"/>
<polygon points="162.100123 91.604052 187.410068 87.604052 187.410068 95.604052 " stroke-width="1.000000" fill="rgb(0,0,0)"  stroke="rgb(0,0,0)" />
<line x1="162.1" y1="91.6" x2="174.5" y2="70.1" stroke="rgb(0,0,0)"  stroke-width="1.0"/>
<line x1="77.8" y1="162.1" x2="53.0" y2="162.1" stroke="rgb(0,0,0)"  stroke-width="1.0"/>
<line x1="162.1" y1="129.4" x2="129.4" y2="148.3" stroke="rgb(0,0,0)"  stroke-width="1.0"/>
<line x1="129.4" y1="148.3" x2="96.7" y2="129.4" stroke="rgb(0,0,0)"  stroke-width="1.0"/>
<line x1="96.7" y1="129.4" x2="96.7" y2="104.6" stroke="rgb(0,0,0)"  stroke-width="1.0"/>
<line x1="107.9" y1="85.1" x2="129.4" y2="72.7" stroke="rgb(0,0,0)"  stroke-width="1.0"/>
<line x1="129.4" y1="72.7" x2="162.1" y2="91.6" stroke="rgb(0,0,0)"  stroke-width="1.0"/>
<line x1="162.1" y1="91.6" x2="162.1" y2="129.4" stroke="rgb(0,0,0)"  stroke-width="1.0"/>
<text x="192.592159" y="127.604080" fill="rgb(255,12,12)"  stroke="rgb(255,12,12)" stroke-width="1" font-size="16" >OH</text>
<text x="151.168118" y="174.836127" fill="rgb(191,191,191)"  stroke="rgb(191,191,191)" stroke-width="1" font-size="16" >H</text>
<text x="104.496071" y="188.988142" fill="rgb(191,191,191)"  stroke="rgb(191,191,191)" stroke-width="1" font-size="16" >H</text>
<text x="161.160128" y="221.704175" fill="rgb(255,12,12)"  stroke="rgb(255,12,12)" stroke-width="1" font-size="16" >OH</text>
<text x="52.888019" y="137.380090" fill="rgb(191,191,191)"  stroke="rgb(191,191,191)" stroke-width="1" font-size="16" >H</text>
<text x="90.668057" y="99.604052" fill="rgb(255,12,12)"  stroke="rgb(255,12,12)" stroke-width="1" font-size="16" >O</text>
<text x="142.272109" y="48.000000" fill="rgb(191,191,191)"  stroke="rgb(191,191,191)" stroke-width="1" font-size="16" >H</text>
<text x="92.496071" y="48.000000" fill="rgb(255,12,12)"  stroke="rgb(255,12,12)" stroke-width="1" font-size="16" >HO</text>
<text x="193.876161" y="99.604052" fill="rgb(191,191,191)"  stroke="rgb(191,191,191)" stroke-width="1" font-size="16" >H</text>
<text x="174.988142" y="66.888019" fill="rgb(255,12,12)"  stroke="rgb(255,12,12)" stroke-width="1" font-size="16" >OH</text>
<text x="22.000000" y="170.100123" fill="rgb(255,12,12)"  stroke="rgb(255,12,12)" stroke-width="1" font-size="16" >HO</text>
<text font-size="18.000000" fill ="black" font-family="sans-serif"
x="10.000000" y="20.000000" >galactose</text>
<title>galactose - OBDepict</title>
</svg>
