<?xml version="1.0"?>
<svg xmlns="http://www.w3.org/2000/svg"
xmlns:xlink="http://www.w3.org/1999/xlink" xmlns:cml="http://www.xml-cml.org/schema" width="406.769" height="441.113" x="0" y="0" font-family="sans-serif" stroke="rgb(0,0,0)" stroke-width="1"  stroke-linecap="round">
<rect x="0%" y="0%" width="100%" height="100%" stroke-width="0" fill="rgb(255,255,255)"  />
<line x1="246.6" y1="269.3" x2="271.7" y2="269.3" stroke="rgb(0,0,0)"  stroke-width="1.0"/>
<line x1="272.5" y1="274.4" x2="270.9" y2="274.4" stroke="rgb(0,0,0)"  stroke-width="1.0"/>
<line x1="273.1" y1="278.5" x2="270.2" y2="278.5" stroke="rgb(0,0,0)"  stroke-width="1.0"/>
<line x1="273.7" y1="282.6" x2="269.6" y2="282.6" stroke="rgb(0,0,0)"  stroke-width="1.0"/>
<line x1="274.4" y1="286.7" x2="268.9" y2="286.7" stroke="rgb(0,0,0)"  stroke-width="1.0"/>
<line x1="275.0" y1="290.7" x2="268.3" y2="290.7" stroke="rgb(0,0,0)"  stroke-width="1.0"/>
<line x1="275.7" y1="294.8" x2="267.7" y2="294.8" stroke="rgb(0,0,0)"  stroke-width="1.0"/>
<line x1="271.7" y1="269.3" x2="309.7" y2="269.3" stroke="rgb(0,0,0)"  stroke-width="1.0"/>
<line x1="271.7" y1="269.3" x2="271.7" y2="193.2" stroke="rgb(0,0,0)"  stroke-width="1.0"/>
<line x1="309.7" y1="269.3" x2="328.7" y2="302.3" stroke="rgb(0,0,0)"  stroke-width="1.0"/>
<line x1="328.7" y1="302.3" x2="309.7" y2="335.2" stroke="rgb(0,0,0)"  stroke-width="1.0"/>
<line x1="309.7" y1="335.2" x2="328.7" y2="368.2" stroke="rgb(0,0,0)"  stroke-width="1.0"/>
<line x1="328.7" y1="368.2" x2="316.2" y2="389.9" stroke="rgb(0,0,0)"  stroke-width="1.0"/>
<line x1="328.7" y1="368.2" x2="353.8" y2="368.2" stroke="rgb(0,0,0)"  stroke-width="1.0"/>
<polygon points="271.656631 193.236417 296.273787 202.812016 292.277998 209.742649 " stroke-width="1.000000" fill="rgb(0,0,0)"  stroke="rgb(0,0,0)" />
<polygon points="238.664541 136.116262 234.664541 110.004951 242.664541 110.004951 " stroke-width="1.000000" fill="rgb(0,0,0)"  stroke="rgb(0,0,0)" />
<line x1="239.5" y1="179.4" x2="237.9" y2="179.4" stroke="rgb(0,0,0)"  stroke-width="1.0"/>
<line x1="240.1" y1="183.6" x2="237.2" y2="183.6" stroke="rgb(0,0,0)"  stroke-width="1.0"/>
<line x1="240.7" y1="187.8" x2="236.6" y2="187.8" stroke="rgb(0,0,0)"  stroke-width="1.0"/>
<line x1="241.4" y1="192.0" x2="235.9" y2="192.0" stroke="rgb(0,0,0)"  stroke-width="1.0"/>
<line x1="242.0" y1="196.1" x2="235.3" y2="196.1" stroke="rgb(0,0,0)"  stroke-width="1.0"/>
<line x1="242.7" y1="200.3" x2="234.7" y2="200.3" stroke="rgb(0,0,0)"  stroke-width="1.0"/>
<polygon points="172.676361 136.116262 168.676361 110.591872 176.676361 110.591872 " stroke-width="1.000000" fill="rgb(0,0,0)"  stroke="rgb(0,0,0)" />
<line x1="206.5" y1="122.2" x2="204.9" y2="122.2" stroke="rgb(0,0,0)"  stroke-width="1.0"/>
<line x1="207.1" y1="126.3" x2="204.2" y2="126.3" stroke="rgb(0,0,0)"  stroke-width="1.0"/>
<line x1="207.8" y1="130.4" x2="203.6" y2="130.4" stroke="rgb(0,0,0)"  stroke-width="1.0"/>
<line x1="208.4" y1="134.4" x2="203.0" y2="134.4" stroke="rgb(0,0,0)"  stroke-width="1.0"/>
<line x1="209.0" y1="138.5" x2="202.3" y2="138.5" stroke="rgb(0,0,0)"  stroke-width="1.0"/>
<line x1="209.7" y1="142.6" x2="201.7" y2="142.6" stroke="rgb(0,0,0)"  stroke-width="1.0"/>
<line x1="140.5" y1="122.3" x2="138.9" y2="122.3" stroke="rgb(0,0,0)"  stroke-width="1.0"/>
<line x1="141.1" y1="126.5" x2="138.2" y2="126.5" stroke="rgb(0,0,0)"  stroke-width="1.0"/>
<line x1="141.8" y1="130.7" x2="137.6" y2="130.7" stroke="rgb(0,0,0)"  stroke-width="1.0"/>
<line x1="142.4" y1="134.8" x2="137.0" y2="134.8" stroke="rgb(0,0,0)"  stroke-width="1.0"/>
<line x1="143.0" y1="139.0" x2="136.3" y2="139.0" stroke="rgb(0,0,0)"  stroke-width="1.0"/>
<line x1="143.7" y1="143.2" x2="135.7" y2="143.2" stroke="rgb(0,0,0)"  stroke-width="1.0"/>
<polygon points="73.748092 78.972106 49.136594 69.379053 53.137146 62.451168 " stroke-width="1.000000" fill="rgb(0,0,0)"  stroke="rgb(0,0,0)" />
<line x1="73.7" y1="79.0" x2="73.7" y2="53.0" stroke="rgb(0,0,0)"  stroke-width="1.0"/>
<line x1="271.7" y1="193.2" x2="304.6" y2="174.2" stroke="rgb(0,0,0)"  stroke-width="1.0"/>
<line x1="304.6" y1="174.2" x2="304.6" y2="136.1" stroke="rgb(0,0,0)"  stroke-width="1.0"/>
<line x1="304.6" y1="136.1" x2="238.7" y2="136.1" stroke="rgb(0,0,0)"  stroke-width="1.0"/>
<line x1="238.7" y1="136.1" x2="238.7" y2="174.2" stroke="rgb(0,0,0)"  stroke-width="1.0"/>
<line x1="238.7" y1="174.2" x2="271.7" y2="193.2" stroke="rgb(0,0,0)"  stroke-width="1.0"/>
<line x1="172.7" y1="136.1" x2="172.7" y2="174.2" stroke="rgb(0,0,0)"  stroke-width="1.0"/>
<line x1="172.7" y1="174.2" x2="205.7" y2="193.2" stroke="rgb(0,0,0)"  stroke-width="1.0"/>
<line x1="205.7" y1="193.2" x2="238.7" y2="174.2" stroke="rgb(0,0,0)"  stroke-width="1.0"/>
<line x1="238.7" y1="136.1" x2="205.7" y2="117.1" stroke="rgb(0,0,0)"  stroke-width="1.0"/>
<line x1="205.7" y1="117.1" x2="172.7" y2="136.1" stroke="rgb(0,0,0)"  stroke-width="1.0"/>
<line x1="139.7" y1="79.0" x2="139.7" y2="117.1" stroke="rgb(0,0,0)"  stroke-width="1.0"/>
<line x1="139.7" y1="117.1" x2="172.7" y2="136.1" stroke="rgb(0,0,0)"  stroke-width="1.0"/>
<line x1="205.7" y1="117.1" x2="205.7" y2="79.0" stroke="rgb(0,0,0)"  stroke-width="1.0"/>
<line x1="205.7" y1="79.0" x2="172.7" y2="59.9" stroke="rgb(0,0,0)"  stroke-width="1.0"/>
<line x1="172.7" y1="59.9" x2="139.7" y2="79.0" stroke="rgb(0,0,0)"  stroke-width="1.0"/>
<line x1="171.1" y1="69.2" x2="148.5" y2="82.2" stroke="rgb(0,0,0)"  stroke-width="1.0"/>
<line x1="73.7" y1="79.0" x2="106.7" y2="59.9" stroke="rgb(0,0,0)"  stroke-width="1.0"/>
<line x1="106.7" y1="59.9" x2="139.7" y2="79.0" stroke="rgb(0,0,0)"  stroke-width="1.0"/>
<line x1="139.7" y1="117.1" x2="106.7" y2="136.1" stroke="rgb(0,0,0)"  stroke-width="1.0"/>
<line x1="106.7" y1="136.1" x2="73.7" y2="117.1" stroke="rgb(0,0,0)"  stroke-width="1.0"/>
<line x1="73.7" y1="117.1" x2="73.7" y2="79.0" stroke="rgb(0,0,0)"  stroke-width="1.0"/>
<text x="207.612527" y="277.324624" fill="rgb(102,102,102)"  stroke="rgb(102,102,102)" stroke-width="1" font-size="16" >H</text>
<text x="219.612527" y="281.004624" fill="rgb(102,102,102)"  stroke="rgb(102,102,102)" stroke-width="1" font-size="13" >3</text>
<text x="226.112527" y="277.324624" fill="rgb(102,102,102)"  stroke="rgb(102,102,102)" stroke-width="1" font-size="16" >C</text>
<text x="265.656631" y="315.368728" fill="rgb(191,191,191)"  stroke="rgb(191,191,191)" stroke-width="1" font-size="16" >H</text>
<text x="283.700734" y="409.112983" fill="rgb(102,102,102)"  stroke="rgb(102,102,102)" stroke-width="1" font-size="16" >H</text>
<text x="295.700734" y="412.792983" fill="rgb(102,102,102)"  stroke="rgb(102,102,102)" stroke-width="1" font-size="13" >3</text>
<text x="302.200734" y="409.112983" fill="rgb(102,102,102)"  stroke="rgb(102,102,102)" stroke-width="1" font-size="16" >C</text>
<text x="362.768890" y="376.164893" fill="rgb(102,102,102)"  stroke="rgb(102,102,102)" stroke-width="1" font-size="16" >CH</text>
<text x="386.768890" y="379.844893" fill="rgb(102,102,102)"  stroke="rgb(102,102,102)" stroke-width="1" font-size="13" >3</text>
<text x="299.416723" y="220.700470" fill="rgb(191,191,191)"  stroke="rgb(191,191,191)" stroke-width="1" font-size="16" >H</text>
<text x="232.664541" y="105.144156" fill="rgb(191,191,191)"  stroke="rgb(191,191,191)" stroke-width="1" font-size="16" >H</text>
<text x="166.676361" y="106.020158" fill="rgb(191,191,191)"  stroke="rgb(191,191,191)" stroke-width="1" font-size="16" >H</text>
<text x="199.672451" y="163.164314" fill="rgb(191,191,191)"  stroke="rgb(191,191,191)" stroke-width="1" font-size="16" >H</text>
<text x="34.000000" y="67.484053" fill="rgb(191,191,191)"  stroke="rgb(191,191,191)" stroke-width="1" font-size="16" >H</text>
<text x="67.748092" y="48.000000" fill="rgb(255,12,12)"  stroke="rgb(255,12,12)" stroke-width="1" font-size="16" >OH</text>
<text x="135.684271" y="164.064316" fill="rgb(102,102,102)"  stroke="rgb(102,102,102)" stroke-width="1" font-size="16" >CH</text>
<text x="159.684271" y="167.744316" fill="rgb(102,102,102)"  stroke="rgb(102,102,102)" stroke-width="1" font-size="13" >3</text>
<text x="234.664541" y="221.180472" fill="rgb(102,102,102)"  stroke="rgb(102,102,102)" stroke-width="1" font-size="16" >CH</text>
<text x="258.664541" y="224.860472" fill="rgb(102,102,102)"  stroke="rgb(102,102,102)" stroke-width="1" font-size="13" >3</text>
<text font-size="18.000000" fill ="black" font-family="sans-serif"
x="10.000000" y="20.000000" >cholesterol</text>
<title>cholesterol - OBDepict</title>
</svg>
