<?xml version="1.0"?>
<svg xmlns="http://www.w3.org/2000/svg"
xmlns:xlink="http://www.w3.org/1999/xlink" xmlns:cml="http://www.xml-cml.org/schema" width="811.46" height="434.298" x="0" y="0" font-family="sans-serif" stroke="rgb(0,0,0)" stroke-width="1"  stroke-linecap="round">
<rect x="0%" y="0%" width="100%" height="100%" stroke-width="0" fill="rgb(255,255,255)"  />
<line x1="52.6" y1="86.6" x2="78.6" y2="79.7" stroke="rgb(0,0,0)"  stroke-width="1.0"/>
<polygon points="78.636196 79.656201 78.167824 52.564521 86.099404 53.608571 " stroke-width="1.000000" fill="rgb(0,0,0)"  stroke="rgb(0,0,0)" />
<line x1="147.9" y1="79.7" x2="171.3" y2="66.2" stroke="rgb(0,0,0)"  stroke-width="1.0"/>
<line x1="147.9" y1="119.7" x2="182.6" y2="139.7" stroke="rgb(0,0,0)"  stroke-width="1.0"/>
<line x1="185.6" y1="139.7" x2="185.6" y2="179.7" stroke="rgb(0,0,0)"  stroke-width="1.0"/>
<line x1="179.6" y1="139.7" x2="179.6" y2="179.7" stroke="rgb(0,0,0)"  stroke-width="1.0"/>
<line x1="182.6" y1="179.7" x2="217.2" y2="199.7" stroke="rgb(0,0,0)"  stroke-width="1.0"/>
<line x1="220.2" y1="199.7" x2="220.2" y2="239.7" stroke="rgb(0,0,0)"  stroke-width="1.0"/>
<line x1="214.2" y1="199.7" x2="214.2" y2="239.7" stroke="rgb(0,0,0)"  stroke-width="1.0"/>
<line x1="217.2" y1="199.7" x2="240.6" y2="186.2" stroke="rgb(0,0,0)"  stroke-width="1.0"/>
<line x1="217.2" y1="239.7" x2="251.8" y2="259.7" stroke="rgb(0,0,0)"  stroke-width="1.0"/>
<line x1="250.3" y1="257.1" x2="285.0" y2="237.1" stroke="rgb(0,0,0)"  stroke-width="1.0"/>
<line x1="253.3" y1="262.3" x2="288.0" y2="242.3" stroke="rgb(0,0,0)"  stroke-width="1.0"/>
<line x1="286.5" y1="239.7" x2="321.1" y2="259.7" stroke="rgb(0,0,0)"  stroke-width="1.0"/>
<line x1="324.1" y1="259.7" x2="324.1" y2="299.7" stroke="rgb(0,0,0)"  stroke-width="1.0"/>
<line x1="318.1" y1="259.7" x2="318.1" y2="299.7" stroke="rgb(0,0,0)"  stroke-width="1.0"/>
<line x1="321.1" y1="259.7" x2="344.5" y2="246.2" stroke="rgb(0,0,0)"  stroke-width="1.0"/>
<line x1="321.1" y1="299.7" x2="355.8" y2="319.7" stroke="rgb(0,0,0)"  stroke-width="1.0"/>
<line x1="354.3" y1="317.1" x2="388.9" y2="297.1" stroke="rgb(0,0,0)"  stroke-width="1.0"/>
<line x1="357.3" y1="322.3" x2="391.9" y2="302.3" stroke="rgb(0,0,0)"  stroke-width="1.0"/>
<line x1="390.4" y1="299.7" x2="425.0" y2="319.7" stroke="rgb(0,0,0)"  stroke-width="1.0"/>
<line x1="423.5" y1="317.1" x2="458.2" y2="297.1" stroke="rgb(0,0,0)"  stroke-width="1.0"/>
<line x1="426.5" y1="322.3" x2="461.2" y2="302.3" stroke="rgb(0,0,0)"  stroke-width="1.0"/>
<line x1="459.7" y1="299.7" x2="494.3" y2="319.7" stroke="rgb(0,0,0)"  stroke-width="1.0"/>
<line x1="459.7" y1="299.7" x2="459.7" y2="272.7" stroke="rgb(0,0,0)"  stroke-width="1.0"/>
<line x1="492.8" y1="317.1" x2="527.5" y2="297.1" stroke="rgb(0,0,0)"  stroke-width="1.0"/>
<line x1="495.8" y1="322.3" x2="530.5" y2="302.3" stroke="rgb(0,0,0)"  stroke-width="1.0"/>
<line x1="529.0" y1="299.7" x2="563.6" y2="319.7" stroke="rgb(0,0,0)"  stroke-width="1.0"/>
<line x1="562.1" y1="317.1" x2="596.8" y2="297.1" stroke="rgb(0,0,0)"  stroke-width="1.0"/>
<line x1="565.1" y1="322.3" x2="599.8" y2="302.3" stroke="rgb(0,0,0)"  stroke-width="1.0"/>
<line x1="598.3" y1="299.7" x2="632.9" y2="319.7" stroke="rgb(0,0,0)"  stroke-width="1.0"/>
<line x1="598.3" y1="299.7" x2="598.3" y2="272.7" stroke="rgb(0,0,0)"  stroke-width="1.0"/>
<line x1="631.4" y1="317.1" x2="666.0" y2="297.1" stroke="rgb(0,0,0)"  stroke-width="1.0"/>
<line x1="634.4" y1="322.3" x2="669.0" y2="302.3" stroke="rgb(0,0,0)"  stroke-width="1.0"/>
<line x1="667.5" y1="299.7" x2="702.2" y2="319.7" stroke="rgb(0,0,0)"  stroke-width="1.0"/>
<line x1="736.8" y1="299.7" x2="736.8" y2="272.7" stroke="rgb(0,0,0)"  stroke-width="1.0"/>
<line x1="702.2" y1="359.7" x2="675.2" y2="359.7" stroke="rgb(0,0,0)"  stroke-width="1.0"/>
<line x1="702.2" y1="359.7" x2="688.7" y2="383.0" stroke="rgb(0,0,0)"  stroke-width="1.0"/>
<line x1="113.3" y1="139.7" x2="99.8" y2="163.0" stroke="rgb(0,0,0)"  stroke-width="1.0"/>
<line x1="113.3" y1="139.7" x2="126.8" y2="163.0" stroke="rgb(0,0,0)"  stroke-width="1.0"/>
<line x1="78.6" y1="79.7" x2="113.3" y2="59.7" stroke="rgb(0,0,0)"  stroke-width="1.0"/>
<line x1="113.3" y1="59.7" x2="147.9" y2="79.7" stroke="rgb(0,0,0)"  stroke-width="1.0"/>
<line x1="147.9" y1="79.7" x2="147.9" y2="119.7" stroke="rgb(0,0,0)"  stroke-width="1.0"/>
<line x1="140.7" y1="85.7" x2="140.7" y2="113.7" stroke="rgb(0,0,0)"  stroke-width="1.0"/>
<line x1="147.9" y1="119.7" x2="113.3" y2="139.7" stroke="rgb(0,0,0)"  stroke-width="1.0"/>
<line x1="113.3" y1="139.7" x2="78.6" y2="119.7" stroke="rgb(0,0,0)"  stroke-width="1.0"/>
<line x1="78.6" y1="119.7" x2="78.6" y2="79.7" stroke="rgb(0,0,0)"  stroke-width="1.0"/>
<line x1="702.2" y1="319.7" x2="736.8" y2="299.7" stroke="rgb(0,0,0)"  stroke-width="1.0"/>
<line x1="711.0" y1="322.9" x2="735.2" y2="308.9" stroke="rgb(0,0,0)"  stroke-width="1.0"/>
<line x1="736.8" y1="299.7" x2="771.5" y2="319.7" stroke="rgb(0,0,0)"  stroke-width="1.0"/>
<line x1="771.5" y1="319.7" x2="771.5" y2="359.7" stroke="rgb(0,0,0)"  stroke-width="1.0"/>
<line x1="771.5" y1="359.7" x2="736.8" y2="379.7" stroke="rgb(0,0,0)"  stroke-width="1.0"/>
<line x1="736.8" y1="379.7" x2="702.2" y2="359.7" stroke="rgb(0,0,0)"  stroke-width="1.0"/>
<line x1="702.2" y1="359.7" x2="702.2" y2="319.7" stroke="rgb(0,0,0)"  stroke-width="1.0"/>
<text x="22.000000" y="98.008254" fill="rgb(255,12,12)"  stroke="rgb(255,12,12)" stroke-width="1" font-size="16" >HO</text>
<text x="77.856223" y="48.000000" fill="rgb(191,191,191)"  stroke="rgb(191,191,191)" stroke-width="1" font-size="16" >H</text>
<text x="732.819535" y="267.657114" fill="rgb(102,102,102)"  stroke="rgb(102,102,102)" stroke-width="1" font-size="16" >CH</text>
<text x="756.819535" y="271.337114" fill="rgb(102,102,102)"  stroke="rgb(102,102,102)" stroke-width="1" font-size="13" >3</text>
<text x="636.179157" y="367.657622" fill="rgb(102,102,102)"  stroke="rgb(102,102,102)" stroke-width="1" font-size="16" >H</text>
<text x="648.179157" y="371.337622" fill="rgb(102,102,102)"  stroke="rgb(102,102,102)" stroke-width="1" font-size="13" >3</text>
<text x="654.679157" y="367.657622" fill="rgb(102,102,102)"  stroke="rgb(102,102,102)" stroke-width="1" font-size="16" >C</text>
<text x="656.179258" y="402.297798" fill="rgb(102,102,102)"  stroke="rgb(102,102,102)" stroke-width="1" font-size="16" >H</text>
<text x="668.179258" y="405.977798" fill="rgb(102,102,102)"  stroke="rgb(102,102,102)" stroke-width="1" font-size="13" >3</text>
<text x="674.679258" y="402.297798" fill="rgb(102,102,102)"  stroke="rgb(102,102,102)" stroke-width="1" font-size="16" >C</text>
<text x="594.254832" y="267.657114" fill="rgb(102,102,102)"  stroke="rgb(102,102,102)" stroke-width="1" font-size="16" >CH</text>
<text x="618.254832" y="271.337114" fill="rgb(102,102,102)"  stroke="rgb(102,102,102)" stroke-width="1" font-size="13" >3</text>
<text x="455.690129" y="267.657114" fill="rgb(102,102,102)"  stroke="rgb(102,102,102)" stroke-width="1" font-size="16" >CH</text>
<text x="479.690129" y="271.337114" fill="rgb(102,102,102)"  stroke="rgb(102,102,102)" stroke-width="1" font-size="13" >3</text>
<text x="351.765602" y="247.657013" fill="rgb(102,102,102)"  stroke="rgb(102,102,102)" stroke-width="1" font-size="16" >CH</text>
<text x="375.765602" y="251.337013" fill="rgb(102,102,102)"  stroke="rgb(102,102,102)" stroke-width="1" font-size="13" >3</text>
<text x="247.841075" y="187.656709" fill="rgb(102,102,102)"  stroke="rgb(102,102,102)" stroke-width="1" font-size="16" >CH</text>
<text x="271.841075" y="191.336709" fill="rgb(102,102,102)"  stroke="rgb(102,102,102)" stroke-width="1" font-size="13" >3</text>
<text x="67.276270" y="182.296681" fill="rgb(102,102,102)"  stroke="rgb(102,102,102)" stroke-width="1" font-size="16" >H</text>
<text x="79.276270" y="185.976681" fill="rgb(102,102,102)"  stroke="rgb(102,102,102)" stroke-width="1" font-size="13" >3</text>
<text x="85.776270" y="182.296681" fill="rgb(102,102,102)"  stroke="rgb(102,102,102)" stroke-width="1" font-size="16" >C</text>
<text x="129.276473" y="182.296681" fill="rgb(102,102,102)"  stroke="rgb(102,102,102)" stroke-width="1" font-size="16" >CH</text>
<text x="153.276473" y="185.976681" fill="rgb(102,102,102)"  stroke="rgb(102,102,102)" stroke-width="1" font-size="13" >3</text>
<text x="178.560723" y="67.656100" fill="rgb(102,102,102)"  stroke="rgb(102,102,102)" stroke-width="1" font-size="16" >CH</text>
<text x="202.560723" y="71.336100" fill="rgb(102,102,102)"  stroke="rgb(102,102,102)" stroke-width="1" font-size="13" >3</text>
<text font-size="18.000000" fill ="black" font-family="sans-serif"
x="10.000000" y="20.000000" >beta cryptoxanthin</text>
<title>beta cryptoxanthin - OBDepict</title>
</svg>
