<?xml version="1.0"?>
<svg xmlns="http://www.w3.org/2000/svg"
xmlns:xlink="http://www.w3.org/1999/xlink" xmlns:cml="http://www.xml-cml.org/schema" width="372.825" height="286.421" x="0" y="0" font-family="sans-serif" stroke="rgb(0,0,0)" stroke-width="1"  stroke-linecap="round">
<rect x="0%" y="0%" width="100%" height="100%" stroke-width="0" fill="rgb(255,255,255)"  />
<line x1="233.8" y1="225.3" x2="252.7" y2="192.6" stroke="rgb(0,0,0)"  stroke-width="1.0"/>
<line x1="233.8" y1="225.3" x2="209.0" y2="225.3" stroke="rgb(0,0,0)"  stroke-width="1.0"/>
<line x1="257.8" y1="192.5" x2="257.6" y2="194.0" stroke="rgb(0,0,0)"  stroke-width="1.0"/>
<line x1="261.9" y1="192.3" x2="261.5" y2="195.2" stroke="rgb(0,0,0)"  stroke-width="1.0"/>
<line x1="266.0" y1="192.2" x2="265.5" y2="196.4" stroke="rgb(0,0,0)"  stroke-width="1.0"/>
<line x1="270.1" y1="192.1" x2="269.4" y2="197.5" stroke="rgb(0,0,0)"  stroke-width="1.0"/>
<line x1="274.2" y1="192.0" x2="273.3" y2="198.7" stroke="rgb(0,0,0)"  stroke-width="1.0"/>
<line x1="278.3" y1="191.9" x2="277.3" y2="199.9" stroke="rgb(0,0,0)"  stroke-width="1.0"/>
<line x1="284.1" y1="163.8" x2="284.5" y2="165.3" stroke="rgb(0,0,0)"  stroke-width="1.0"/>
<line x1="287.8" y1="162.1" x2="288.6" y2="164.9" stroke="rgb(0,0,0)"  stroke-width="1.0"/>
<line x1="291.6" y1="160.5" x2="292.6" y2="164.5" stroke="rgb(0,0,0)"  stroke-width="1.0"/>
<line x1="295.3" y1="158.8" x2="296.7" y2="164.0" stroke="rgb(0,0,0)"  stroke-width="1.0"/>
<line x1="299.1" y1="157.1" x2="300.8" y2="163.6" stroke="rgb(0,0,0)"  stroke-width="1.0"/>
<line x1="302.8" y1="155.5" x2="304.9" y2="163.2" stroke="rgb(0,0,0)"  stroke-width="1.0"/>
<line x1="279.4" y1="165.9" x2="323.6" y2="210.1" stroke="rgb(0,0,0)"  stroke-width="1.0"/>
<line x1="270.2" y1="124.3" x2="271.7" y2="124.7" stroke="rgb(0,0,0)"  stroke-width="1.0"/>
<line x1="270.6" y1="120.2" x2="273.4" y2="121.0" stroke="rgb(0,0,0)"  stroke-width="1.0"/>
<line x1="271.0" y1="116.1" x2="275.0" y2="117.2" stroke="rgb(0,0,0)"  stroke-width="1.0"/>
<line x1="271.4" y1="112.1" x2="276.7" y2="113.5" stroke="rgb(0,0,0)"  stroke-width="1.0"/>
<line x1="271.9" y1="108.0" x2="278.4" y2="109.7" stroke="rgb(0,0,0)"  stroke-width="1.0"/>
<line x1="272.3" y1="103.9" x2="280.0" y2="106.0" stroke="rgb(0,0,0)"  stroke-width="1.0"/>
<line x1="269.6" y1="129.4" x2="293.6" y2="123.0" stroke="rgb(0,0,0)"  stroke-width="1.0"/>
<polygon points="233.128602 119.604248 212.403079 104.535579 218.059933 98.878725 " stroke-width="1.000000" fill="rgb(0,0,0)"  stroke="rgb(0,0,0)" />
<line x1="233.1" y1="119.6" x2="239.5" y2="95.7" stroke="rgb(0,0,0)"  stroke-width="1.0"/>
<line x1="201.7" y1="148.4" x2="201.3" y2="146.9" stroke="rgb(0,0,0)"  stroke-width="1.0"/>
<line x1="198.0" y1="150.1" x2="197.2" y2="147.3" stroke="rgb(0,0,0)"  stroke-width="1.0"/>
<line x1="194.2" y1="151.7" x2="193.2" y2="147.7" stroke="rgb(0,0,0)"  stroke-width="1.0"/>
<line x1="190.5" y1="153.4" x2="189.1" y2="148.1" stroke="rgb(0,0,0)"  stroke-width="1.0"/>
<line x1="186.7" y1="155.1" x2="185.0" y2="148.6" stroke="rgb(0,0,0)"  stroke-width="1.0"/>
<line x1="183.0" y1="156.7" x2="180.9" y2="149.0" stroke="rgb(0,0,0)"  stroke-width="1.0"/>
<line x1="206.4" y1="146.3" x2="188.9" y2="128.8" stroke="rgb(0,0,0)"  stroke-width="1.0"/>
<line x1="167.1" y1="123.0" x2="143.2" y2="129.4" stroke="rgb(0,0,0)"  stroke-width="1.0"/>
<polygon points="143.212321 129.380278 143.873639 154.998067 135.942103 153.953686 " stroke-width="1.000000" fill="rgb(0,0,0)"  stroke="rgb(0,0,0)" />
<line x1="108.7" y1="153.1" x2="107.3" y2="152.3" stroke="rgb(0,0,0)"  stroke-width="1.0"/>
<line x1="107.2" y1="156.9" x2="104.7" y2="155.4" stroke="rgb(0,0,0)"  stroke-width="1.0"/>
<line x1="105.7" y1="160.7" x2="102.1" y2="158.6" stroke="rgb(0,0,0)"  stroke-width="1.0"/>
<line x1="104.2" y1="164.5" x2="99.5" y2="161.8" stroke="rgb(0,0,0)"  stroke-width="1.0"/>
<line x1="102.8" y1="168.4" x2="97.0" y2="165.0" stroke="rgb(0,0,0)"  stroke-width="1.0"/>
<line x1="101.3" y1="172.2" x2="94.4" y2="168.2" stroke="rgb(0,0,0)"  stroke-width="1.0"/>
<line x1="110.5" y1="148.3" x2="148.3" y2="213.7" stroke="rgb(0,0,0)"  stroke-width="1.0"/>
<line x1="74.6" y1="87.6" x2="75.9" y2="86.8" stroke="rgb(0,0,0)"  stroke-width="1.0"/>
<line x1="72.0" y1="84.4" x2="74.5" y2="83.0" stroke="rgb(0,0,0)"  stroke-width="1.0"/>
<line x1="69.4" y1="81.2" x2="73.0" y2="79.2" stroke="rgb(0,0,0)"  stroke-width="1.0"/>
<line x1="66.8" y1="78.1" x2="71.5" y2="75.3" stroke="rgb(0,0,0)"  stroke-width="1.0"/>
<line x1="64.2" y1="74.9" x2="70.1" y2="71.5" stroke="rgb(0,0,0)"  stroke-width="1.0"/>
<line x1="61.7" y1="71.7" x2="68.6" y2="67.7" stroke="rgb(0,0,0)"  stroke-width="1.0"/>
<line x1="77.8" y1="91.6" x2="53.0" y2="91.6" stroke="rgb(0,0,0)"  stroke-width="1.0"/>
<polygon points="110.496220 72.716102 119.687090 48.796361 126.615348 52.796267 " stroke-width="1.000000" fill="rgb(0,0,0)"  stroke="rgb(0,0,0)" />
<line x1="110.5" y1="72.7" x2="98.1" y2="51.3" stroke="rgb(0,0,0)"  stroke-width="1.0"/>
<line x1="148.3" y1="90.8" x2="148.3" y2="92.4" stroke="rgb(0,0,0)"  stroke-width="1.0"/>
<line x1="152.3" y1="90.2" x2="152.3" y2="93.0" stroke="rgb(0,0,0)"  stroke-width="1.0"/>
<line x1="156.4" y1="89.5" x2="156.4" y2="93.7" stroke="rgb(0,0,0)"  stroke-width="1.0"/>
<line x1="160.4" y1="88.9" x2="160.4" y2="94.3" stroke="rgb(0,0,0)"  stroke-width="1.0"/>
<line x1="164.5" y1="88.2" x2="164.5" y2="95.0" stroke="rgb(0,0,0)"  stroke-width="1.0"/>
<line x1="168.5" y1="87.6" x2="168.5" y2="95.6" stroke="rgb(0,0,0)"  stroke-width="1.0"/>
<line x1="143.2" y1="91.6" x2="155.6" y2="70.1" stroke="rgb(0,0,0)"  stroke-width="1.0"/>
<line x1="148.3" y1="213.7" x2="135.9" y2="235.2" stroke="rgb(0,0,0)"  stroke-width="1.0"/>
<line x1="252.7" y1="192.6" x2="279.4" y2="165.9" stroke="rgb(0,0,0)"  stroke-width="1.0"/>
<line x1="279.4" y1="165.9" x2="269.6" y2="129.4" stroke="rgb(0,0,0)"  stroke-width="1.0"/>
<line x1="269.6" y1="129.4" x2="233.1" y2="119.6" stroke="rgb(0,0,0)"  stroke-width="1.0"/>
<line x1="233.1" y1="119.6" x2="206.4" y2="146.3" stroke="rgb(0,0,0)"  stroke-width="1.0"/>
<line x1="206.4" y1="146.3" x2="212.8" y2="170.3" stroke="rgb(0,0,0)"  stroke-width="1.0"/>
<line x1="228.7" y1="186.2" x2="252.7" y2="192.6" stroke="rgb(0,0,0)"  stroke-width="1.0"/>
<line x1="143.2" y1="129.4" x2="110.5" y2="148.3" stroke="rgb(0,0,0)"  stroke-width="1.0"/>
<line x1="110.5" y1="148.3" x2="89.0" y2="135.9" stroke="rgb(0,0,0)"  stroke-width="1.0"/>
<line x1="77.8" y1="116.4" x2="77.8" y2="91.6" stroke="rgb(0,0,0)"  stroke-width="1.0"/>
<line x1="77.8" y1="91.6" x2="110.5" y2="72.7" stroke="rgb(0,0,0)"  stroke-width="1.0"/>
<line x1="110.5" y1="72.7" x2="143.2" y2="91.6" stroke="rgb(0,0,0)"  stroke-width="1.0"/>
<line x1="143.2" y1="91.6" x2="143.2" y2="129.4" stroke="rgb(0,0,0)"  stroke-width="1.0"/>
<text x="284.140779" y="205.516491" fill="rgb(191,191,191)"  stroke="rgb(191,191,191)" stroke-width="1" font-size="16" >H</text>
<text x="309.888859" y="164.096362" fill="rgb(191,191,191)"  stroke="rgb(191,191,191)" stroke-width="1" font-size="16" >H</text>
<text x="273.396746" y="100.892165" fill="rgb(191,191,191)"  stroke="rgb(191,191,191)" stroke-width="1" font-size="16" >H</text>
<text x="200.416518" y="100.892165" fill="rgb(191,191,191)"  stroke="rgb(191,191,191)" stroke-width="1" font-size="16" >H</text>
<text x="163.924405" y="164.096362" fill="rgb(191,191,191)"  stroke="rgb(191,191,191)" stroke-width="1" font-size="16" >H</text>
<text x="210.192549" y="190.808445" fill="rgb(255,12,12)"  stroke="rgb(255,12,12)" stroke-width="1" font-size="16" >O</text>
<text x="173.704435" y="127.604248" fill="rgb(255,12,12)"  stroke="rgb(255,12,12)" stroke-width="1" font-size="16" >O</text>
<text x="132.280306" y="174.836395" fill="rgb(191,191,191)"  stroke="rgb(191,191,191)" stroke-width="1" font-size="16" >H</text>
<text x="85.608161" y="188.988439" fill="rgb(191,191,191)"  stroke="rgb(191,191,191)" stroke-width="1" font-size="16" >H</text>
<text x="71.780118" y="137.380278" fill="rgb(255,12,12)"  stroke="rgb(255,12,12)" stroke-width="1" font-size="16" >O</text>
<text x="52.892059" y="66.888059" fill="rgb(191,191,191)"  stroke="rgb(191,191,191)" stroke-width="1" font-size="16" >H</text>
<text x="123.384278" y="48.000000" fill="rgb(191,191,191)"  stroke="rgb(191,191,191)" stroke-width="1" font-size="16" >H</text>
<text x="174.988439" y="99.604161" fill="rgb(191,191,191)"  stroke="rgb(191,191,191)" stroke-width="1" font-size="16" >H</text>
<text x="156.100380" y="66.888059" fill="rgb(255,12,12)"  stroke="rgb(255,12,12)" stroke-width="1" font-size="16" >OH</text>
<text x="73.608161" y="48.000000" fill="rgb(255,12,12)"  stroke="rgb(255,12,12)" stroke-width="1" font-size="16" >HO</text>
<text x="22.000000" y="99.604161" fill="rgb(255,12,12)"  stroke="rgb(255,12,12)" stroke-width="1" font-size="16" >HO</text>
<text x="111.384278" y="254.420643" fill="rgb(255,12,12)"  stroke="rgb(255,12,12)" stroke-width="1" font-size="16" >HO</text>
<text x="236.904632" y="91.112134" fill="rgb(255,12,12)"  stroke="rgb(255,12,12)" stroke-width="1" font-size="16" >OH</text>
<text x="300.108829" y="127.604248" fill="rgb(255,12,12)"  stroke="rgb(255,12,12)" stroke-width="1" font-size="16" >OH</text>
<text x="326.824912" y="227.300558" fill="rgb(255,12,12)"  stroke="rgb(255,12,12)" stroke-width="1" font-size="16" >OH</text>
<text x="178.016486" y="233.300577" fill="rgb(255,12,12)"  stroke="rgb(255,12,12)" stroke-width="1" font-size="16" >HO</text>
<text font-size="18.000000" fill ="black" font-family="sans-serif"
x="10.000000" y="20.000000" >lactose</text>
<title>lactose - OBDepict</title>
</svg>
