<?xml version="1.0"?>
<svg xmlns="http://www.w3.org/2000/svg"
xmlns:xlink="http://www.w3.org/1999/xlink" xmlns:cml="http://www.xml-cml.org/schema" width="963.375" height="241.564" x="0" y="0" font-family="sans-serif" stroke="rgb(0,0,0)" stroke-width="1"  stroke-linecap="round">
<rect x="0%" y="0%" width="100%" height="100%" stroke-width="0" fill="rgb(255,255,255)"  />
<line x1="114.6" y1="79.9" x2="114.6" y2="106.9" stroke="rgb(0,0,0)"  stroke-width="1.0"/>
<line x1="149.3" y1="126.9" x2="183.9" y2="106.9" stroke="rgb(0,0,0)"  stroke-width="1.0"/>
<line x1="149.3" y1="166.9" x2="162.8" y2="190.3" stroke="rgb(0,0,0)"  stroke-width="1.0"/>
<line x1="149.3" y1="166.9" x2="176.3" y2="166.9" stroke="rgb(0,0,0)"  stroke-width="1.0"/>
<polygon points="79.999971 166.923909 53.199991 170.923909 53.199991 162.923909 " stroke-width="1.000000" fill="rgb(0,0,0)"  stroke="rgb(0,0,0)" />
<line x1="80.0" y1="166.9" x2="66.5" y2="190.3" stroke="rgb(0,0,0)"  stroke-width="1.0"/>
<line x1="185.4" y1="104.3" x2="220.1" y2="124.3" stroke="rgb(0,0,0)"  stroke-width="1.0"/>
<line x1="182.4" y1="109.5" x2="217.1" y2="129.5" stroke="rgb(0,0,0)"  stroke-width="1.0"/>
<line x1="218.6" y1="126.9" x2="253.2" y2="106.9" stroke="rgb(0,0,0)"  stroke-width="1.0"/>
<line x1="254.7" y1="104.3" x2="289.3" y2="124.3" stroke="rgb(0,0,0)"  stroke-width="1.0"/>
<line x1="251.7" y1="109.5" x2="286.3" y2="129.5" stroke="rgb(0,0,0)"  stroke-width="1.0"/>
<line x1="253.2" y1="106.9" x2="253.2" y2="79.9" stroke="rgb(0,0,0)"  stroke-width="1.0"/>
<line x1="287.8" y1="126.9" x2="322.5" y2="106.9" stroke="rgb(0,0,0)"  stroke-width="1.0"/>
<line x1="324.0" y1="104.3" x2="358.6" y2="124.3" stroke="rgb(0,0,0)"  stroke-width="1.0"/>
<line x1="321.0" y1="109.5" x2="355.6" y2="129.5" stroke="rgb(0,0,0)"  stroke-width="1.0"/>
<line x1="357.1" y1="126.9" x2="391.8" y2="106.9" stroke="rgb(0,0,0)"  stroke-width="1.0"/>
<line x1="393.3" y1="104.3" x2="427.9" y2="124.3" stroke="rgb(0,0,0)"  stroke-width="1.0"/>
<line x1="390.3" y1="109.5" x2="424.9" y2="129.5" stroke="rgb(0,0,0)"  stroke-width="1.0"/>
<line x1="391.8" y1="106.9" x2="391.8" y2="79.9" stroke="rgb(0,0,0)"  stroke-width="1.0"/>
<line x1="426.4" y1="126.9" x2="461.1" y2="106.9" stroke="rgb(0,0,0)"  stroke-width="1.0"/>
<line x1="462.6" y1="104.3" x2="497.2" y2="124.3" stroke="rgb(0,0,0)"  stroke-width="1.0"/>
<line x1="459.6" y1="109.5" x2="494.2" y2="129.5" stroke="rgb(0,0,0)"  stroke-width="1.0"/>
<line x1="495.7" y1="126.9" x2="530.3" y2="106.9" stroke="rgb(0,0,0)"  stroke-width="1.0"/>
<line x1="531.8" y1="104.3" x2="566.5" y2="124.3" stroke="rgb(0,0,0)"  stroke-width="1.0"/>
<line x1="528.8" y1="109.5" x2="563.5" y2="129.5" stroke="rgb(0,0,0)"  stroke-width="1.0"/>
<line x1="565.0" y1="126.9" x2="565.0" y2="153.9" stroke="rgb(0,0,0)"  stroke-width="1.0"/>
<line x1="565.0" y1="126.9" x2="599.6" y2="106.9" stroke="rgb(0,0,0)"  stroke-width="1.0"/>
<line x1="601.1" y1="104.3" x2="635.8" y2="124.3" stroke="rgb(0,0,0)"  stroke-width="1.0"/>
<line x1="598.1" y1="109.5" x2="632.8" y2="129.5" stroke="rgb(0,0,0)"  stroke-width="1.0"/>
<line x1="634.3" y1="126.9" x2="668.9" y2="106.9" stroke="rgb(0,0,0)"  stroke-width="1.0"/>
<line x1="670.4" y1="104.3" x2="705.0" y2="124.3" stroke="rgb(0,0,0)"  stroke-width="1.0"/>
<line x1="667.4" y1="109.5" x2="702.0" y2="129.5" stroke="rgb(0,0,0)"  stroke-width="1.0"/>
<line x1="703.5" y1="126.9" x2="703.5" y2="153.9" stroke="rgb(0,0,0)"  stroke-width="1.0"/>
<line x1="703.5" y1="126.9" x2="738.2" y2="106.9" stroke="rgb(0,0,0)"  stroke-width="1.0"/>
<line x1="739.7" y1="104.3" x2="774.3" y2="124.3" stroke="rgb(0,0,0)"  stroke-width="1.0"/>
<line x1="736.7" y1="109.5" x2="771.3" y2="129.5" stroke="rgb(0,0,0)"  stroke-width="1.0"/>
<line x1="772.8" y1="126.9" x2="807.5" y2="106.9" stroke="rgb(0,0,0)"  stroke-width="1.0"/>
<line x1="806.0" y1="101.7" x2="807.6" y2="101.5" stroke="rgb(0,0,0)"  stroke-width="1.0"/>
<line x1="804.8" y1="97.5" x2="807.6" y2="97.2" stroke="rgb(0,0,0)"  stroke-width="1.0"/>
<line x1="803.6" y1="93.4" x2="807.7" y2="92.8" stroke="rgb(0,0,0)"  stroke-width="1.0"/>
<line x1="802.4" y1="89.2" x2="807.8" y2="88.5" stroke="rgb(0,0,0)"  stroke-width="1.0"/>
<line x1="801.2" y1="85.0" x2="807.9" y2="84.2" stroke="rgb(0,0,0)"  stroke-width="1.0"/>
<line x1="800.0" y1="80.9" x2="807.9" y2="79.8" stroke="rgb(0,0,0)"  stroke-width="1.0"/>
<line x1="835.7" y1="78.6" x2="828.8" y2="52.6" stroke="rgb(0,0,0)"  stroke-width="1.0"/>
<polygon points="884.735396 127.627937 906.514090 143.749777 900.857236 149.406631 " stroke-width="1.000000" fill="rgb(0,0,0)"  stroke="rgb(0,0,0)" />
<line x1="884.7" y1="127.6" x2="910.8" y2="120.6" stroke="rgb(0,0,0)"  stroke-width="1.0"/>
<line x1="817.8" y1="145.6" x2="791.7" y2="152.5" stroke="rgb(0,0,0)"  stroke-width="1.0"/>
<line x1="817.8" y1="145.6" x2="810.8" y2="171.6" stroke="rgb(0,0,0)"  stroke-width="1.0"/>
<line x1="114.6" y1="106.9" x2="149.3" y2="126.9" stroke="rgb(0,0,0)"  stroke-width="1.0"/>
<line x1="116.2" y1="116.2" x2="140.5" y2="130.2" stroke="rgb(0,0,0)"  stroke-width="1.0"/>
<line x1="149.3" y1="126.9" x2="149.3" y2="166.9" stroke="rgb(0,0,0)"  stroke-width="1.0"/>
<line x1="149.3" y1="166.9" x2="114.6" y2="186.9" stroke="rgb(0,0,0)"  stroke-width="1.0"/>
<line x1="114.6" y1="186.9" x2="80.0" y2="166.9" stroke="rgb(0,0,0)"  stroke-width="1.0"/>
<line x1="80.0" y1="166.9" x2="80.0" y2="126.9" stroke="rgb(0,0,0)"  stroke-width="1.0"/>
<line x1="80.0" y1="126.9" x2="114.6" y2="106.9" stroke="rgb(0,0,0)"  stroke-width="1.0"/>
<line x1="807.5" y1="106.9" x2="835.7" y2="78.6" stroke="rgb(0,0,0)"  stroke-width="1.0"/>
<line x1="835.7" y1="78.6" x2="874.4" y2="89.0" stroke="rgb(0,0,0)"  stroke-width="1.0"/>
<line x1="839.7" y1="87.1" x2="866.7" y2="94.4" stroke="rgb(0,0,0)"  stroke-width="1.0"/>
<line x1="874.4" y1="89.0" x2="884.7" y2="127.6" stroke="rgb(0,0,0)"  stroke-width="1.0"/>
<line x1="884.7" y1="127.6" x2="856.5" y2="155.9" stroke="rgb(0,0,0)"  stroke-width="1.0"/>
<line x1="856.5" y1="155.9" x2="817.8" y2="145.6" stroke="rgb(0,0,0)"  stroke-width="1.0"/>
<line x1="817.8" y1="145.6" x2="807.5" y2="106.9" stroke="rgb(0,0,0)"  stroke-width="1.0"/>
<text x="110.643947" y="74.923981" fill="rgb(102,102,102)"  stroke="rgb(102,102,102)" stroke-width="1" font-size="16" >CH</text>
<text x="134.643947" y="78.603981" fill="rgb(102,102,102)"  stroke="rgb(102,102,102)" stroke-width="1" font-size="13" >3</text>
<text x="34.000000" y="174.923909" fill="rgb(191,191,191)"  stroke="rgb(191,191,191)" stroke-width="1" font-size="16" >H</text>
<text x="41.999986" y="209.563885" fill="rgb(255,12,12)"  stroke="rgb(255,12,12)" stroke-width="1" font-size="16" >HO</text>
<text x="165.283908" y="209.563885" fill="rgb(102,102,102)"  stroke="rgb(102,102,102)" stroke-width="1" font-size="16" >CH</text>
<text x="189.283908" y="213.243885" fill="rgb(102,102,102)"  stroke="rgb(102,102,102)" stroke-width="1" font-size="13" >3</text>
<text x="185.283893" y="174.923909" fill="rgb(102,102,102)"  stroke="rgb(102,102,102)" stroke-width="1" font-size="16" >CH</text>
<text x="209.283893" y="178.603909" fill="rgb(102,102,102)"  stroke="rgb(102,102,102)" stroke-width="1" font-size="13" >3</text>
<text x="560.975625" y="174.923909" fill="rgb(102,102,102)"  stroke="rgb(102,102,102)" stroke-width="1" font-size="16" >CH</text>
<text x="584.975625" y="178.603909" fill="rgb(102,102,102)"  stroke="rgb(102,102,102)" stroke-width="1" font-size="13" >3</text>
<text x="699.539526" y="174.923909" fill="rgb(102,102,102)"  stroke="rgb(102,102,102)" stroke-width="1" font-size="16" >CH</text>
<text x="723.539526" y="178.603909" fill="rgb(102,102,102)"  stroke="rgb(102,102,102)" stroke-width="1" font-size="13" >3</text>
<text x="796.243455" y="75.263981" fill="rgb(191,191,191)"  stroke="rgb(191,191,191)" stroke-width="1" font-size="16" >H</text>
<text x="907.019376" y="163.911917" fill="rgb(191,191,191)"  stroke="rgb(191,191,191)" stroke-width="1" font-size="16" >H</text>
<text x="753.179472" y="163.911917" fill="rgb(102,102,102)"  stroke="rgb(102,102,102)" stroke-width="1" font-size="16" >H</text>
<text x="765.179472" y="167.591917" fill="rgb(102,102,102)"  stroke="rgb(102,102,102)" stroke-width="1" font-size="13" >3</text>
<text x="771.679472" y="163.911917" fill="rgb(102,102,102)"  stroke="rgb(102,102,102)" stroke-width="1" font-size="16" >C</text>
<text x="781.463451" y="192.195897" fill="rgb(102,102,102)"  stroke="rgb(102,102,102)" stroke-width="1" font-size="16" >H</text>
<text x="793.463451" y="195.875897" fill="rgb(102,102,102)"  stroke="rgb(102,102,102)" stroke-width="1" font-size="13" >3</text>
<text x="799.963451" y="192.195897" fill="rgb(102,102,102)"  stroke="rgb(102,102,102)" stroke-width="1" font-size="16" >C</text>
<text x="917.375369" y="125.275945" fill="rgb(255,12,12)"  stroke="rgb(255,12,12)" stroke-width="1" font-size="16" >OH</text>
<text x="799.395439" y="48.000000" fill="rgb(102,102,102)"  stroke="rgb(102,102,102)" stroke-width="1" font-size="16" >H</text>
<text x="811.395439" y="51.680000" fill="rgb(102,102,102)"  stroke="rgb(102,102,102)" stroke-width="1" font-size="13" >3</text>
<text x="817.895439" y="48.000000" fill="rgb(102,102,102)"  stroke="rgb(102,102,102)" stroke-width="1" font-size="16" >C</text>
<text x="387.771749" y="74.923981" fill="rgb(102,102,102)"  stroke="rgb(102,102,102)" stroke-width="1" font-size="16" >CH</text>
<text x="411.771749" y="78.603981" fill="rgb(102,102,102)"  stroke="rgb(102,102,102)" stroke-width="1" font-size="13" >3</text>
<text x="249.207848" y="74.923981" fill="rgb(102,102,102)"  stroke="rgb(102,102,102)" stroke-width="1" font-size="16" >CH</text>
<text x="273.207848" y="78.603981" fill="rgb(102,102,102)"  stroke="rgb(102,102,102)" stroke-width="1" font-size="13" >3</text>
<text font-size="18.000000" fill ="black" font-family="sans-serif"
x="10.000000" y="20.000000" >lutein</text>
<title>lutein - OBDepict</title>
</svg>
